<?xml version="1.0" standalone="no"?>
<!DOCTYPE svg PUBLIC "-//W3C//DTD SVG 20010904//EN"
 "http://www.w3.org/TR/2001/REC-SVG-20010904/DTD/svg10.dtd">
<svg version="1.0" xmlns="http://www.w3.org/2000/svg"
 width="976.000000pt" height="976.000000pt" viewBox="0 0 976.000000 976.000000"
 preserveAspectRatio="xMidYMid meet">
<metadata>
Created by potrace 1.11, written by Peter Selinger 2001-2013
</metadata>
<g transform="translate(0.000000,976.000000) scale(0.100000,-0.100000)"
fill="#000000" stroke="none">
<path d="M1709 9756 c-2 -3 -22 -7 -44 -10 -138 -17 -309 -88 -438 -181 -42
-30 -168 -155 -203 -200 -47 -62 -129 -208 -122 -217 1 -2 -4 -14 -11 -27 -18
-33 -50 -145 -59 -206 -9 -66 -9 -5593 1 -5670 6 -47 20 -132 26 -153 0 -1 3
-14 7 -30 10 -47 55 -196 68 -227 7 -16 28 -66 46 -110 68 -162 219 -418 293
-497 14 -16 24 -28 21 -28 -6 0 49 -61 131 -145 64 -65 171 -153 260 -215 20
-14 44 -32 53 -41 9 -9 32 -24 50 -35 17 -10 32 -22 32 -26 0 -4 5 -8 11 -8 6
0 30 -13 54 -30 24 -16 48 -30 53 -30 6 0 12 -4 14 -8 2 -4 48 -34 103 -66 55
-33 114 -67 130 -77 134 -79 579 -301 800 -399 22 -10 66 -30 98 -44 32 -14
60 -26 62 -26 2 0 33 -13 67 -29 35 -16 95 -41 133 -56 39 -15 86 -34 105 -42
75 -32 84 -36 229 -92 58 -23 111 -41 118 -41 7 0 13 -5 13 -12 0 -6 3 -8 6
-5 8 8 221 -100 248 -125 11 -10 24 -18 29 -18 11 0 101 -61 105 -72 2 -4 10
-8 17 -8 7 0 15 -3 17 -8 2 -4 37 -32 78 -62 41 -30 86 -65 100 -76 179 -152
230 -198 363 -326 32 -32 62 -58 67 -58 4 0 63 55 132 123 68 67 151 145 183
172 32 28 70 60 84 72 39 34 40 34 141 111 52 40 100 76 107 81 6 6 35 24 65
42 29 18 60 38 68 45 13 11 255 138 255 134 0 -2 19 6 130 50 44 18 85 35 90
38 6 4 15 7 20 8 6 1 42 16 80 34 39 18 91 41 118 51 26 10 70 30 97 44 27 14
51 25 52 24 2 -1 21 7 43 18 22 12 45 22 50 23 6 2 57 25 115 52 57 27 126 59
152 70 26 11 48 25 48 31 0 6 3 8 6 5 6 -7 367 172 538 266 66 36 120 66 121
66 3 0 172 98 210 121 17 10 37 22 45 26 8 3 29 17 46 30 17 13 34 23 38 23
11 0 289 188 336 227 130 110 327 336 327 376 0 20 -31 44 -68 53 -21 5 -1344
7 -1376 2 -7 -1 -13 -4 -13 -8 0 -6 -48 -32 -60 -32 -3 0 -16 -8 -30 -18 -38
-26 -705 -356 -760 -375 -3 -1 -17 -5 -32 -9 -16 -5 -28 -12 -28 -17 0 -5 -5
-9 -10 -9 -6 0 -29 -9 -53 -19 -23 -11 -118 -52 -212 -91 -93 -40 -188 -80
-210 -90 -22 -9 -50 -20 -62 -24 -87 -27 -449 -225 -657 -360 l-89 -58 -66 35
c-135 71 -197 104 -218 115 -13 7 -33 17 -45 24 -53 28 -300 149 -378 186 -47
21 -168 72 -270 112 -178 69 -231 91 -275 110 -11 5 -92 41 -180 79 -88 38
-218 96 -288 130 -71 34 -133 61 -138 61 -5 0 -9 5 -9 10 0 6 -9 10 -20 10
-11 0 -20 5 -20 10 0 6 -8 10 -18 10 -10 0 -28 7 -40 16 -12 8 -66 38 -119 66
-54 27 -106 57 -117 67 -10 9 -19 14 -20 12 -2 -7 -87 44 -221 133 -145 95
-260 207 -342 331 -50 75 -127 216 -128 235 0 3 -3 10 -6 15 -25 42 -68 213
-74 299 -2 27 -6 50 -8 53 -3 2 -1 20 3 39 4 19 4 36 -1 39 -4 3 -5 16 -1 28
8 23 7 85 -2 94 -2 3 -1 16 4 29 7 17 6 24 -2 24 -9 0 -9 3 -1 11 7 7 8 21 3
38 -4 14 -4 34 0 45 6 19 4 85 -4 93 -3 3 -1 16 4 29 7 17 6 24 -2 24 -9 0 -9
3 -1 11 7 7 8 21 3 38 -4 14 -4 34 0 45 6 19 4 85 -4 93 -3 3 -1 16 4 29 7 17
6 24 -2 24 -9 0 -9 3 -1 11 7 7 8 21 3 38 -4 14 -4 34 0 45 6 19 4 85 -4 93
-3 3 -1 16 4 29 7 17 6 24 -2 24 -9 0 -9 3 -1 11 7 7 8 21 3 38 -4 14 -4 34 0
45 3 10 4 35 2 55 -7 72 -7 87 -1 119 4 17 3 34 -2 37 -4 3 -5 16 -1 28 8 23
7 85 -2 94 -2 3 -1 16 4 29 7 17 6 24 -2 24 -9 0 -9 3 -1 11 7 7 8 21 3 38 -4
14 -4 34 0 45 6 19 4 85 -4 93 -3 3 -1 16 4 29 7 17 6 24 -2 24 -9 0 -9 3 -1
11 7 7 8 21 3 38 -4 14 -4 35 0 46 4 11 4 30 -1 43 -5 14 -5 22 2 22 6 0 8 4
5 9 -7 10 -8 71 -3 117 1 18 0 40 -4 50 -3 11 -3 29 2 42 6 15 5 22 -3 22 -9
0 -9 3 -1 11 7 7 8 21 3 38 -4 14 -4 34 0 45 6 19 4 85 -4 93 -3 3 -1 16 4 29
7 17 6 24 -2 24 -9 0 -9 3 -1 11 7 7 8 21 3 39 -5 16 -6 31 -3 34 3 3 5 24 4
48 0 24 -1 50 -1 58 -1 8 -1 44 -1 80 1 36 1 72 0 80 0 8 0 44 0 80 1 36 1 72
0 80 0 8 0 44 0 80 1 209 0 253 -4 261 -3 4 1 10 7 12 10 4 10 6 1 6 -9 1 -10
8 -4 24 5 12 5 31 1 42 -4 11 -4 29 -1 40 8 22 6 84 -3 92 -2 3 -1 16 4 29 7
17 6 24 -2 24 -9 0 -9 3 -1 11 7 7 8 21 3 38 -4 14 -4 34 0 45 6 19 4 85 -4
93 -3 3 -1 16 4 29 7 17 6 24 -2 24 -9 0 -9 3 -1 11 7 7 8 21 3 38 -4 14 -4
34 0 45 6 19 4 85 -4 93 -3 3 -1 16 4 29 7 17 6 24 -2 24 -9 0 -9 3 -1 11 7 7
8 21 3 38 -4 14 -4 34 0 45 6 19 4 85 -4 93 -3 3 -1 16 4 29 7 17 6 24 -2 24
-9 0 -9 3 -1 11 7 7 8 21 3 38 -4 14 -4 34 -1 45 4 10 6 32 4 50 -2 17 -3 45
-3 61 1 17 1 36 1 43 -4 79 -2 217 4 292 8 120 62 244 146 341 48 56 122 116
143 117 5 0 12 4 15 10 8 13 127 59 176 68 22 4 1140 8 2485 9 2483 1 2479 1
2585 -33 47 -15 105 -45 105 -54 0 -4 7 -8 15 -8 28 0 128 -98 180 -177 30
-43 74 -131 75 -148 0 -3 0 -6 1 -7 1 -5 8 -43 16 -88 5 -25 8 -884 8 -1910
-1 -1520 -3 -1874 -14 -1912 -17 -59 -56 -103 -100 -113 -19 -4 -252 -7 -518
-7 -459 1 -485 2 -528 21 -109 48 -171 166 -174 335 -1 50 -3 469 -4 931 l-2
840 -25 37 c-13 20 -43 45 -65 56 -38 18 -62 19 -435 17 -290 -1 -404 -5 -427
-14 -22 -9 -39 -26 -53 -56 -20 -42 -21 -54 -21 -808 -1 -844 2 -812 -64 -955
-38 -81 -94 -172 -107 -172 -4 0 -8 -6 -8 -12 0 -14 -83 -97 -145 -145 -44
-35 -167 -99 -206 -107 -94 -21 -126 -25 -205 -22 -177 7 -297 57 -411 172
-40 41 -73 80 -73 89 0 8 -4 15 -8 15 -17 0 -73 140 -93 230 -5 25 -12 56 -15
70 -3 14 -7 615 -9 1335 -2 721 -6 1323 -10 1338 -9 43 -44 84 -89 105 -39 18
-64 19 -441 17 -220 -2 -406 -5 -413 -6 -30 -5 -91 -79 -99 -120 -10 -49 -9
-2549 1 -2664 4 -44 9 -96 11 -115 3 -19 7 -57 10 -84 8 -66 51 -262 69 -314
8 -23 16 -44 16 -47 1 -8 12 -38 37 -105 50 -130 167 -332 239 -410 71 -77
191 -190 202 -190 4 0 23 -14 42 -30 19 -16 40 -30 47 -30 6 0 13 -3 15 -7 7
-17 248 -130 248 -116 0 3 6 0 14 -6 8 -7 27 -14 43 -17 15 -3 46 -10 68 -16
22 -5 47 -11 55 -13 8 -1 31 -5 50 -9 79 -13 118 -18 175 -21 33 -2 62 -4 65
-5 3 -1 10 -1 15 0 6 1 51 2 100 2 82 0 144 6 260 24 22 4 47 8 55 9 14 2 91
21 115 29 6 2 12 4 15 4 19 1 160 60 235 98 134 67 291 184 432 322 l23 23 10
-26 c6 -14 15 -37 22 -52 6 -16 12 -33 14 -40 7 -38 80 -213 100 -239 13 -17
39 -39 60 -49 34 -16 121 -17 1353 -18 724 0 1334 2 1356 6 127 21 175 43 211
99 16 24 31 50 32 58 2 8 6 24 9 35 6 28 4 5290 -3 5345 -6 58 -33 180 -42
194 -3 6 -8 18 -9 27 -5 32 -66 155 -112 224 -41 63 -164 196 -217 235 -66 49
-92 65 -162 100 -72 36 -152 67 -195 75 -10 3 -28 7 -39 11 -11 3 -32 9 -46
12 -31 6 -6356 14 -6363 8z"/>
</g>
</svg>
