<svg width="140" height="140" viewBox="0 0 140 140" xmlns="http://www.w3.org/2000/svg"><title>exams</title><g fill="none"><path d="M70 140c38.555 0 70-31.445 70-70S108.555 0 70 0C31.446 0 0 31.445 0 70s31.446 70 70 70z" fill="#0E7886"/><path fill="#FFF" d="M32.151 19.598h75.697v85.157L92.202 120.4h-60.05z"/><path fill="#FBB429" d="M92.202 104.755h15.646L92.202 120.4v-15.645z"/><path d="M41.52 49.663H96.7v.818H41.52v-.818zm0 47.182h25.247v.819H41.52v-.819zm0-4.368H96.7v.818H41.52v-.818zm0-5.352H96.7v.818H41.52v-.818zm0-5.352H96.7v.819H41.52v-.819zm0-5.352H96.7v.819H41.52v-.819zm0-5.351H96.7v.818H41.52v-.818zm0-5.352H96.7v.818H41.52v-.818zm0-5.352H96.7v.819H41.52v-.819zm0-5.352H96.7v.82H41.52v-.82z" fill="#C8CACC"/><path d="M53.543 45.428c-.187 0-.35-.036-.491-.104a1.087 1.087 0 0 1-.355-.283 1.25 1.25 0 0 1-.215-.4 1.553 1.553 0 0 1-.073-.45c0-.137.037-.318.11-.555.069-.237.16-.5.273-.792.108-.295.232-.6.364-.918.136-.324.263-.628.387-.918.127-.296.232-.57.318-.815.072-.193.136-.389.191-.587.032-.16.078-.35.132-.573l.177-.728a21.9 21.9 0 0 0 .2-.823c.069-.29.137-.583.21-.873a5.87 5.87 0 0 1-.46.073 15.92 15.92 0 0 1-.582.059c-.291.028-.582.069-.864.118a22.49 22.49 0 0 0-.874.182c-.3.068-.604.136-.927.215-.318.072-.66.154-1.024.23-.532.119-1.069.246-1.6.388a6.512 6.512 0 0 1-1.665.213.924.924 0 0 1-.497-.14 1.786 1.786 0 0 0-.504-.206 10.41 10.41 0 0 0-.505.911 13.3 13.3 0 0 0-.441 1c-.13.334-.25.672-.36 1.014-.104.333-.2.646-.277.937a3.893 3.893 0 0 0-.113.624c-.032.25-.065.51-.087.773-.027.26-.054.51-.081.75-.028.24-.055.432-.083.574-.022.13-.077.263-.158.391-.079.132-.178.25-.292.355a1.448 1.448 0 0 1-.387.26.977.977 0 0 1-.427.1.844.844 0 0 1-.605-.22 1.57 1.57 0 0 1-.373-.544 2.695 2.695 0 0 1-.195-.715 4.99 4.99 0 0 1-.05-.705c0-.541.063-1.105.2-1.687a12.82 12.82 0 0 1 .537-1.77c.226-.6.495-1.204.8-1.814.305-.61.637-1.214.992-1.82.295-.54.66-1.169 1.092-1.878.435-.71.922-1.441 1.46-2.193a28.488 28.488 0 0 1 1.746-2.205 17.54 17.54 0 0 1 1.95-1.924 10.336 10.336 0 0 1 2.08-1.364c.714-.35 1.418-.523 2.118-.523.738 0 1.352.136 1.847.4.491.268.887.628 1.178 1.082.296.45.5.978.62 1.583.121.605.181 1.246.181 1.92 0 .595-.037 1.21-.114 1.837-.077.633-.168 1.25-.282 1.855a34.558 34.558 0 0 1-.359 1.743c-.127.56-.245 1.068-.35 1.518l-.469 1.815-.1.319c-.045.159-.109.355-.186.581-.073.224-.159.47-.25.733-.095.26-.187.519-.282.774-.09.249-.182.485-.269.695a7.69 7.69 0 0 1-.217.523l.013-.013c-.064.231-.128.464-.2.704a2.52 2.52 0 0 1-.291.646 1.59 1.59 0 0 1-.482.469c-.196.116-.447.177-.76.177zm.68-16.682c-.399 0-.799.08-1.195.245a6.265 6.265 0 0 0-1.164.65 7.949 7.949 0 0 0-1.114.932c-.36.355-.7.719-1.024 1.092-.323.374-.628.746-.915 1.123-.281.378-.54.728-.772 1.046l-.141.21c-.06.09-.118.183-.173.277-.055.105-.114.21-.164.323a4.27 4.27 0 0 0-.136.3h1.373c.5 0 1.07-.036 1.706-.11a40.3 40.3 0 0 0 1.9-.254 47.472 47.472 0 0 0 1.725-.295c.522-.104.919-.182 1.187-.237.044-.152.077-.307.1-.464.072-.47.12-.943.145-1.419a16.35 16.35 0 0 0-.004-1.627 3.212 3.212 0 0 0-.165-.847 1.674 1.674 0 0 0-.404-.672c-.182-.183-.437-.274-.763-.273h-.001zm13.328 7.913c-.51 2.393-.76 3.97-.76 4.744 0 .25-.158.455-.473.614a2.11 2.11 0 0 1-.955.24c-.354 0-.641-.09-.864-.267a.817.817 0 0 1-.332-.664c0-.952.25-2.48.76-4.585-1.087.018-2.171.08-3.252.186-.532.054-.896.082-1.083.082-.505 0-.756-.446-.756-1.332 0-.346.246-.624.737-.828.492-.206 2.147-.328 4.963-.374.891-3.01 1.456-4.698 1.692-5.057.24-.36.59-.537 1.055-.537.728 0 1.092.173 1.092.519 0 .187-.066.468-.201.85-.132.383-.51 1.765-1.133 4.144a146.72 146.72 0 0 1 4.144-.077c.696 0 1.042.345 1.042 1.036 0 .82-.51 1.228-1.533 1.228-1.155 0-2.539.028-4.144.078zm19.656 17.29l4.863 3.826 33.04-41.978-4.863-3.827-33.04 41.979z" fill="#20D0C2"/><path fill="#15BDB1" d="M111.065 33.64l.955-1.213-4.856-3.835-.954 1.213z"/><path fill="#FF5B61" d="M86.153 62.171l5.916-4.396-4.863-3.826-2.866 6.794z"/><path fill="#EC4B53" d="M86.158 62.166l5.91-4.39-1.053-.83-5.213 4.949z"/><path d="M124.468 8.659l2.867 2.256c.787.62.879 1.83.203 2.691l-15.36 19.515-5.733-4.512 15.36-19.516c.675-.858 1.874-1.054 2.662-.434h.001z" fill="#FF5B61"/><path d="M127.023 13.2l-1.994 2.534-4.906 6.233-8.46 10.75.08.062.434.342 8.223-10.448 7.137-9.067c.677-.86.585-2.07-.202-2.692l-.137-.106c.446.689.4 1.661-.175 2.392z" fill="#EC4B53"/><path fill="#666" d="M81.994 65.373l.203.16 3.956-3.362-1.813-1.427z"/><path d="M119.737 11.719l6.673 5.314c.2.21.22.428.047.645l-8.921 11.337-.232.164-1.153.4c-.56.165-.887-.558-.226-.873l1.012-.351 8.538-10.848-6.33-5.04.592-.748z" fill="#FFF"/><path fill="#15BDB1" d="M91.666 57.458l.404.317 18.997-24.136-.404-.317z"/><path fill="#20D0C2" d="M44.51 118.776h7.934v20.564l-3.967-3.11-3.966 3.11v-20.565z"/><path d="M51.457 103.093l.18.065a1.803 1.803 0 1 1 3.063 1.894l.138.13a1.804 1.804 0 1 1 2.033 2.975c.024.06.05.117.073.178a1.804 1.804 0 1 1 .643 3.544l-.006.19a1.804 1.804 0 1 1-.85 3.5l-.083.173a1.804 1.804 0 1 1-2.205 2.848 3.739 3.739 0 0 1-.144.124 1.803 1.803 0 0 1-2.595 2.408 1.812 1.812 0 0 1-.576-.698c-.06.019-.121.038-.183.054a1.804 1.804 0 1 1-3.591.27 7.019 7.019 0 0 1-.19-.025 1.805 1.805 0 0 1-3.525-.317 1.8 1.8 0 0 1 .134-.896 8.89 8.89 0 0 1-.162-.101 1.804 1.804 0 1 1-2.604-2.488 8.457 8.457 0 0 1-.108-.157 1.803 1.803 0 1 1-1.369-3.332 7.072 7.072 0 0 1-.033-.188 1.803 1.803 0 1 1 .104-3.6l.046-.186a1.804 1.804 0 1 1 1.562-3.246l.117-.15a1.805 1.805 0 1 1 2.746-2.332l.168-.09a1.805 1.805 0 1 1 3.457-1.012l.19-.014a1.804 1.804 0 1 1 3.57.48z" fill="#FF5B61"/><path d="M48.406 120.017c4.563 0 8.284-3.722 8.284-8.284 0-4.562-3.721-8.283-8.284-8.283-4.563 0-8.284 3.72-8.284 8.283 0 4.563 3.721 8.283 8.284 8.283v.001z" fill="#FFF"/><path d="M48.405 119.1c4.058 0 7.368-3.31 7.368-7.368 0-4.056-3.31-7.366-7.368-7.366-4.057 0-7.366 3.31-7.366 7.366 0 4.058 3.31 7.368 7.366 7.368z" fill="#FBB429"/><path fill="#FFF" d="M48.406 106.218l1.228 4.013 3.998-.007-3.239 2.471 1.242 4.008-3.23-2.484-3.229 2.484 1.242-4.008-3.238-2.471 3.998.007z"/></g></svg>