<svg width="150" height="150" viewBox="0 0 150 150" xmlns="http://www.w3.org/2000/svg"><title>test</title><g fill="none"><path d="M75 150c41.309 0 75-33.691 75-75S116.309 0 75 0C33.692 0 0 33.691 0 75s33.692 75 75 75z" fill="#0E7886"/><path fill="#FFF" d="M34.448 20.998h81.103v91.24L98.788 129h-64.34z"/><path fill="#FBB429" d="M98.788 112.238h16.763L98.788 129v-16.763z"/><path d="M44.486 53.21h59.122v.877H44.486v-.877zm0 50.553h27.05v.877h-27.05v-.877zm0-4.681h59.122v.877H44.486v-.877zm0-5.734h59.122v.877H44.486v-.877zm0-5.734h59.122v.877H44.486v-.877zm0-5.734h59.122v.877H44.486v-.877zm0-5.734h59.122v.877H44.486v-.877zm0-5.734h59.122v.877H44.486v-.877zm0-5.734h59.122v.877H44.486v-.877zm0-5.734h59.122v.878H44.486v-.878z" fill="#C8CACC"/><path d="M57.367 48.673c-.2 0-.375-.039-.526-.112a1.165 1.165 0 0 1-.38-.303 1.34 1.34 0 0 1-.23-.428 1.664 1.664 0 0 1-.078-.483c0-.146.039-.34.118-.594.073-.254.17-.536.292-.849.116-.316.248-.643.39-.983.146-.347.282-.673.414-.984.137-.317.249-.61.341-.873a7.31 7.31 0 0 0 .205-.629c.034-.171.083-.375.141-.614l.19-.78c.073-.278.146-.575.214-.882.074-.311.147-.624.225-.935a6.381 6.381 0 0 1-.492.078 17.74 17.74 0 0 1-.624.063c-.312.03-.624.074-.926.127-.307.058-.619.122-.936.195-.321.073-.648.146-.994.23-.34.077-.707.165-1.097.247-.57.127-1.145.263-1.715.415-.57.15-1.164.229-1.783.229a.99.99 0 0 1-.532-.151c-.16-.098-.34-.17-.54-.22-.19.303-.37.629-.542.976-.17.35-.33.706-.472 1.071a17.97 17.97 0 0 0-.385 1.087c-.112.356-.215.692-.298 1.004a4.171 4.171 0 0 0-.121.668c-.034.268-.069.546-.093.828-.029.279-.058.547-.087.805-.03.257-.059.462-.088.614-.024.14-.083.282-.17.419-.084.141-.19.268-.313.38-.126.116-.263.21-.414.278-.15.073-.307.107-.458.107-.268 0-.482-.078-.648-.234a1.682 1.682 0 0 1-.4-.584 2.888 2.888 0 0 1-.209-.766 5.347 5.347 0 0 1-.054-.755c0-.58.068-1.184.215-1.808.141-.624.331-1.257.575-1.895.243-.644.531-1.291.858-1.945.326-.653.682-1.3 1.062-1.949.317-.58.707-1.253 1.17-2.013.467-.76.988-1.544 1.564-2.349a30.926 30.926 0 0 1 1.871-2.363 18.843 18.843 0 0 1 2.09-2.061 11.074 11.074 0 0 1 2.228-1.462c.765-.375 1.52-.56 2.27-.56.79 0 1.448.146 1.979.428.526.288.95.673 1.262 1.16.317.483.536 1.048.663 1.696.131.648.195 1.335.195 2.057 0 .638-.04 1.296-.122 1.968-.083.678-.18 1.34-.302 1.988a37.027 37.027 0 0 1-.385 1.867c-.136.6-.263 1.145-.375 1.627l-.502 1.944c-.02.06-.053.17-.107.342-.049.17-.117.38-.2.623-.078.24-.17.503-.268.785-.102.278-.2.556-.302.829-.097.267-.195.52-.288.745-.087.23-.165.414-.233.56l.014-.014c-.068.248-.137.497-.214.755a2.7 2.7 0 0 1-.312.692c-.137.205-.307.37-.516.502-.21.125-.479.19-.815.19zm.73-17.874c-.428 0-.857.087-1.281.263-.424.18-.838.409-1.247.697-.41.282-.81.614-1.194.998-.385.38-.75.77-1.097 1.17-.346.4-.673.799-.98 1.203-.302.405-.58.78-.828 1.121l-.151.224a7.1 7.1 0 0 0-.185.298c-.059.112-.122.224-.176.346a4.575 4.575 0 0 0-.146.32h1.472c.536 0 1.145-.038 1.827-.116a44.587 44.587 0 0 0 2.037-.273 50.863 50.863 0 0 0 1.847-.316c.56-.112.985-.195 1.272-.254a3.7 3.7 0 0 0 .107-.497 15.102 15.102 0 0 0 .156-1.52 17.481 17.481 0 0 0-.005-1.744 3.441 3.441 0 0 0-.176-.907 1.794 1.794 0 0 0-.433-.72c-.195-.196-.468-.294-.818-.293zm14.279 8.479c-.546 2.563-.814 4.254-.814 5.082 0 .269-.17.488-.507.658a2.26 2.26 0 0 1-1.023.258c-.38 0-.687-.097-.926-.287a.875.875 0 0 1-.356-.711c0-1.02.269-2.657.814-4.913a42.8 42.8 0 0 0-3.484.2c-.57.058-.96.088-1.16.088-.541 0-.81-.478-.81-1.428 0-.37.264-.668.79-.887.527-.22 2.3-.351 5.317-.4.955-3.226 1.56-5.034 1.813-5.419.257-.385.633-.575 1.13-.575.78 0 1.17.185 1.17.556 0 .2-.07.501-.215.911-.141.41-.546 1.891-1.214 4.44a154.93 154.93 0 0 1 4.44-.083c.746 0 1.116.37 1.116 1.11 0 .878-.545 1.316-1.642 1.316-1.238 0-2.72.03-4.44.084zm21.06 18.524l5.21 4.1 35.4-44.977-5.21-4.1z" fill="#20D0C2"/><path fill="#15BDB1" d="M118.998 36.043l1.023-1.3-5.202-4.109-1.023 1.3z"/><path fill="#FF5B61" d="M92.307 66.612l6.338-4.71-5.21-4.1-3.071 7.28z"/><path fill="#EC4B53" d="M92.312 66.606l6.333-4.704-1.129-.889-5.585 5.303z"/><path d="M133.359 9.277l3.071 2.418c.844.664.942 1.961.218 2.883L120.19 35.487l-6.142-4.835 16.457-20.909c.724-.92 2.008-1.13 2.853-.466z" fill="#FF5B61"/><path d="M136.096 14.143l-2.136 2.715-5.257 6.678-9.064 11.517.086.067.465.367L129 24.293l7.647-9.715c.725-.922.627-2.219-.217-2.884l-.146-.114c.477.738.428 1.78-.188 2.563z" fill="#EC4B53"/><path fill="#666" d="M87.851 70.043l.217.171 4.239-3.602-1.943-1.529z"/><path d="M128.29 12.556l7.149 5.694c.215.224.235.458.051.691l-9.559 12.146-.248.176-1.236.428c-.6.178-.95-.597-.242-.935l1.085-.376 9.147-11.622-6.782-5.4.635-.802z" fill="#FFF"/><path fill="#15BDB1" d="M98.214 61.562l.432.34L119 36.042l-.432-.34z"/><path fill="#20D0C2" d="M47.69 127.26h8.5v22.033l-4.25-3.332-4.25 3.332v-22.034z"/><path d="M55.132 110.457l.193.069a1.932 1.932 0 1 1 3.282 2.03c.05.046.1.093.148.14a1.933 1.933 0 1 1 2.178 3.187c.026.063.053.125.078.19a1.933 1.933 0 1 1 .689 3.797l-.006.204a1.933 1.933 0 1 1-.911 3.75l-.089.185a1.933 1.933 0 1 1-2.362 3.052c-.05.045-.102.09-.155.133a1.932 1.932 0 0 1-2.78 2.58c-.275-.2-.482-.46-.617-.748-.065.02-.13.04-.196.058a1.933 1.933 0 1 1-3.848.289 7.523 7.523 0 0 1-.203-.027 1.934 1.934 0 0 1-3.777-.34 1.929 1.929 0 0 1 .144-.96 9.523 9.523 0 0 1-.174-.108 1.933 1.933 0 1 1-2.79-2.666 9.066 9.066 0 0 1-.116-.168 1.932 1.932 0 1 1-1.466-3.57 7.578 7.578 0 0 1-.036-.201 1.932 1.932 0 1 1 .112-3.858l.049-.199a1.933 1.933 0 1 1 1.674-3.477l.125-.162a1.934 1.934 0 1 1 2.942-2.498l.18-.097a1.934 1.934 0 1 1 3.704-1.083l.204-.015a1.933 1.933 0 1 1 3.824.513z" fill="#FF5B61"/><path d="M51.864 128.59c4.888 0 8.875-3.988 8.875-8.876s-3.987-8.875-8.875-8.875c-4.889 0-8.876 3.987-8.876 8.875 0 4.889 3.987 8.875 8.876 8.875z" fill="#FFF"/><path d="M51.863 127.607c4.347 0 7.894-3.546 7.894-7.894 0-4.346-3.547-7.892-7.894-7.892-4.347 0-7.893 3.546-7.893 7.892 0 4.348 3.546 7.894 7.893 7.894z" fill="#FBB429"/><path fill="#FFF" d="M51.864 113.805l1.315 4.3 4.284-.008-3.47 2.648 1.33 4.294-3.46-2.662-3.46 2.662 1.331-4.294-3.47-2.648 4.284.008z"/></g></svg>