<svg width="243" height="243" viewBox="0 0 243 243" xmlns="http://www.w3.org/2000/svg"><title>forms</title><g fill="none"><path d="M121.5 0C188.603 0 243 54.397 243 121.5c0 67.103-54.397 121.5-121.5 121.5C54.397 243 0 188.603 0 121.5 0 54.397 54.397 0 121.5 0z" fill="#3A5ABD"/><path d="M215.382 142.623c-2.817 32.06-38.542 52.185-93.11 52.185-54.566 0-98.36-23.949-97.813-53.492.544-29.312 44.542-53.115 98.536-53.48 9.926-.75 53.049 5.177 34.12 18.22-34.653 23.877 11.853 36.234 22.625 21.351 14.94-20.636 37.595-7.016 35.642 15.216z" fill="#DFE1E3"/><path d="M214.41 139.618c-2.22 31.053-37.574 50.55-92.14 50.55-54.569 0-98.806-23.197-98.806-51.817 0-28.397 43.557-51.451 97.545-51.806 9.912-.728 53.145 5.016 34.457 17.65-34.21 23.13 12.524 35.099 23.02 20.683 14.556-19.99 37.465-6.798 35.924 14.738v.002z" fill="#FFF"/><path d="M106.363 95.256s-13.137.138-13.323 2.81c-.185 2.672-10.084 2.604-5.459 6.237 4.626 3.632 10.176.344 16.838 1.028 6.661.686 13.045-3.29 10.824-5.69-2.22-2.399-3.791-5.003-8.88-4.385z" fill="#F5A209"/><path d="M67.903 116.221c8.562.921 8.828 3.247 9.869 4.757 1.041 1.51-5.535 5.354-10.562 6.632-5.026 1.278-5.918-1.883-13.374-.022-15.603 3.89-9.172-13.865 14.067-11.367z" fill="#EC4B53"/><path d="M64.33 145.907s-17.151-4.818-21.718.088c-4.564 4.906-5.752 7.071.476 8.948 6.23 1.876 17.675-.642 21.691.033 4.016.675 6.986-5.687-.451-9.07h.002z" fill="#15BDB1"/><path d="M78.087 168.153c-6.644 4.171-.368 8.433 8.88 10.416 9.252 1.984 9.892-1.894 14.887-3.755 4.996-1.86 13.977-7.657 6.393-8.895-7.585-1.24-8.745-4.819-14.09-3.784-11.201 2.168-8.013.96-16.07 6.015v.003z" fill="#F5A209"/><path d="M137.98 173.236c-.56 4.61 10.448 5.81 15.505 6.075 5.06.263 13.72-3.663 17.373-5.64 3.654-1.975 5.483-8.037-.421-8.826-5.901-.79-6.041 1.055-10.26-1.186-4.215-2.24-7.869-1.975-11.804.79-3.935 2.766-10.252 4.967-10.395 8.788h.002z" fill="#076673"/><path d="M191.097 137.994c-2.858.69-6.686 2.441-10.033 4.829-3.35 2.389-3.089 3.941-3.858 6.484-.772 2.543 8.49 5.34 14.972 3.814 6.484-1.526 16.98-10.423 11.886-11.949-5.095-1.526-5.095-4.959-12.967-3.178z" fill="#EC4B53"/><path fill="#15BDB1" d="M151.33 125.889l-4.275-4.9-17.118 14.93 4.275 4.9z"/><path fill="#20D0C2" d="M149.976 124.337l-1.568-1.798-17.118 14.93 1.57 1.798z"/><path d="M129.935 135.92s-7.503-2.832-13.229 6.11c-5.728 8.938-11.055 7.152-16.263 7.698 0 0 35.389 10.684 33.769-8.91l-4.277-4.9v.002z" fill="#EC4B53"/><path d="M104.886 150.256c7.269-1.024 9.902-3.01 11.666-6.293 2.977-5.54 8.144-9.133 13.438-6.901l3.338 4.114c-.712 15.494-28.442 9.08-28.442 9.08z" fill="#FF5B61"/><path d="M167.99 114.09c-8.98 6.599-16.666 11.792-16.666 11.792l-4.269-4.895s6.19-6.908 13.947-14.91l6.99 8.011-.002.003z" fill="#0E7886"/><path d="M161 106.079c5.392-5.564 11.539-11.656 16.892-16.325 13.043-11.377 61.151-50.005 63.843-47.047v-.003c.003.003.003.003.003.005s.002.002.004.002l-.003.002c2.561 3.067-42.24 45.485-55.283 56.861-5.353 4.67-12.223 9.933-18.466 14.519L161 106.08v-.001z" fill="#FBB429"/><path d="M106.18 94.745s-13.138.138-13.325 2.81c-.184 2.673-10.083 2.605-5.458 6.24 4.625 3.631 10.176.341 16.838 1.027 6.661.684 13.043-3.29 10.824-5.688-2.22-2.399-3.792-5.005-8.88-4.387v-.002z" fill="#FFBA1B"/><path d="M67.716 115.71c8.563.921 8.828 3.247 9.87 4.758 1.038 1.51-5.536 5.353-10.562 6.631-5.029 1.278-5.919-1.883-13.374-.022-15.604 3.89-9.172-13.863 14.066-11.366z" fill="#FF5B61"/><path d="M64.143 145.398s-17.15-4.818-21.715.088c-4.564 4.906-5.752 7.072.476 8.949 6.23 1.876 17.677-.643 21.69.032 4.017.678 6.985-5.686-.45-9.069z" fill="#20D0C2"/><path d="M77.901 167.642c-6.644 4.172-.37 8.433 8.88 10.417 9.251 1.984 9.891-1.894 14.887-3.753 4.996-1.861 13.977-7.657 6.392-8.896-7.587-1.24-8.744-4.818-14.089-3.783-11.201 2.168-8.016.96-16.07 6.015z" fill="#FFBA1B"/><path d="M137.794 172.727c-.564 4.613 10.445 5.81 15.505 6.075 5.06.263 13.72-3.663 17.372-5.638 3.654-1.975 5.48-8.036-.42-8.825-5.904-.791-6.044 1.054-10.26-1.186-4.215-2.24-7.87-1.975-11.804.79-3.935 2.767-10.255 4.968-10.395 8.787l.002-.003z" fill="#0E7886"/><path d="M190.913 137.482c-2.859.691-6.684 2.442-10.033 4.832-3.35 2.39-3.089 3.94-3.86 6.484-.772 2.543 8.49 5.34 14.974 3.815 6.482-1.526 16.98-10.424 11.885-11.952-5.094-1.525-5.094-4.958-12.966-3.179z" fill="#FF5B61"/></g></svg>