<svg xmlns="http://www.w3.org/2000/svg" viewBox="0 0 242 98"><title>logo_white_medium</title><path d="M97.9 77.7c0 .2.1.3.3.3h6.8c.2 0 .3-.1.3-.3v-.9c0-.2-.1-.3-.3-.3h-5.3v-3.6h4.5c.2 0 .3-.1.3-.3v-.9c0-.2-.1-.3-.3-.3h-4.5V68h5.3c.2 0 .3-.1.3-.3v-.9c0-.2-.1-.3-.3-.3h-6.8c-.2 0-.3.1-.3.3v10.9zm9.5 0c0 .2.2.3.3.3h1.1c.2 0 .3-.1.3-.3v-8.2l7.3 8.7h.4c.2 0 .3-.1.3-.3V66.5c0-.2-.1-.3-.3-.3h-1.1c-.2 0-.3.1-.3.3v7.9l-7.3-8.4h-.4c-.2 0-.3.1-.3.3v11.4zm11.8-5.6c0 3.4 2.7 6 6.1 6 2.4 0 4.2-1.1 4.2-1.1.1-.1.1-.2.1-.3v-4.1c0-.2-.1-.3-.3-.3h-3.1c-.2 0-.3.1-.3.3v1c0 .2.1.3.3.3h1.7v1.9c-.2.1-1.1.6-2.5.6-2.4 0-4.2-2-4.2-4.3 0-2.4 1.8-4.4 4.2-4.4 1 0 2.1.5 2.9 1.1.2.2.3.2.4 0l.8-.8c.1-.1.1-.3 0-.5-1.1-1-2.5-1.6-4.1-1.6-3.5.1-6.2 2.9-6.2 6.2zm12.6 5.6c0 .2.1.3.3.3h6c.2 0 .3-.1.3-.3v-.9c0-.2-.1-.3-.3-.3h-4.6v-9.9c0-.2-.1-.3-.3-.3h-1.1c-.2 0-.3.1-.3.3v11.1zm7.9 0c0 .2.2.3.3.3h1.1c.2 0 .3-.2.3-.3V66.5c0-.2-.1-.3-.3-.3H140c-.2 0-.3.1-.3.3v11.2zm4-.9c.3.3 1.6 1.3 3.6 1.3 2.2 0 3.8-1.4 3.8-3.2 0-2.1-1.7-3-3.6-3.8-1.4-.6-2.1-1.2-2.1-2.1 0-.6.5-1.5 1.9-1.5 1 0 2.2.8 2.3.8.2.2.5.1.6-.2.1-.2.3-.4.4-.6.1-.2.1-.4-.1-.6-.2-.1-1.4-1-3.1-1-2.7 0-3.7 1.8-3.7 3.1 0 1.9 1.4 2.8 3.1 3.6 1.7.7 2.6 1.3 2.6 2.3 0 .9-.7 1.6-1.9 1.6-1.3 0-2.6-1.1-2.7-1.2-.2-.2-.4-.1-.6.1-.2.2-.3.5-.4.7-.4.5-.3.6-.1.7zm9.2.9c0 .2.2.3.3.3h1.1c.2 0 .3-.1.3-.3v-4.9h6.2v4.9c0 .2.1.3.3.3h1.1c.2 0 .3-.2.3-.3V66.5c0-.2-.1-.3-.3-.3h-1.1c-.2 0-.3.1-.3.3v4.7h-6.2v-4.7c0-.2-.1-.3-.3-.3h-1.1c-.2 0-.3.1-.3.3v11.2zm15.8 0c0 .2.1.3.3.3h6c.2 0 .3-.1.3-.3v-.9c0-.2-.1-.3-.3-.3h-4.6v-9.9c0-.2-.1-.3-.3-.3H169c-.2 0-.3.1-.3.3v11.1zm8 0c0 .2.1.3.3.3h6.8c.2 0 .3-.1.3-.3v-.9c0-.2-.1-.3-.3-.3h-5.3v-3.6h4.5c.2 0 .3-.1.3-.3v-.9c0-.2-.1-.3-.3-.3h-4.5V68h5.3c.2 0 .3-.1.3-.3v-.9c0-.2-.1-.3-.3-.3H177c-.2 0-.3.1-.3.3v10.9zm8.9-.9c.3.3 1.6 1.3 3.6 1.3 2.2 0 3.8-1.4 3.8-3.2 0-2.1-1.7-3-3.6-3.8-1.4-.6-2.1-1.2-2.1-2.1 0-.6.5-1.5 1.9-1.5 1 0 2.2.8 2.3.8.2.2.5.1.6-.2.1-.2.3-.4.4-.6.1-.2.1-.4-.1-.6-.2-.1-1.4-1-3.1-1-2.7 0-3.7 1.8-3.7 3.1 0 1.9 1.4 2.8 3.1 3.6 1.7.7 2.6 1.3 2.6 2.3 0 .9-.7 1.6-1.9 1.6-1.3 0-2.6-1.1-2.7-1.2-.2-.2-.4-.1-.6.1s-.3.5-.4.7c-.4.5-.3.6-.1.7zm8.6 0c.3.3 1.6 1.3 3.6 1.3 2.2 0 3.8-1.4 3.8-3.2 0-2.1-1.7-3-3.6-3.8-1.4-.6-2.1-1.2-2.1-2.1 0-.6.5-1.5 1.9-1.5 1 0 2.2.8 2.3.8.2.2.5.1.6-.2.1-.2.3-.4.4-.6.1-.2.1-.4-.1-.6-.2-.1-1.4-1-3.1-1-2.7 0-3.7 1.8-3.7 3.1 0 1.9 1.4 2.8 3.1 3.6 1.7.7 2.6 1.3 2.6 2.3 0 .9-.7 1.6-1.9 1.6-1.3 0-2.6-1.1-2.7-1.2-.2-.2-.4-.1-.6.1-.2.2-.3.5-.4.7-.4.5-.3.6-.1.7zm8.4-4.7c0-3.3 2.7-6 6-6.1 3.3 0 6.1 2.7 6.1 6 0 3.4-2.7 6-6.1 6-3.3.1-6-2.5-6-5.9zm1.7 0c0 2.4 2 4.3 4.4 4.3 2.4 0 4.4-1.9 4.4-4.3s-2-4.4-4.4-4.4c-2.4 0-4.4 2-4.4 4.4zm12.4 5.6c0 .2.2.3.3.3h1.1c.2 0 .3-.1.3-.3v-8.2l7.3 8.7h.4c.2 0 .3-.1.3-.3V66.5c0-.2-.1-.3-.3-.3H225c-.2 0-.3.1-.3.3v7.9l-7.3-8.4h-.4c-.2 0-.3.1-.3.3v11.4zm12-.9c.3.3 1.6 1.3 3.6 1.3 2.2 0 3.8-1.4 3.8-3.2 0-2.1-1.7-3-3.6-3.8-1.4-.6-2.1-1.2-2.1-2.1 0-.6.5-1.5 1.9-1.5 1 0 2.2.8 2.3.8.2.2.5.1.6-.2.1-.2.3-.4.4-.6.1-.2.1-.4-.1-.6-.2-.1-1.4-1-3.1-1-2.7 0-3.7 1.8-3.7 3.1 0 1.9 1.4 2.8 3.1 3.6 1.7.7 2.6 1.3 2.6 2.3 0 .9-.7 1.6-1.9 1.6-1.3 0-2.6-1.1-2.7-1.2-.2-.2-.4-.1-.6.1-.2.2-.3.5-.4.7-.4.5-.3.6-.1.7zm-147.4-20V8c0-4.4-3.6-8-8-8H8C3.6 0 0 3.6 0 8v57.4c0 4.4 3 10 6.6 12.4 0 0 7.4 5.9 23.8 12 5 2.2 10 7.6 10 7.6.1 0 5-5.5 10.1-7.7 15.3-6.1 24-12.1 24-12.1 1.5-.9 2.9-2.4 4.1-4.1-.2-.2-.6-.4-1.6-.4H64.6c-.8 0-1.1 0-1.4.1-2.6 1.5-7.6 4-15 7-3.9 1.7-7.3 4.1-7.3 4.1-.1 0-4.1-2.3-7.9-4-12.4-4.6-17.1-8.2-17.1-8.2-2.8-1.7-5.1-5.8-5.1-9.2V16.5c0-3.3 2.7-6 6-6h48c3.3 0 6 2.7 6 6V53s0 2-1.5 2H60c-2.2 0-2.7-2.5-2.7-3.3V34.4c0-1-.8-1.7-1.7-1.7h-6.7c-1.4 0-1.9.4-1.9 1.7v14.7c-.5 3.2-3.4 6.6-7.1 6.6-4.1 0-6.5-2.9-6.5-7.6V23.6c0-1-.8-1.7-1.7-1.7h-7.3c-.9 0-1.7.7-1.7 1.7v24.3c0 9 4 17.3 15 17.3 7 0 10.3-3.7 11.9-5.1l1.1 2.9c.3.7.8 1.3 1.7 1.3h25.5c2.2 0 2.9-.7 2.9-.7.1 0 .8-.6.8-2.3-.2-1.5-.2-3-.3-4.5zm13.3-11.2c0 6.1 2.7 11.8 10.2 11.8 4.8 0 7-2.5 8.1-3.5l.7 2c.2.5.5.9 1.1.9h2.2c.6 0 1.1-.5 1.1-1.1V33.9c0-.7-.5-1.1-1.1-1.1h-4.6c-1 0-1.3.2-1.3 1.1v12.5c-.4 2.2-2.3 4.5-4.8 4.5-2.8 0-4.4-2-4.4-5.2V33.9c0-.7-.5-1.1-1.1-1.1h-4.9c-.6 0-1.1.5-1.1 1.1l-.1 11.7zm29.6 10c0 .6.5 1.1 1.1 1.1h5.1c.6 0 1.1-.5 1.1-1.1V45.5l9.5 10.8c.2.2.7.5 1 .5h6.5c1 0 1.4-1 .8-1.7l-10.7-11.5 9-9.1c.6-.7.2-1.7-.8-1.7h-5.5c-.7 0-1.1.4-1.5.7l-8.3 8.4v-26c0-.6-.5-1.1-1.1-1.1h-5.1c-.6 0-1.1.5-1.1 1.1v39.7zm28.3 0c0 .6.5 1.1 1.1 1.1h4.5c1.1 0 1.5-.3 1.5-1.1V42.4c.6-1.6 2.5-3.8 5.7-3.8 2.9 0 4.5 2 4.5 5.1v11.9c0 .6.5 1.1 1.1 1.1h4.9c.6 0 1.1-.5 1.1-1.1V44.1c0-6.2-3.1-11.9-10.7-11.9-4.6 0-7.6 2.6-8.5 3.5l-.8-2.2c-.2-.4-.5-.7-1-.7h-2.3c-.6 0-1.1.5-1.1 1.1v21.7zm28.2-10.9c0-6.8 5.5-12.5 12.4-12.5 6.8 0 12.4 5.8 12.4 12.5 0 6.9-5.5 12.7-12.4 12.7s-12.4-5.8-12.4-12.7zm6.6 0c0 3.4 2.5 6.2 5.8 6.2 3.2 0 5.8-2.8 5.8-6.2 0-3.4-2.6-6.1-5.8-6.1-3.3.1-5.8 2.8-5.8 6.1zm27.3 12c.1.4.5.7 1 .7h.3c.5 0 .8-.2 1-.5l7.5-14h.1l7.6 14c.2.3.5.5 1 .5h.2c.6 0 1-.3 1.1-.7l7.5-22.6c.3-.8-.2-1.4-1.1-1.4h-3.9c-.7 0-1.1.1-1.4.7l-3.6 10.7h-.1l-6.1-11.5c-.2-.3-.4-.5-1-.5h-.5c-.5 0-.8.3-1 .5l-6.1 11.5h-.1l-3.6-10.7c-.1-.4-.7-.7-1.1-.7H208c-.8 0-1.4.6-1 1.4l7.6 22.6z"/></svg>