<svg width="200" height="200" viewBox="0 0 200 200" xmlns="http://www.w3.org/2000/svg"><title>individual</title><g fill="none"><path d="M100 200c55.079 0 100-44.922 100-100C200 44.921 155.079 0 100 0S0 44.921 0 100c0 55.078 44.922 100 100 100z" fill="#3A5ABD"/><path fill="#666" d="M21.595 48.676l58.93 26.751 55.472-25.182-58.93-26.752-55.471 25.183z"/><path d="M67.056 110.173h23.479l1.901 19.787 5.745 4.219 30.14 6.789s4.483 2.467 5.8 9.363c.835 4.376 3.029 26.293 4.778 41.82C126.941 197.205 113.797 200 100 200c-32.625 0-61.597-15.626-79.851-39.799.516-4.552.982-8.205 1.3-9.87 1.106-5.797 5.8-9.362 5.8-9.362l32.397-6.94 5.511-4.065 1.901-19.79z" fill="#F0B97D"/><path d="M96.12 140.223c-5.667 6.62-24.588 9.477-35.01-1.83l17.686 52.638 17.324-50.807z" fill="#20D0C2"/><path d="M49.48 80.12c-7.363-1.306-1.086 20.683 4.292 17.405L56.66 106c2.6 7.636 9.157 14.587 14.15 20.09 1.948 2.149 13.88 2.112 15.809.083 5.528-5.812 12.093-12.34 14.56-20.216l2.64-8.432c5.386 3.274 11.65-18.711 4.293-17.405.51-17.118-11.595-33.725-29.315-33.801-17.72.076-29.824 16.683-29.315 33.8h-.002z" fill="#FED198"/><path d="M59.645 134.028l-32.397 6.94s-4.694 3.566-5.802 9.363c-.316 1.663-.782 5.316-1.299 9.867C38.4 184.372 67.374 200 99.998 200c13.798 0 26.943-2.795 38.901-7.85-1.75-15.525-3.942-37.443-4.778-41.82-1.318-6.894-5.801-9.361-5.801-9.361l-30.14-6.79-19.386 56.853-19.151-57.004h.002z" fill="#0E7886"/><path d="M99.932 49.69c2.08-.241 9.594 6.622 10.496 14.57.9 7.947-.829 15.959-.829 15.959-5.285-.257-3.621 7.826-4.773 9.104l-1.488.033-.556-5.424c-6.587-4.126 2.597-20.432-3.99-21.863-11.275 9.286-28 12.724-42.592 10.338-4.096.546 1.864 5.724.135 11.678-1.274 2.223-.514 5.73-.514 5.73l-1.905.24S52.71 80 49.037 80.039c-.89-4.635-1.258-7.399-1.012-11.503 1.258-21.01 29.501-32.972 51.907-18.846z" fill="#666"/><path d="M48.055 50.843c13.363-10.178 50.273-10.378 62.196-.09l.628 16.604c-20.806-6.174-42.279-5.612-63.552.634l.728-17.147v-.001z" fill="#807D7D"/><path d="M36.63 42.463l.093 29.437v.912h-1.725v-29.79c.059-1.689 1.515-1.921 1.632-.56z" fill="#FFF"/><path d="M32.686 77.21c0 7.84-1.645 14.588-1.736 15.039-.091.45 1.493 1.928 1.798.45.304-1.48-.03.03 1.372.127 1.38.095 1.666-.589 1.675-.61.01.021.298.705 1.675.61 1.402-.096 1.066-1.607 1.372-.127.306 1.478 1.89 0 1.797-.45-.091-.45-1.736-7.199-1.736-15.04-.074-3.002-1.25-4.417-3.109-4.85-1.858.433-3.035 1.848-3.107 4.85h-.001z" fill="#FF5B61"/><path d="M35.833 72.358c3.083 0 3.171 1.957 3.015 3.77-.68-.59-1.777-.973-3.015-.973-1.24 0-2.337.382-3.016.973-.109-2.104-.067-3.77 3.016-3.77z" fill="#807D7D"/><path d="M149.025 98.512h41.526l9.423 41.596-3.45.018-.083 14.686 3.557.019-.024 2.454h-56.136c-5.314-.412-4.84-9.856-5.123-12.385l4.73-42.285c.018-1.88 1.973-4.104 5.578-4.104h.001z" fill="#FF757C"/><path d="M149.025 98.512h3.977l-3.62 58.773h-5.543c-6.512-.739-6.759-11.093-4.645-16.658l4.25-38.012c.02-1.88 1.976-4.103 5.58-4.103z" fill="#1A91A1"/><path d="M144.562 140.104h54.337c-2.465 5.038-2.401 10.006 0 14.908h-54.337c-5.829 0-5.828-14.908 0-14.908z" fill="#FFF"/><path d="M140.61 144.202h56.835c-.033.15-.064.298-.093.447h-56.851c.033-.15.07-.299.11-.447zm56.57 1.57c-.019.148-.034.297-.048.447h-56.88c.015-.15.032-.3.052-.448h56.875zm-.104 1.566c-.002.15-.002.298 0 .448h-56.883a13.49 13.49 0 0 1 0-.448h56.883zm.058 1.568c.013.15.029.297.046.448h-56.874c-.02-.149-.037-.298-.051-.448h56.879zm.22 1.567c.029.15.06.298.092.448h-56.833a9.743 9.743 0 0 1-.109-.448h56.85zm.38 1.568c.045.15.092.298.14.448h-56.686a7.423 7.423 0 0 1-.199-.448h56.746zm.545 1.569c.059.149.121.298.185.448h-56.18c-.145-.14-.28-.29-.405-.448h56.4z" fill="#ECF0F1"/><path fill="#FFCA4F" d="M161.09 147.742h8.491v18.837l-4.281-6.146-4.21 6.146v-18.837z"/><path d="M134.849 124.87l57.566-20.592c6.449-.535 8.378 12.583 4.15 13.82l-56.242 21.108c-3.194 1.204-6.318-3.932-6.595-8.967-.149-2.675.58-2.595 3.625-3.789l-2.503-1.58h-.001z" fill="#FFF"/><path d="M198.374 116.136c-.366.992-.963 1.714-1.81 1.962l-56.24 21.107c-.98.37-1.951.142-2.836-.493 1.595.16 2.468-.052 3.987-1.485l56.9-21.091z" fill="#ECF0F1"/><g fill="#FFCA4F"><path d="M172.629 111.36c4.276.616 7.33 10.767 5.193 13.772l-7.772 2.918c1.409-4.763-1.664-12.695-5.933-13.643l8.512-3.047z"/><path d="M186.4 131.902l-8.579-6.77-7.771 2.918 6.49 7.543 2.999-4.483z"/></g><path d="M136.978 126.607l.375-.157c2.351.476 6.473 8.901 1.956 10.77-3.213 1.331-4.709-5.639-4.592-7.95 1.377-.986 2.863 3.176 2.388 3.27l-.955.189s.03 1.821.954 1.948l3.69-1.194s-.299-5.37-3.815-6.875h-.001zm13.27 16.623h47.44a18.836 18.836 0 0 1 1.205-3.116c0-.004.004-.007.005-.01H144.56c-5.395 0-5.796 12.766-1.207 14.671-1.554-4.396-.313-11.545 3.724-11.545h3.17z" fill="#ECF0F1"/></g></svg>