<svg width="140" height="140" viewBox="0 0 140 140" xmlns="http://www.w3.org/2000/svg"><title>level</title><g fill="none"><path d="M70 140c38.556 0 70-31.446 70-70S108.556 0 70 0 0 31.446 0 70c0 38.556 31.446 70 70 70z" fill="#5DDDD3"/><path fill="#F06D64" d="M44.903 102.737l-2.544-2.544 63.904-63.903 2.545 2.544-63.904 63.905z"/><path fill="#FF816F" d="M39.585 97.42l3.003 3.002 63.903-63.903-3.003-3.004L39.585 97.42z"/><path fill="#F06D64" d="M39.814 97.648l-2.543-2.543L101.174 31.2l2.545 2.544z"/><path fill="#FED198" d="M27.469 112.528l9.8-17.425 7.635 7.635z"/><path fill="#FFF" d="M108.806 38.833l-7.633-7.634 2.018-2.017 7.634 7.631-2.019 2.018v.002z"/><path d="M112.843 30.762l-3.596-3.597a2.86 2.86 0 0 0-4.036 0l-2.019 2.018 7.633 7.631 2.019-2.017a2.862 2.862 0 0 0 0-4.035h-.001zm-86.201 82.907l-.318-.318 4.816-7.357 2.846 2.847-7.344 4.828z" fill="#666"/><path fill="#F06D64" d="M95.097 102.737l2.544-2.544L33.737 36.29l-2.543 2.544 63.903 63.905z"/><path fill="#FF816F" d="M100.415 97.42l-3.003 3.002-63.903-63.903 3.003-3.004 63.903 63.904z"/><path fill="#F06D64" d="M100.186 97.648l2.543-2.543L38.826 31.2l-2.545 2.544 63.903 63.903z"/><path fill="#FED198" d="M112.531 112.528l-9.8-17.425-7.633 7.635 17.435 9.79h-.002z"/><path fill="#FFF" d="M31.194 38.833l7.632-7.634-2.02-2.017-7.63 7.631 2.018 2.018z"/><path d="M27.157 30.762l3.596-3.597a2.86 2.86 0 0 1 4.036 0l2.018 2.018-7.632 7.631-2.018-2.017a2.863 2.863 0 0 1 0-4.035zm86.2 82.907l.317-.318-4.817-7.357-2.847 2.847 7.347 4.828zM102.85 63.964l.798 16.03c-4.534 8.834-19.006 15.39-33.253 15.225-13.577-.159-26.974-6.636-30.656-14.793l-.076-15.703L70 74.35l32.85-10.387z" fill="#666"/><path fill="#C8CACC" d="M20.946 60.02v-.838l49.053-18.897 49.052 18.897v.838L70 79.888z"/><path d="M38.383 110.059l-2.246 14.382c-.038.234.754.551 1.13.082.495.593 1.152.35 1.349-.06.249.407.835.632 1.26.024.377.468 1.22.143 1.159-.25l-2.232-14.191c-.057-.212-.389-.176-.418.012h-.002z" fill="#FF816F"/><path fill="#807D7D" d="M20.946 59.182l49.053-19.473 49.052 19.473L70 78.654z"/><path d="M70.335 58.985a.56.56 0 0 1 .32 1.073l-31.548 9.487v41.158a.56.56 0 0 1-1.122 0V69.128h.002a.56.56 0 0 1 .4-.536l31.949-9.607z" fill="#FFF"/><path d="M38.586 107.8a2.226 2.226 0 1 1 0 4.453 2.226 2.226 0 0 1 0-4.452z" fill="#FFBA1B"/><path d="M40.39 109.461a2.15 2.15 0 0 1-2.15 2.15h-.04a2.152 2.152 0 0 1-1.755-.967 2.227 2.227 0 1 0 3.675-2.23c.174.31.272.667.272 1.046h-.002v.001z" fill="#F5A209"/></g></svg>