<svg width="405" height="164" viewBox="0 0 405 164" xmlns="http://www.w3.org/2000/svg"><title>logo_white_big</title><path d="M163.796 130.65c0 .283.226.538.536.538h11.303a.536.536 0 0 0 .537-.537v-1.554a.536.536 0 0 0-.537-.537h-8.93v-6.075h7.545a.536.536 0 0 0 .537-.537v-1.582a.556.556 0 0 0-.537-.537h-7.544v-5.764h8.929a.536.536 0 0 0 .537-.537v-1.583a.536.536 0 0 0-.537-.536h-11.303a.536.536 0 0 0-.536.536v18.706zm15.899 0c0 .283.254.538.537.538h1.78a.536.536 0 0 0 .537-.537v-13.76h.028l12.263 14.58h.735c.282 0 .536-.227.536-.51v-19.016a.556.556 0 0 0-.536-.536h-1.809a.536.536 0 0 0-.537.536v13.365h-.028l-12.263-14.184h-.706c-.283 0-.537.226-.537.509v19.016zm19.714-9.324c0 5.652 4.549 10.144 10.172 10.144 4.097 0 7.007-1.865 7.007-1.865a.698.698 0 0 0 .226-.452c0-2.26-.028-4.577-.028-6.838 0-.282-.226-.536-.509-.536h-5.142a.52.52 0 0 0-.537.536v1.64c0 .282.226.508.537.508h2.769v3.164c-.283.113-1.893.961-4.238.961-4.013 0-7.093-3.39-7.093-7.318 0-3.956 3.08-7.347 7.093-7.347 1.723 0 3.475.763 4.803 1.922.283.254.509.282.735.028.424-.452.847-.876 1.271-1.328.226-.226.198-.565-.028-.791-1.921-1.639-4.154-2.628-6.866-2.628-5.623 0-10.172 4.55-10.172 10.2zm21.098 9.325c0 .282.226.537.537.537h10.059a.536.536 0 0 0 .537-.537v-1.554a.536.536 0 0 0-.537-.537h-7.657v-16.615a.556.556 0 0 0-.537-.536h-1.865a.536.536 0 0 0-.537.536v18.706zm13.356 0c0 .282.255.537.537.537h1.865a.556.556 0 0 0 .537-.537v-18.706a.556.556 0 0 0-.537-.536H234.4a.556.556 0 0 0-.537.536v18.706zm6.575-1.413c.452.424 2.628 2.232 6.075 2.232 3.673 0 6.301-2.401 6.301-5.34 0-3.447-2.797-5.001-6.075-6.33-2.345-.96-3.588-1.949-3.588-3.56 0-1.045.82-2.543 3.193-2.543 1.638 0 3.616 1.3 3.814 1.413.396.254.763.085.99-.282.225-.34.48-.735.705-1.074a.671.671 0 0 0-.169-.96c-.283-.199-2.402-1.668-5.227-1.668-4.493 0-6.188 3.023-6.188 5.227 0 3.278 2.26 4.776 5.142 5.99 2.797 1.16 4.267 2.233 4.267 3.928 0 1.441-1.243 2.628-3.193 2.628-2.176 0-4.352-1.808-4.521-1.95-.31-.254-.706-.14-.96.226-.255.368-.481.792-.735 1.159-.283.48-.085.678.17.904zm15.532 1.413c0 .282.254.537.537.537h1.865a.536.536 0 0 0 .537-.537v-8.166h10.341v8.166c0 .282.226.537.537.537h1.865a.556.556 0 0 0 .537-.537v-18.706a.556.556 0 0 0-.537-.536h-1.865a.536.536 0 0 0-.537.536v7.884h-10.34v-7.884a.536.536 0 0 0-.537-.536h-1.865a.556.556 0 0 0-.537.536v18.706zm26.43 0c0 .282.226.537.537.537h10.059a.536.536 0 0 0 .537-.537v-1.554a.536.536 0 0 0-.537-.537h-7.657v-16.615a.556.556 0 0 0-.537-.536h-1.865a.536.536 0 0 0-.537.536v18.706zm13.356 0c0 .282.226.537.537.537h11.302a.536.536 0 0 0 .537-.537v-1.554a.536.536 0 0 0-.537-.537h-8.928v-6.075h7.544a.536.536 0 0 0 .537-.537v-1.582a.556.556 0 0 0-.537-.537h-7.544v-5.764h8.928a.536.536 0 0 0 .537-.537v-1.583a.536.536 0 0 0-.537-.536h-11.302a.536.536 0 0 0-.537.536v18.706zm14.798-1.413c.452.424 2.627 2.232 6.075 2.232 3.673 0 6.3-2.401 6.3-5.34 0-3.447-2.797-5.001-6.074-6.33-2.346-.96-3.589-1.949-3.589-3.56 0-1.045.82-2.543 3.193-2.543 1.639 0 3.617 1.3 3.815 1.413.395.254.763.085.989-.282.226-.34.48-.735.706-1.074a.671.671 0 0 0-.17-.96c-.282-.199-2.401-1.668-5.227-1.668-4.493 0-6.188 3.023-6.188 5.227 0 3.278 2.26 4.776 5.143 5.99 2.797 1.16 4.266 2.233 4.266 3.928 0 1.441-1.243 2.628-3.193 2.628-2.175 0-4.351-1.808-4.52-1.95-.311-.254-.707-.14-.961.226-.255.368-.48.792-.735 1.159-.282.48-.085.678.17.904zm14.43 0c.452.424 2.627 2.232 6.075 2.232 3.673 0 6.3-2.401 6.3-5.34 0-3.447-2.797-5.001-6.074-6.33-2.346-.96-3.589-1.949-3.589-3.56 0-1.045.82-2.543 3.193-2.543 1.639 0 3.617 1.3 3.815 1.413.395.254.762.085.989-.282.226-.34.48-.735.706-1.074a.671.671 0 0 0-.17-.96c-.282-.199-2.401-1.668-5.227-1.668-4.493 0-6.188 3.023-6.188 5.227 0 3.278 2.26 4.776 5.143 5.99 2.797 1.16 4.266 2.233 4.266 3.928 0 1.441-1.243 2.628-3.193 2.628-2.175 0-4.351-1.808-4.52-1.95-.311-.254-.707-.14-.961.226-.255.368-.48.792-.735 1.159-.283.48-.085.678.17.904zm14.09-7.912c0-5.65 4.493-10.2 10.144-10.2s10.172 4.55 10.172 10.2c0 5.652-4.52 10.144-10.172 10.144a10.082 10.082 0 0 1-10.144-10.144zm2.826 0c0 4.041 3.306 7.319 7.318 7.319 4.04 0 7.347-3.278 7.347-7.319 0-4.012-3.306-7.374-7.347-7.374-4.012 0-7.318 3.362-7.318 7.374zm20.788 9.325c0 .282.254.537.536.537h1.78a.536.536 0 0 0 .537-.537v-13.76h.029l12.263 14.58h.734c.283 0 .537-.227.537-.51v-19.016a.556.556 0 0 0-.537-.536h-1.808a.536.536 0 0 0-.537.536v13.365h-.028l-12.263-14.184h-.707c-.282 0-.536.226-.536.509v19.016zm20.052-1.413c.453.424 2.628 2.232 6.075 2.232 3.674 0 6.302-2.401 6.302-5.34 0-3.447-2.798-5.001-6.075-6.33-2.346-.96-3.589-1.949-3.589-3.56 0-1.045.82-2.543 3.193-2.543 1.639 0 3.617 1.3 3.814 1.413.396.254.763.085.99-.282.225-.34.48-.735.706-1.074a.671.671 0 0 0-.17-.96c-.282-.199-2.401-1.668-5.227-1.668-4.493 0-6.188 3.023-6.188 5.227 0 3.278 2.26 4.776 5.142 5.99 2.798 1.16 4.267 2.233 4.267 3.928 0 1.441-1.243 2.628-3.193 2.628-2.175 0-4.351-1.808-4.52-1.95-.312-.254-.707-.14-.961.226-.255.368-.48.792-.735 1.159-.283.48-.085.678.17.904zM136.14 95.58V16.819C136.14 7.529 128.612 0 119.328 0H16.812C7.525 0 0 7.53 0 16.819v89.88c0 9.291 6.277 20.977 14.02 26.105 0 0 9.459 8.111 36.927 18.438 8.354 3.708 16.664 12.711 16.78 12.711.117 0 8.282-9.2 16.918-12.995 25.532-10.305 37.154-18.644 37.154-18.644 3.088-1.849 5.935-4.713 8.265-8.07.044-.395-.185-1.191-2.752-1.191h-19.234c-1.308 0-1.91.019-2.315.111-4.39 2.436-12.752 6.743-25.177 11.758-6.536 2.873-12.166 6.901-12.255 6.901-.086 0-6.928-3.88-13.251-6.687-20.792-7.816-28.655-13.78-28.655-13.78-4.73-2.945-8.565-9.844-8.565-15.426V27.806c0-5.575 4.521-10.094 10.089-10.094h80.134c5.571 0 10.089 4.513 10.089 10.094V89.3h-.009s0 3.412-2.433 3.412h-15.493c-3.656 0-4.572-4.141-4.572-5.492V57.85c0-1.628-1.334-2.812-2.816-2.812H81.58c-2.372 0-3.261.592-3.261 2.812v24.73c-.89 5.329-5.634 11.1-11.861 11.1-6.819 0-10.822-4.883-10.822-12.728V39.685c0-1.628-1.334-2.812-2.817-2.812H40.663c-1.482 0-2.816 1.184-2.816 2.812v40.823c0 15.097 6.671 29.158 25.054 29.158 11.713 0 17.198-6.217 19.866-8.585l1.78 4.884c.444 1.184 1.334 2.22 2.816 2.22h5.486c.222 0 25.324.054 37.153.039 3.602-.006 4.827-1.114 4.89-1.136.14-.048 1.329-1.03 1.324-3.85-.01-2.553-.035-5.106-.076-7.658zm22.177-18.92c0 10.294 4.54 19.88 17.054 19.88 7.972 0 11.706-4.238 13.522-5.852l1.211 3.33c.303.807.909 1.514 1.918 1.514h3.734c1.009 0 1.917-.909 1.917-1.918v-36.53c0-1.11-.908-1.918-1.917-1.918h-7.67c-1.614 0-2.22.404-2.22 1.917v20.99c-.605 3.633-3.835 7.569-8.073 7.569-4.642 0-7.367-3.33-7.367-8.679v-19.88c0-1.11-.908-1.917-1.917-1.917h-8.275c-1.01 0-1.917.807-1.917 1.917v19.578zm49.474 16.954c0 1.01.908 1.918 1.918 1.918h8.577c1.01 0 1.918-.909 1.918-1.918V76.56l15.944 18.164c.303.404 1.11.808 1.715.808h10.9c1.715 0 2.32-1.716 1.311-2.826l-17.963-19.275 15.037-15.338c1.009-1.11.403-2.927-1.312-2.927h-9.183c-1.11 0-1.817.606-2.523 1.211l-13.926 14.128V26.809c0-1.009-.909-1.917-1.918-1.917h-8.577c-1.01 0-1.918.908-1.918 1.917v66.805zm47.356 0c0 1.01.908 1.918 1.917 1.918h7.468c1.917 0 2.522-.505 2.522-1.918v-22.2c1.01-2.725 4.239-6.358 9.486-6.358 4.844 0 7.569 3.33 7.569 8.577v19.981c0 1.01.807 1.918 1.917 1.918h8.275c1.01 0 1.917-.909 1.917-1.918V74.24c0-10.495-5.146-20.082-17.962-20.082-7.77 0-12.715 4.34-14.229 5.954l-1.413-3.734c-.302-.706-.807-1.21-1.715-1.21h-3.835c-1.01 0-1.917.806-1.917 1.916v36.531zM302.4 75.248c0-11.403 9.284-21.091 20.687-21.091 11.404 0 20.688 9.688 20.688 21.09 0 11.606-9.284 21.294-20.688 21.294-11.403 0-20.687-9.688-20.687-21.293zm11 0c0 5.752 4.238 10.394 9.687 10.394 5.349 0 9.688-4.642 9.688-10.394 0-5.651-4.34-10.192-9.688-10.192-5.449 0-9.687 4.54-9.687 10.192zm45.74 20.183c.202.605.808 1.11 1.716 1.11h.505c.807 0 1.311-.404 1.614-.909L375.59 72.12h.101l12.715 23.512c.303.505.808.909 1.615.909h.404c1.009 0 1.614-.505 1.816-1.11l12.614-37.944c.505-1.312-.403-2.32-1.816-2.32h-6.56c-1.11 0-1.917.1-2.32 1.21l-6.055 18.064h-.101L377.81 55.065c-.303-.504-.707-.908-1.615-.908h-.807c-.909 0-1.413.505-1.615.908L363.48 74.441h-.101l-6.055-18.064c-.202-.706-1.21-1.21-1.816-1.21h-7.266c-1.413 0-2.321 1.008-1.716 2.32l12.614 37.944z" fill="#FFF" fill-rule="evenodd"/></svg>