<svg width="180" height="217" viewBox="0 0 180 217" xmlns="http://www.w3.org/2000/svg"><title>logo_white_big</title><path d="M179.469 126V22.172C179.469 9.925 169.546 0 157.306 0H22.163C9.921 0 0 9.927 0 22.172v118.486c0 12.248 8.275 27.653 18.482 34.414 0 0 12.469 10.692 48.68 24.305 11.012 4.888 21.968 16.757 22.12 16.757.154 0 10.919-12.127 22.303-17.13 33.658-13.585 48.978-24.579 48.978-24.579 4.071-2.437 7.824-6.213 10.896-10.639.058-.52-.244-1.57-3.628-1.57h-25.355c-1.725 0-2.52.025-3.052.148-5.786 3.211-16.811 8.889-33.19 15.5-8.616 3.786-16.038 9.097-16.155 9.097-.114 0-9.133-5.115-17.469-8.815-27.409-10.304-37.774-18.166-37.774-18.166-6.236-3.882-11.291-12.978-11.291-20.335V36.655c0-7.348 5.96-13.305 13.3-13.305h105.637c7.345 0 13.3 5.948 13.3 13.305v81.066h-.011s0 4.498-3.208 4.498H132.14c-4.82 0-6.027-5.46-6.027-7.24V76.26c0-2.146-1.76-3.707-3.714-3.707h-14.853c-3.127 0-4.3.78-4.3 3.707v32.602c-1.172 7.024-7.426 14.633-15.635 14.633-8.99 0-14.266-6.438-14.266-16.78v-54.4c0-2.146-1.76-3.707-3.714-3.707H53.605c-1.953 0-3.712 1.56-3.712 3.707v53.815c0 19.902 8.794 38.437 33.028 38.437 15.44 0 22.67-8.194 26.188-11.316l2.345 6.439c.587 1.56 1.76 2.926 3.714 2.926h7.231c.293 0 33.384.071 48.978.05 4.75-.006 6.364-1.468 6.447-1.496.185-.064 1.751-1.357 1.745-5.076-.013-3.365-.046-6.73-.1-10.095z" fill="#FFF" fill-rule="evenodd"/></svg>