<svg width="350" height="142" viewBox="0 0 350 142" xmlns="http://www.w3.org/2000/svg"><title>logo_white_big</title><path d="M141.552 112.908c0 .244.195.464.464.464h9.767a.463.463 0 0 0 .464-.464v-1.343a.463.463 0 0 0-.464-.464h-7.716v-5.25h6.52a.464.464 0 0 0 .464-.464v-1.367a.48.48 0 0 0-.464-.464h-6.52v-4.982h7.716a.463.463 0 0 0 .464-.464v-1.367a.463.463 0 0 0-.464-.464h-9.767a.463.463 0 0 0-.464.464v16.165zm13.74 0c0 .244.22.464.464.464h1.538a.463.463 0 0 0 .464-.464v-11.892h.025l10.597 12.6h.635c.244 0 .464-.195.464-.44V96.744a.48.48 0 0 0-.464-.464h-1.563a.463.463 0 0 0-.464.464v11.55h-.024l-10.598-12.258h-.61c-.244 0-.464.195-.464.44v16.433zm17.036-8.058c0 4.884 3.932 8.766 8.791 8.766 3.54 0 6.056-1.611 6.056-1.611a.603.603 0 0 0 .195-.391c0-1.954-.024-3.956-.024-5.91 0-.244-.195-.463-.44-.463h-4.444a.449.449 0 0 0-.464.464v1.416c0 .244.196.44.464.44h2.393v2.734c-.244.098-1.636.83-3.663.83-3.467 0-6.129-2.93-6.129-6.324 0-3.418 2.662-6.349 6.13-6.349 1.489 0 3.003.66 4.15 1.66.245.22.44.245.635.025.367-.39.733-.757 1.1-1.147.195-.196.17-.489-.025-.684-1.66-1.416-3.59-2.271-5.934-2.271-4.86 0-8.79 3.931-8.79 8.815zm18.234 8.058c0 .244.195.464.464.464h8.693a.463.463 0 0 0 .464-.464v-1.343a.463.463 0 0 0-.464-.464H193.1V96.743a.48.48 0 0 0-.464-.464h-1.611a.463.463 0 0 0-.464.464v16.165zm11.542 0c0 .244.22.464.464.464h1.612a.48.48 0 0 0 .464-.464V96.743a.48.48 0 0 0-.464-.464h-1.612a.48.48 0 0 0-.464.464v16.165zm5.682-1.22c.39.365 2.271 1.928 5.25 1.928 3.174 0 5.445-2.075 5.445-4.615 0-2.979-2.417-4.322-5.25-5.47-2.026-.83-3.1-1.684-3.1-3.076 0-.904.707-2.198 2.759-2.198 1.416 0 3.125 1.123 3.296 1.22.342.22.66.074.855-.243.195-.293.415-.635.61-.928a.58.58 0 0 0-.146-.83c-.245-.171-2.076-1.441-4.518-1.441-3.882 0-5.347 2.613-5.347 4.517 0 2.833 1.953 4.127 4.444 5.177 2.417 1.001 3.687 1.93 3.687 3.394 0 1.246-1.074 2.271-2.76 2.271-1.88 0-3.76-1.563-3.906-1.685-.269-.22-.61-.122-.83.196-.22.317-.416.683-.635 1-.245.416-.074.587.146.782zm13.423 1.22c0 .244.22.464.464.464h1.611a.463.463 0 0 0 .464-.464v-7.057h8.937v7.057c0 .244.196.464.464.464h1.612a.48.48 0 0 0 .464-.464V96.743a.48.48 0 0 0-.464-.464h-1.612a.463.463 0 0 0-.464.464v6.813h-8.937v-6.813a.463.463 0 0 0-.464-.464h-1.611a.48.48 0 0 0-.464.464v16.165zm22.84 0c0 .244.196.464.464.464h8.693a.463.463 0 0 0 .464-.464v-1.343a.463.463 0 0 0-.464-.464h-6.617V96.743a.48.48 0 0 0-.464-.464h-1.612a.463.463 0 0 0-.464.464v16.165zm11.543 0c0 .244.195.464.464.464h9.767a.463.463 0 0 0 .464-.464v-1.343a.463.463 0 0 0-.464-.464h-7.716v-5.25h6.52a.464.464 0 0 0 .464-.464v-1.367a.48.48 0 0 0-.464-.464h-6.52v-4.982h7.716a.463.463 0 0 0 .464-.464v-1.367a.463.463 0 0 0-.464-.464h-9.767a.463.463 0 0 0-.464.464v16.165zm12.788-1.22c.39.365 2.27 1.928 5.25 1.928 3.174 0 5.445-2.075 5.445-4.615 0-2.979-2.417-4.322-5.25-5.47-2.027-.83-3.101-1.684-3.101-3.076 0-.904.708-2.198 2.76-2.198 1.415 0 3.125 1.123 3.296 1.22.342.22.659.074.854-.243.196-.293.415-.635.61-.928a.58.58 0 0 0-.146-.83c-.244-.171-2.075-1.441-4.517-1.441-3.883 0-5.348 2.613-5.348 4.517 0 2.833 1.954 4.127 4.444 5.177 2.418 1.001 3.688 1.93 3.688 3.394 0 1.246-1.075 2.271-2.76 2.271-1.88 0-3.76-1.563-3.907-1.685-.268-.22-.61-.122-.83.196-.22.317-.415.683-.635 1-.244.416-.073.587.147.782zm12.47 0c.39.365 2.27 1.928 5.25 1.928 3.174 0 5.445-2.075 5.445-4.615 0-2.979-2.417-4.322-5.25-5.47-2.026-.83-3.1-1.684-3.1-3.076 0-.904.707-2.198 2.758-2.198 1.417 0 3.126 1.123 3.297 1.22.342.22.66.074.855-.243.195-.293.415-.635.61-.928a.58.58 0 0 0-.146-.83c-.245-.171-2.076-1.441-4.518-1.441-3.882 0-5.348 2.613-5.348 4.517 0 2.833 1.954 4.127 4.445 5.177 2.417 1.001 3.687 1.93 3.687 3.394 0 1.246-1.075 2.271-2.76 2.271-1.88 0-3.76-1.563-3.906-1.685-.269-.22-.61-.122-.83.196-.22.317-.416.683-.636 1-.244.416-.073.587.147.782zm12.177-6.838c0-4.884 3.883-8.815 8.767-8.815a8.775 8.775 0 0 1 8.79 8.815c0 4.884-3.907 8.766-8.79 8.766a8.713 8.713 0 0 1-8.767-8.766zm2.442 0c0 3.492 2.857 6.324 6.325 6.324 3.491 0 6.348-2.832 6.348-6.324 0-3.467-2.857-6.373-6.348-6.373-3.468 0-6.325 2.906-6.325 6.373zm17.965 8.058c0 .244.22.464.464.464h1.538a.463.463 0 0 0 .464-.464v-11.892h.024l10.598 12.6h.635c.244 0 .464-.195.464-.44V96.744a.48.48 0 0 0-.464-.464h-1.563a.463.463 0 0 0-.464.464v11.55h-.024l-10.598-12.258h-.61c-.245 0-.464.195-.464.44v16.433zm17.33-1.22c.39.365 2.27 1.928 5.25 1.928 3.174 0 5.445-2.075 5.445-4.615 0-2.979-2.418-4.322-5.25-5.47-2.027-.83-3.101-1.684-3.101-3.076 0-.904.708-2.198 2.759-2.198 1.416 0 3.125 1.123 3.296 1.22.342.22.66.074.855-.243.195-.293.415-.635.61-.928a.58.58 0 0 0-.146-.83c-.244-.171-2.076-1.441-4.517-1.441-3.883 0-5.348 2.613-5.348 4.517 0 2.833 1.953 4.127 4.444 5.177 2.417 1.001 3.687 1.93 3.687 3.394 0 1.246-1.074 2.271-2.759 2.271-1.88 0-3.76-1.563-3.907-1.685-.269-.22-.61-.122-.83.196-.22.317-.415.683-.635 1-.244.416-.073.587.146.782zM117.651 82.6V14.535c0-8.029-6.505-14.535-14.53-14.535H14.53C6.503 0 0 6.508 0 14.535v77.674c0 8.03 5.424 18.128 12.116 22.56 0 0 8.174 7.01 31.912 15.934 7.22 3.204 14.402 10.985 14.501 10.985.101 0 7.158-7.95 14.621-11.23 22.065-8.906 32.108-16.113 32.108-16.113 2.669-1.597 5.13-4.073 7.143-6.974.038-.34-.16-1.03-2.378-1.03H93.4c-1.13 0-1.652.017-2.001.097-3.793 2.106-11.02 5.828-21.758 10.161-5.648 2.483-10.514 5.964-10.59 5.964-.075 0-5.987-3.353-11.452-5.779-17.968-6.754-24.763-11.908-24.763-11.908-4.088-2.545-7.402-8.508-7.402-13.331V24.03c0-4.818 3.907-8.723 8.718-8.723h69.252c4.815 0 8.719 3.9 8.719 8.723v53.143h-.008s0 2.949-2.103 2.949H86.625c-3.16 0-3.951-3.58-3.951-4.747V49.994c0-1.407-1.154-2.43-2.434-2.43h-9.738c-2.05 0-2.818.511-2.818 2.43v21.372c-.769 4.604-4.869 9.593-10.25 9.593-5.893 0-9.353-4.221-9.353-11V34.296c0-1.407-1.153-2.43-2.434-2.43H35.141c-1.28 0-2.433 1.023-2.433 2.43v35.279c0 13.047 5.765 25.198 21.651 25.198 10.122 0 14.862-5.372 17.168-7.419l1.538 4.221c.384 1.023 1.153 1.919 2.434 1.919h4.74c.192 0 21.885.046 32.108.033 3.113-.005 4.172-.963 4.227-.982.12-.042 1.148-.89 1.143-3.327a543.69 543.69 0 0 0-.065-6.618zm19.165-16.35c0 8.895 3.924 17.18 14.738 17.18 6.89 0 10.117-3.663 11.686-5.058l1.047 2.878c.261.698.785 1.308 1.657 1.308h3.227c.872 0 1.656-.785 1.656-1.657v-31.57c0-.959-.784-1.657-1.656-1.657h-6.628c-1.396 0-1.919.35-1.919 1.657v18.14c-.523 3.14-3.314 6.54-6.977 6.54-4.011 0-6.366-2.877-6.366-7.5v-17.18c0-.959-.785-1.657-1.657-1.657h-7.151c-.872 0-1.657.698-1.657 1.657V66.25zm42.756 14.651c0 .872.785 1.657 1.657 1.657h7.412c.873 0 1.657-.785 1.657-1.657V66.163l13.78 15.697c.261.35.959.698 1.482.698h9.419c1.482 0 2.005-1.482 1.133-2.442L200.59 63.46l12.994-13.256c.872-.959.35-2.529-1.133-2.529h-7.936c-.96 0-1.57.524-2.18 1.047l-12.036 12.21V23.168c0-.872-.784-1.657-1.657-1.657h-7.412c-.872 0-1.657.785-1.657 1.657V80.9zm40.924 0c0 .872.785 1.657 1.657 1.657h6.454c1.657 0 2.18-.436 2.18-1.657V61.715c.872-2.355 3.663-5.494 8.197-5.494 4.187 0 6.541 2.878 6.541 7.413V80.9c0 .872.698 1.657 1.657 1.657h7.151c.872 0 1.657-.785 1.657-1.657V64.157c0-9.07-4.447-17.355-15.523-17.355-6.715 0-10.988 3.75-12.296 5.146l-1.221-3.227c-.262-.61-.698-1.047-1.483-1.047h-3.314c-.872 0-1.657.698-1.657 1.657v31.57zm40.837-15.872c0-9.855 8.024-18.227 17.878-18.227 9.855 0 17.878 8.372 17.878 18.227 0 10.03-8.023 18.401-17.878 18.401-9.854 0-17.878-8.372-17.878-18.4zm9.506 0c0 4.971 3.663 8.983 8.372 8.983 4.622 0 8.372-4.012 8.372-8.983 0-4.884-3.75-8.808-8.372-8.808-4.71 0-8.372 3.924-8.372 8.808zm39.53 17.442c.174.523.697.96 1.482.96h.436c.697 0 1.134-.35 1.395-.786l10.901-20.32h.088l10.988 20.32c.262.436.698.785 1.395.785h.35c.871 0 1.394-.436 1.569-.96l10.901-32.79c.436-1.133-.349-2.006-1.57-2.006h-5.668c-.96 0-1.657.088-2.006 1.047l-5.233 15.61h-.087l-8.808-16.744c-.262-.436-.61-.785-1.395-.785h-.698c-.785 0-1.221.436-1.395.785l-8.896 16.744h-.087l-5.233-15.61c-.174-.61-1.046-1.047-1.57-1.047h-6.278c-1.221 0-2.006.873-1.483 2.006l10.901 32.79z" fill="#FFF" fill-rule="evenodd"/></svg>