<svg width="140" height="140" viewBox="0 0 140 140" xmlns="http://www.w3.org/2000/svg"><title>material</title><g fill="none"><path d="M70 0c38.66 0 70 31.34 70 70s-31.34 70-70 70S0 108.66 0 70 31.34 0 70 0z" fill="#1A91A1"/><path d="M55.743 20.32c-1.477-1.174-3.338-2.087-4.982-2.893-.98-.481-1.908-.936-2.583-1.366-1.57-1-2.714-3.562-2.552-5.708.07-.92.417-2.13 1.677-2.688 1.34-.591 2.35.475 2.682.826.697.737 1.308 1.808 1.674 2.94.277.856.324 1.462.295 1.783a1.046 1.046 0 0 0-.488 2.025c.861.294 1.654.078 2.132-.575a33.32 33.32 0 0 0 2.628 6.063 9.77 9.77 0 0 0-.484-.41l.001.004zM70 58.154h8.75v-.917c-2.571-.166-5.93-5.919-6.132-9.028L71.461 30.4c3.856-.478 7.38-2.827 10.201-6.472-.112.433-.165.88-.162 1.34.007 1.428.79 2.643 2.092 3.255.53.249 1.11.378 1.696.379.873 0 1.73-.29 2.408-.85 1.512-1.246 1.676-2.804 1.057-3.699-.525-.757-1.478-.948-2.32-.464a1.045 1.045 0 0 0 .461 1.95c-.09.166-.25.373-.528.601-.497.41-1.254.486-1.885.19-.332-.154-.885-.539-.89-1.372-.006-1.178.617-2.227 1.966-3.3 1.298-1.034 3.054-1.893 4.601-2.652 1.034-.507 2.013-.987 2.787-1.48 1.086-.69 2.044-1.867 2.695-3.307.633-1.405.924-2.94.82-4.323-.16-2.103-1.197-3.68-2.919-4.441-1.857-.821-3.82-.204-5.385 1.69a4.697 4.697 0 0 0-.168.208c.266-1.934.408-3.94.415-5.996H51.599c.006 2.006.145 4.009.416 5.996a6.923 6.923 0 0 0-.167-.21c-1.565-1.892-3.528-2.508-5.386-1.688-1.722.76-2.759 2.338-2.917 4.44-.106 1.385.184 2.92.817 4.324.65 1.441 1.607 2.615 2.695 3.308.774.492 1.75.972 2.787 1.479 1.55.759 3.303 1.617 4.601 2.652 1.349 1.073 1.972 2.122 1.966 3.3-.005.833-.56 1.217-.889 1.372-.632.297-1.39.22-1.887-.19-.276-.228-.439-.435-.53-.6a1.045 1.045 0 0 0 .462-1.95c-.84-.485-1.796-.294-2.32.463-.62.895-.455 2.453 1.059 3.7.68.554 1.53.854 2.407.849a3.99 3.99 0 0 0 1.696-.38c1.302-.61 2.084-1.826 2.092-3.254a5.247 5.247 0 0 0-.163-1.34c2.821 3.645 6.346 5.994 10.202 6.472l-1.157 17.808c-.202 3.11-3.562 8.862-6.132 9.028v.917H70zm14.255-37.832c-.17.135-.329.271-.483.41 1.03-1.831 1.915-3.866 2.629-6.065.48.654 1.27.87 2.131.575a1.045 1.045 0 0 0-.486-2.025c-.028-.32.018-.927.294-1.782.366-1.132.977-2.204 1.674-2.94.333-.35 1.34-1.417 2.682-.826 1.259.557 1.607 1.767 1.677 2.686.162 2.147-.982 4.71-2.552 5.71-.674.43-1.6.884-2.582 1.366-1.643.805-3.506 1.717-4.984 2.893v-.002z" fill="#FBB429"/><path d="M84.548 1.655s3.57 24.168-13.743 28.438l1.062 18.084c-.043 4.81 3.908 9.977 6.884 9.977v-.917c-2.571-.166-5.93-5.918-6.132-9.028l-1.157-17.808c3.834-.476 7.338-2.8 10.153-6.41a.397.397 0 0 1 .05-.063s1.348-1.581 2.347-3.407c-.081.07-.16.138-.239.21.293-.522.575-1.06.844-1.613.902-2.145 1.784-4.452 1.784-4.452.532-1.698 1.24-4.542 1.586-7.015.271-1.987.41-3.99.414-5.996h-3.853z" fill="#F5A209"/><path d="M82.606 74.145H57.393v-14.14c0-1.02.832-1.852 1.851-1.852h21.51c1.02 0 1.852.833 1.852 1.852v14.14z" fill="#666"/><path d="M84.943 77.002H55.055v-2.39c0-.93.754-1.682 1.681-1.682H83.26c.929 0 1.682.753 1.682 1.683v2.389h.002z" fill="#807D7D"/><path d="M88.851 1.655H51.15a.818.818 0 0 1-.819-.819V.82c0-.451.366-.818.819-.818h37.703a.82.82 0 0 1 .819.818v.017a.819.819 0 0 1-.82.819z" fill="#FBB429"/><path d="M63.97 63.194h11.965v1.139H63.971v-1.139zm0 2.646h11.965v1.139H63.971V65.84zm2.45 2.644h7.066v1.139h-7.065v-1.139z" fill="#807D7D"/><path d="M26.428 95.932h78.898v2.66c-3.736 4.763-3.119 10.06 0 14.028v2.66H26.428c-12.325 0-12.326-19.346 0-19.346v-.002z" fill="#20D0C2"/><path d="M105.327 112.62c-3.185-4.676-3.426-9.352 0-14.027h-78.9c-3.709 0-6.754 3.16-6.754 7.014 0 3.852 3.045 7.013 6.754 7.013h78.9z" fill="#FFF"/><g fill="#ECF0F1"><path d="M104.57 99.722a16 16 0 0 1 .757-1.13h-78.9c-7.546 0-9.662 10.815-2.051 13.689-5.197-2.53-3.257-11.152 2.198-12.56h77.996v.001z"/><path d="M103.79 101.059H21.3c.153-.185.315-.363.485-.532h82.271a12.01 12.01 0 0 0-.267.532h.001zm-83.178.997c-.1.173-.19.35-.274.53h82.863c.053-.178.112-.354.175-.53H20.612zm-.649 1.528a7.375 7.375 0 0 0-.133.53h83.027c.025-.176.056-.353.09-.53H19.963h.001zm-.27 1.528a7.04 7.04 0 0 0-.02.495l.003.034h83.076c-.001-.175.004-.352.012-.529H19.69h.001zm.055 1.527c.026.18.058.355.098.531h83.03a8.98 8.98 0 0 1-.067-.531h-83.06zm.397 1.529c.07.18.146.357.228.53h82.86a11.15 11.15 0 0 1-.15-.53H20.145zm.808 1.528c.128.183.264.36.407.529h82.473a12.596 12.596 0 0 1-.237-.53H20.953zm1.447 1.527c.252.196.516.372.791.53h81.51c-.115-.174-.226-.35-.334-.53H22.4z"/></g><path d="M112.091 115.279H20.573v3.4c4.332 6.083 3.616 12.85 0 17.92V140h91.518c14.3 0 14.3-24.721 0-24.721z" fill="#FF5B61"/><path d="M20.573 136.6c3.694-5.973 3.973-11.947 0-17.92h91.52c4.304 0 7.834 4.037 7.834 8.96 0 4.921-3.532 8.96-7.835 8.96h-91.52z" fill="#FFF"/><g fill="#ECF0F1"><path d="M21.448 120.123a20.482 20.482 0 0 0-.875-1.444h91.52c8.752 0 11.208 13.818 2.38 17.49 6.028-3.232 3.777-14.249-2.549-16.048H21.45l-.001.002z"/><path d="M22.353 121.828h95.686a8.832 8.832 0 0 0-.561-.678H22.044c.11.225.213.451.31.677v.001zm96.486 1.275a9.7 9.7 0 0 1 .317.677H23.039c-.062-.228-.13-.453-.203-.677h96.003zm.752 1.952c.06.223.112.448.154.677h-96.31c-.028-.224-.064-.45-.105-.677h96.26zm.315 1.953c.013.21.02.42.02.632v.044H23.56c.001-.224-.003-.451-.013-.677h96.362l-.002.001zm-.065 1.953c-.03.226-.068.452-.112.676H23.414c.033-.224.058-.45.08-.676h96.346zm-.46 1.952c-.08.23-.168.456-.263.677H23c.063-.224.121-.45.174-.677h96.206zm-.937 1.953a8.9 8.9 0 0 1-.473.677H22.307c.097-.224.187-.45.273-.677h95.864zm-1.68 1.952c-.29.25-.598.475-.917.677H21.3c.133-.224.262-.448.386-.677h95.079z"/></g><path d="M98.188 76.552h-60.92v2.66c2.885 4.763 2.409 10.058 0 14.026V95.9h60.92c9.517 0 9.517-19.347 0-19.347z" fill="#FBB429"/><path d="M37.268 93.238c2.46-4.676 2.645-9.35 0-14.025h60.92c2.866 0 5.216 3.161 5.216 7.013s-2.351 7.012-5.215 7.012H37.268z" fill="#FFF"/><g fill="#ECF0F1"><path d="M37.851 80.342c-.177-.376-.37-.753-.583-1.13h60.92c5.826 0 7.462 10.815 1.584 13.69 4.014-2.53 2.515-11.151-1.695-12.56H37.85z"/><path d="M38.453 81.677h63.693a6.559 6.559 0 0 0-.373-.53H38.246c.072.177.141.353.205.53h.002zm64.226.999c.076.173.147.35.212.528H38.91a18.332 18.332 0 0 0-.136-.53h63.904v.002zm.501 1.527c.04.173.074.35.104.53H39.176a12.63 12.63 0 0 0-.071-.53h64.075zm.21 1.528c.01.165.014.329.014.494v.036H39.256c.002-.176-.003-.353-.007-.53h64.142-.001zm-.043 1.528c-.02.178-.046.355-.075.53h-64.11c.021-.176.039-.353.053-.53h64.133zm-.306 1.529a8.54 8.54 0 0 1-.176.528h-63.98c.042-.175.082-.35.117-.528h64.039zm-.625 1.528a7.358 7.358 0 0 1-.314.53H38.421c.065-.175.126-.35.184-.53h63.812-.001zm-1.118 1.528a5.316 5.316 0 0 1-.61.53H37.751c.091-.176.177-.351.258-.53h63.29z"/></g></g></svg>