<svg width="140" height="140" viewBox="0 0 140 140" xmlns="http://www.w3.org/2000/svg"><title>practice</title><g fill="none"><path d="M69.864 139.727c38.48 0 69.863-31.385 69.863-69.863C139.727 31.384 108.344 0 69.864 0 31.384 0 0 31.383 0 69.864c0 38.48 31.384 69.863 69.863 69.863z" fill="#5DDDD3"/><path d="M95.703 73.556c2.151-3.619 5.544-7.819 2.098-14.202-5.07-22.168 18.297-26.665 21.83-17.515 5.75 2.169 5.597 14.103 2.64 20.347-.132 2.57-2.803 4.811 2.025 11.442l.347-.076c-6.263 1.815-22.317.98-28.94.003v.001z" fill="#666"/><path d="M101.843 62.072c1.762 3.7 2.412 5.147 4.602 6.81-.512 9.426-7.75 4.921-13.043 13.468-.457.737-1.888 4.426-3.15 8.01a37.125 37.125 0 0 0 20.41 6.076 37.122 37.122 0 0 0 20.408-6.076c-1.262-3.585-2.693-7.273-3.15-8.01-5.292-8.546-12.532-4.041-13.042-13.468 2.188-1.664 2.84-3.108 4.602-6.81.43.226.884.532 1.235.137.35-.394 2.018-5.514 1.719-6.206-.3-.69-.593-.25-1.042.063.024-.15-.353 1.85-.348 1.547.043-2.418-1.69-4.547-2.232-10.943-5.026 9.294-19.499 5.472-18.88 9.397-2.82-1.974.606 6.063.678 6.142.349.395.8.09 1.233-.137z" fill="#FED198"/><path d="M105.276 73.283c-.62.975-1.45 1.596-2.412 2.112h.001L110.94 90.7l7.493-15.316c-1.073-.575-1.978-1.29-2.611-2.48l-.002-.001-5.122 2.548-.158.012-4.545-2.433-.719.254z" fill="#ECF0F1"/><path fill="#FFCA4F" d="M109.4 75.51l.479 1.425-1.062 16.232 1.833 1.694 1.833-1.694-1.063-16.232.477-1.425-1.248-.06-1.247.06z"/><path d="M102.865 75.394c-2.684 1.433-6.4 2.011-9.464 6.956-.458.737-1.889 4.426-3.15 8.01a37.125 37.125 0 0 0 20.409 6.076 37.122 37.122 0 0 0 20.408-6.076c-1.26-3.585-2.692-7.273-3.15-8.01-3.072-4.96-6.798-5.525-9.485-6.967l-7.717 15.129-7.85-15.117-.002-.001z" fill="#15BDB1"/><path d="M105.855 71.468l-1.216 2.539 3.618 6.079 2.367-4.636-4.768-3.982h-.001zm9.61 0l1.239 2.48-3.64 6.138-2.366-4.636 4.767-3.982z" fill="#FFF"/><path d="M103.48 75.035l7.238 14.097 7.13-14.09c.357.228.739.43 1.14.622l-8.27 16.161-8.348-16.18c.39-.188.76-.386 1.11-.609z" fill="#20D0C2"/><path fill="#F0B97D" d="M34.787 66.47h14.174l1.148 11.947 2.04 1.636 4.3 2.74-14.575 34.43-14.577-34.43 4.301-2.74 2.041-1.634 1.147-11.947z"/><path fill="#ECF0F1" d="M30.111 80.937l-11.749 3.75 23.513 32.536L61.88 83.595l-8.3-2.632-7.31 5.161h-8.763l-7.395-5.19v.003z"/><path fill="#FFCA4F" d="M39.252 85.651l1.005 2.478-2.233 28.235 3.853 2.947 3.85-2.947-2.233-28.235 1.005-2.478-2.622-.104-2.624.104z"/><path d="M30.313 80.873l-20.78 6.634s-2.708 1.488-3.502 5.652c-.151.795-.233 2.403-.269 4.52 9.915 22.818 31.654 39.306 57.484 41.734l1.19-19.784 1.125 19.964a70.233 70.233 0 0 0 14.635-.627c-.653-9.78-1.75-42-2.476-45.808-.796-4.163-3.502-5.651-3.502-5.651l-20.64-6.542-11.532 37.814-11.732-37.904-.001-.002z" fill="#15BDB1"/><path d="M30.313 80.873l-4.482 1.431-.862 11.374s.238.933.95.85l4.045 1.522s.266.264.029.6l-3.463 2.373 15.767 28.619 14.925-28.62-3.463-2.372a.462.462 0 0 1 .028-.6l4.045-1.521c.712.084.95-.851.95-.851l-.86-11.337-4.344-1.378-11.533 37.815-11.733-37.904z" fill="#20D0C2"/><path d="M24.57 41.73c0 1.163-.425 2.302-.393 3.42-3.982-.74-2.059 11.087.193 12.714.18.129.62-.159.991-.396.782 4.35 7.451 15.974 11.692 20.867 1.178 1.358 8.379 1.335 9.545.051 4.343-4.783 11.005-16.544 11.791-20.919.373.236.812.524.99.396 2.254-1.626 4.177-13.453.195-12.715.031-1.117-.393-2.257-.393-3.42-.22-9.184-8.542-13.77-17.305-13.808-8.764.039-17.085 4.624-17.307 13.808l.002.001h-.001z" fill="#FED198"/><path d="M29.906 29.955c-1.255-.146-5.792 1.244-6.337 6.043-.545 4.799-.285 9.221-.285 9.221s2.657.672 2.993 3.396c.333 2.723.095 2.723.095 2.723l.963-.217.686-4.67c3.976-2.492-.03-6.181 3.947-7.047 10.74 7.654 20.216 6.345 24.488 2.744 0 0-.998 3.766-.228 5.109.769 1.344.31 3.458.31 3.458l1-.048s-.18-5.546 2.037-5.52C68 31.233 41.327 13.956 29.907 29.951l-.001.003z" fill="#666"/><path d="M33.542 76.712c.298.021-3.47 4.269-3.47 4.269l3.208 10.98 8.596-6.414c-4.73-2.32-7.55-5.326-8.334-8.835zm16.668 0c-.298.021 3.469 4.269 3.469 4.269l-3.207 10.98-8.596-6.414c4.727-2.32 7.55-5.326 8.334-8.835zm39.207-30.633l6.43 6.598-1.754-6.598h.53a1.47 1.47 0 0 0 1.467-1.467V32.637a1.47 1.47 0 0 0-1.467-1.467H72.505a1.47 1.47 0 0 0-1.467 1.467V44.61c0 .808.659 1.469 1.467 1.469h16.912v-.001z" fill="#FFF"/><path d="M74.29 33.224h17.025v.87H74.29v-.87zm0 6.009h10.087v.87H74.291v-.87zm0-2.003h17.025v.87H74.29v-.87zm0-2.003h17.025v.87H74.29v-.87z" fill="#C8CACC"/><path d="M71.48 70.974l-7.58 7.778 2.065-7.778h-.626a1.733 1.733 0 0 1-1.729-1.728V55.13c0-.95.779-1.728 1.729-1.728H91.41c.95 0 1.728.777 1.728 1.728v14.116a1.733 1.733 0 0 1-1.728 1.728H71.477h.002z" fill="#FFF"/><path d="M89.307 55.823H69.24v1.024h20.067v-1.025h-.001zm0 7.082H77.418v1.025h11.889v-1.025zm0-2.362H69.24v1.025h20.067v-1.025h-.001zm0-2.36H69.24v1.025h20.067v-1.025h-.001z" fill="#C8CACC"/></g></svg>