<svg width="150" height="150" viewBox="0 0 150 150" xmlns="http://www.w3.org/2000/svg"><title>chat</title><g fill="none"><path d="M74.854 149.708c41.229 0 74.854-33.627 74.854-74.854C149.708 33.625 116.083 0 74.854 0 33.626 0 .001 33.625.001 74.854c0 41.228 33.626 74.854 74.853 74.854z" fill="#5DDDD3"/><path d="M102.539 78.81c2.305-3.877 5.94-8.377 2.248-15.216-5.432-23.752 19.604-28.57 23.39-18.766 6.16 2.323 5.996 15.11 2.828 21.8-.142 2.754-3.004 5.155 2.169 12.259l.372-.081c-6.71 1.944-23.911 1.049-31.007.003z" fill="#666"/><path d="M109.117 66.506c1.888 3.965 2.585 5.514 4.931 7.296-.548 10.099-8.303 5.273-13.974 14.43-.49.79-2.023 4.742-3.375 8.583a39.777 39.777 0 0 0 21.867 6.509c8.07 0 15.582-2.394 21.866-6.51-1.352-3.841-2.885-7.792-3.375-8.582-5.67-9.156-13.427-4.33-13.973-14.43 2.344-1.783 3.042-3.33 4.93-7.296.462.242.947.57 1.323.147.375-.423 2.163-5.908 1.842-6.65-.322-.74-.635-.268-1.116.068.026-.16-.378 1.982-.373 1.657.046-2.59-1.81-4.872-2.391-11.724-5.385 9.957-20.892 5.862-20.23 10.068-3.02-2.115.65 6.496.727 6.58.374.424.858.096 1.321-.146z" fill="#FED198"/><path d="M112.796 78.518c-.664 1.044-1.553 1.71-2.585 2.262l.002.001 8.651 16.398 8.029-16.41c-1.15-.617-2.12-1.383-2.798-2.658l-.002-.001-5.488 2.73-.169.013-4.87-2.607-.77.273v-.001z" fill="#ECF0F1"/><path fill="#FFCA4F" d="M117.215 80.904l.512 1.526-1.137 17.392 1.964 1.815 1.963-1.815-1.138-17.392.511-1.526-1.337-.065-1.337.065z"/><path d="M110.212 80.779c-2.875 1.536-6.856 2.155-10.14 7.453-.49.79-2.023 4.742-3.374 8.583a39.777 39.777 0 0 0 21.866 6.509c8.07 0 15.582-2.394 21.866-6.51-1.351-3.841-2.884-7.792-3.374-8.582-3.292-5.314-7.285-5.92-10.164-7.464l-8.268 16.209-8.411-16.197-.002-.001h.001z" fill="#15BDB1"/><path d="M113.416 76.573l-1.303 2.72 3.877 6.513 2.536-4.967-5.109-4.266h-.001zm10.296 0l1.328 2.657-3.9 6.576-2.535-4.967 5.107-4.266z" fill="#FFF"/><path d="M110.871 80.395l7.755 15.104 7.639-15.097c.383.244.792.46 1.222.667l-8.861 17.315-8.944-17.335c.417-.202.815-.414 1.19-.653v-.001z" fill="#20D0C2"/><path fill="#F0B97D" d="M37.272 71.218h15.186l1.23 12.8 2.186 1.753 4.608 2.935-15.617 36.89-15.618-36.89 4.608-2.935 2.187-1.751 1.229-12.8z"/><path fill="#ECF0F1" d="M32.262 86.718l-12.588 4.018 25.192 34.86L66.3 89.566l-8.893-2.82-7.832 5.53h-9.389l-7.923-5.56v.002z"/><path fill="#FFCA4F" d="M42.056 91.769l1.076 2.655-2.392 30.252 4.128 3.157 4.125-3.157-2.392-30.252 1.077-2.655-2.81-.112-2.811.112z"/><path d="M32.478 86.65l-22.265 7.107s-2.9 1.595-3.751 6.056c-.162.852-.25 2.575-.288 4.843 10.623 24.448 33.915 42.114 61.59 44.715l1.274-21.197 1.206 21.39a76.53 76.53 0 0 0 4.61.145c3.762 0 7.457-.28 11.07-.817-.699-10.479-1.875-44.999-2.653-49.08-.852-4.46-3.752-6.055-3.752-6.055l-22.113-7.009-12.357 40.515-12.57-40.611v-.001z" fill="#15BDB1"/><path d="M32.478 86.65l-4.802 1.533-.923 12.186s.254 1 1.017.912l4.334 1.63s.285.283.031.643l-3.71 2.542 16.893 30.663 15.991-30.663-3.71-2.542a.495.495 0 0 1 .03-.643l4.334-1.63c.763.09 1.017-.912 1.017-.912l-.92-12.146-4.655-1.477-12.357 40.516-12.571-40.611h.001z" fill="#20D0C2"/><path d="M26.325 44.71c0 1.247-.455 2.467-.421 3.664-4.267-.791-2.206 11.88.207 13.623.192.138.665-.17 1.062-.424.837 4.66 7.983 17.115 12.527 22.357 1.262 1.455 8.977 1.431 10.226.055C54.58 78.86 61.718 66.259 62.56 61.572c.399.253.87.561 1.061.424 2.414-1.742 4.475-14.414.208-13.623.034-1.197-.421-2.418-.421-3.664-.236-9.84-9.152-14.753-18.541-14.795-9.39.042-18.305 4.955-18.543 14.795l.002.001z" fill="#FED198"/><path d="M32.042 32.095c-1.345-.157-6.206 1.332-6.79 6.474-.583 5.142-.305 9.88-.305 9.88s2.847.72 3.207 3.638c.357 2.918.102 2.918.102 2.918l1.032-.232.735-5.004c4.26-2.67-.033-6.623 4.228-7.55 11.507 8.2 21.66 6.798 26.238 2.94 0 0-1.07 4.035-.245 5.473.824 1.44.333 3.706.333 3.706l1.07-.052s-.192-5.942 2.183-5.915c9.027-14.906-19.551-33.418-31.787-16.28l-.001.004z" fill="#666"/><g fill="#FFF"><path d="M35.938 82.191c.319.023-3.717 4.574-3.717 4.574l3.436 11.765 9.21-6.873c-5.067-2.486-8.089-5.706-8.929-9.466z"/><path d="M53.796 82.191c-.319.023 3.717 4.574 3.717 4.574L54.077 98.53l-9.21-6.873c5.065-2.486 8.09-5.706 8.929-9.466zM95.804 49.37l6.889 7.07-1.879-7.07h.568c.865 0 1.572-.707 1.572-1.571V34.968c0-.865-.706-1.572-1.572-1.572H77.684c-.865 0-1.572.706-1.572 1.572v12.83c0 .865.706 1.573 1.572 1.573h18.12z"/></g><path d="M79.597 35.597h18.24v.932h-18.24v-.932zm0 6.438h10.807v.932H79.597v-.932zm0-2.146h18.24v.932h-18.24v-.932zm0-2.146h18.24v.932h-18.24v-.932z" fill="#C8CACC"/><path d="M76.585 76.044l-8.121 8.333 2.213-8.333h-.671a1.857 1.857 0 0 1-1.852-1.852V59.068c0-1.019.834-1.852 1.852-1.852H97.94c1.018 0 1.852.833 1.852 1.852v15.124a1.857 1.857 0 0 1-1.852 1.852H76.583h.002z" fill="#FFF"/><path d="M95.686 59.81H74.187v1.097h21.5v-1.098zm0 7.588H82.948v1.098h12.738v-1.098zm0-2.53H74.187v1.098h21.5v-1.098zm0-2.53H74.187v1.099h21.5v-1.098z" fill="#C8CACC"/></g></svg>