<svg width="200" height="200" viewBox="0 0 200 200" xmlns="http://www.w3.org/2000/svg"><title>forms</title><g fill="none"><path d="M100 0c55.229 0 100 44.771 100 100s-44.771 100-100 100S0 155.229 0 100 44.771 0 100 0z" fill="#3A5ABD"/><path d="M177.27 117.385c-2.32 26.387-31.723 42.95-76.635 42.95-44.91 0-80.954-19.71-80.504-44.026.448-24.125 36.66-43.716 81.1-44.016 8.169-.617 43.661 4.26 28.082 14.996-28.521 19.652 9.755 29.822 18.621 17.573 12.296-16.985 30.943-5.775 29.335 12.523z" fill="#DFE1E3"/><path d="M176.47 114.912c-1.828 25.558-30.926 41.605-75.836 41.605-44.913 0-81.322-19.092-81.322-42.648 0-23.372 35.85-42.346 80.284-42.639 8.158-.599 43.74 4.129 28.36 14.527-28.157 19.037 10.307 28.888 18.946 17.023 11.98-16.452 30.835-5.595 29.567 12.13v.002z" fill="#FFF"/><path d="M87.542 78.4s-10.813.114-10.966 2.313c-.152 2.199-8.3 2.143-4.493 5.133 3.808 2.99 8.375.283 13.859.846 5.482.565 10.736-2.708 8.908-4.683-1.827-1.974-3.12-4.118-7.308-3.609z" fill="#F5A209"/><path d="M55.887 95.655c7.047.758 7.266 2.673 8.123 3.915.857 1.243-4.556 4.407-8.693 5.459-4.137 1.052-4.87-1.55-11.008-.018-12.842 3.201-7.549-11.412 11.578-9.356z" fill="#EC4B53"/><path d="M52.947 120.088s-14.117-3.965-17.875.072c-3.757 4.038-4.735 5.82.391 7.365 5.128 1.544 14.548-.528 17.853.027 3.305.556 5.75-4.68-.371-7.465h.002v.001z" fill="#15BDB1"/><path d="M64.27 138.398c-5.47 3.432-.304 6.94 7.308 8.572 7.615 1.633 8.141-1.558 12.252-3.09 4.112-1.531 11.504-6.302 5.262-7.321-6.243-1.02-7.197-3.966-11.597-3.115-9.218 1.785-6.595.79-13.226 4.951v.003z" fill="#F5A209"/><path d="M113.564 142.581c-.461 3.794 8.599 4.782 12.761 5 4.165.217 11.292-3.015 14.299-4.642 3.007-1.625 4.513-6.615-.347-7.264-4.856-.65-4.972.868-8.444-.976-3.47-1.844-6.477-1.626-9.715.65-3.239 2.277-8.438 4.088-8.556 7.233h.002z" fill="#076673"/><path d="M157.281 113.575c-2.352.568-5.502 2.01-8.257 3.975-2.757 1.966-2.543 3.243-3.175 5.336-.636 2.093 6.987 4.395 12.322 3.14 5.337-1.256 13.976-8.58 9.783-9.835-4.194-1.256-4.194-4.082-10.673-2.616z" fill="#EC4B53"/><path fill="#15BDB1" d="M124.551 103.612l-3.518-4.033-14.089 12.288 3.519 4.033z"/><path fill="#20D0C2" d="M123.437 102.335l-1.29-1.48-14.09 12.288 1.293 1.48z"/><path d="M106.942 111.868s-6.175-2.33-10.888 5.03c-4.714 7.355-9.098 5.886-13.385 6.335 0 0 29.127 8.793 27.794-7.333l-3.52-4.033v.001z" fill="#EC4B53"/><path d="M86.326 123.667c5.983-.842 8.15-2.477 9.602-5.179 2.45-4.56 6.702-7.517 11.06-5.68l2.747 3.386c-.586 12.753-23.41 7.473-23.41 7.473z" fill="#FF5B61"/><path d="M138.263 93.901a473.918 473.918 0 0 1-13.716 9.706l-3.514-4.03s5.095-5.685 11.479-12.27l5.753 6.593-.002.002z" fill="#0E7886"/><path d="M132.51 87.308c4.438-4.58 9.497-9.594 13.903-13.436 10.735-9.364 50.33-41.157 52.546-38.722v-.003l.002.004c0 .002.002.002.004.002l-.003.002c2.108 2.524-34.765 37.436-45.5 46.799-4.406 3.844-10.06 8.175-15.199 11.95l-5.753-6.595v-.001z" fill="#FBB429"/><path d="M87.39 77.98s-10.812.113-10.966 2.312c-.152 2.2-8.299 2.144-4.492 5.136 3.806 2.988 8.375.28 13.858.845 5.482.563 10.735-2.708 8.909-4.681-1.827-1.975-3.121-4.12-7.309-3.61v-.003z" fill="#FFBA1B"/><path d="M55.733 95.235c7.048.758 7.266 2.672 8.124 3.916.854 1.242-4.557 4.405-8.693 5.457-4.14 1.052-4.872-1.55-11.008-.018-12.842 3.202-7.549-11.41 11.577-9.355z" fill="#FF5B61"/><path d="M52.793 119.67s-14.116-3.966-17.873.072c-3.756 4.037-4.734 5.82.392 7.365 5.128 1.544 14.549-.53 17.852.026 3.306.558 5.749-4.68-.37-7.464h-.001z" fill="#20D0C2"/><path d="M64.116 137.977c-5.468 3.434-.304 6.94 7.309 8.574 7.614 1.633 8.14-1.56 12.252-3.09 4.112-1.531 11.504-6.301 5.261-7.321-6.244-1.02-7.196-3.966-11.596-3.114-9.219 1.785-6.597.79-13.226 4.951z" fill="#FFBA1B"/><path d="M113.41 142.162c-.463 3.797 8.597 4.782 12.762 5 4.165.217 11.292-3.015 14.298-4.64 3.007-1.626 4.51-6.614-.346-7.264-4.859-.65-4.974.868-8.444-.976-3.47-1.843-6.478-1.625-9.715.65-3.24 2.278-8.44 4.09-8.556 7.233l.002-.003z" fill="#0E7886"/><path d="M157.13 113.154c-2.353.569-5.501 2.01-8.258 3.977-2.757 1.967-2.542 3.243-3.177 5.336-.635 2.093 6.988 4.396 12.325 3.14 5.335-1.256 13.975-8.579 9.782-9.837-4.193-1.255-4.193-4.08-10.672-2.616z" fill="#FF5B61"/></g></svg>