<svg width="88" height="36" viewBox="0 0 88 36" xmlns="http://www.w3.org/2000/svg"><title>logo</title><path d="M35.59 28.653c0 .062.05.117.117.117h2.456a.117.117 0 0 0 .116-.117v-.341a.117.117 0 0 0-.116-.118h-1.94v-1.332h1.639c.061 0 .116-.05.116-.118v-.347a.121.121 0 0 0-.116-.118h-1.64v-1.264h1.94a.117.117 0 0 0 .117-.117v-.347a.117.117 0 0 0-.116-.118h-2.456a.117.117 0 0 0-.117.118v4.102zm3.455 0a.12.12 0 0 0 .116.117h.387a.117.117 0 0 0 .117-.117v-3.018h.006l2.665 3.197h.16c.06 0 .116-.05.116-.111v-4.17a.121.121 0 0 0-.117-.118h-.393a.117.117 0 0 0-.116.118v2.93h-.006l-2.665-3.11h-.154c-.06 0-.116.05-.116.111v4.17zm4.283-2.045a2.21 2.21 0 0 0 2.21 2.224c.89 0 1.523-.409 1.523-.409a.154.154 0 0 0 .05-.099c0-.495-.007-1.004-.007-1.5 0-.061-.049-.117-.11-.117h-1.118a.113.113 0 0 0-.116.118v.36c0 .061.049.11.116.11h.602v.695c-.062.024-.411.21-.921.21-.872 0-1.541-.743-1.541-1.605 0-.867.67-1.61 1.541-1.61.374 0 .755.167 1.044.42.061.056.11.063.16.007.091-.1.183-.192.276-.291.049-.05.043-.124-.007-.174-.417-.36-.902-.576-1.491-.576a2.22 2.22 0 0 0-2.21 2.237zm4.585 2.045c0 .062.049.117.116.117h2.186a.117.117 0 0 0 .117-.117v-.341a.117.117 0 0 0-.117-.118h-1.664v-3.643a.121.121 0 0 0-.116-.118h-.406a.117.117 0 0 0-.116.118v4.102zm2.902 0a.12.12 0 0 0 .116.117h.406a.121.121 0 0 0 .116-.117V24.55a.121.121 0 0 0-.116-.118h-.406a.121.121 0 0 0-.116.118v4.102zm1.428-.31c.099.093.571.49 1.32.49.798 0 1.37-.527 1.37-1.172 0-.756-.608-1.097-1.32-1.388-.51-.21-.78-.427-.78-.78 0-.23.178-.558.694-.558.356 0 .785.285.828.31.086.055.166.018.215-.062l.154-.236a.148.148 0 0 0-.037-.21 2.068 2.068 0 0 0-1.136-.366c-.976 0-1.344.663-1.344 1.146 0 .719.49 1.047 1.117 1.314.608.254.927.49.927.861 0 .316-.27.577-.694.577-.473 0-.945-.397-.982-.428-.068-.056-.154-.031-.209.05-.055.08-.104.173-.16.254-.06.105-.018.148.037.198zm3.375.31a.12.12 0 0 0 .117.117h.405a.117.117 0 0 0 .117-.117v-1.791h2.247v1.79c0 .063.049.118.116.118h.406a.121.121 0 0 0 .116-.117V24.55a.121.121 0 0 0-.116-.118h-.406a.117.117 0 0 0-.116.118v1.728h-2.247V24.55a.117.117 0 0 0-.117-.118h-.405a.121.121 0 0 0-.117.118v4.102zm5.743 0c0 .062.05.117.117.117h2.185a.117.117 0 0 0 .117-.117v-.341a.117.117 0 0 0-.117-.118H62v-3.643a.121.121 0 0 0-.117-.118h-.405a.117.117 0 0 0-.117.118v4.102zm2.902 0c0 .062.05.117.117.117h2.456a.117.117 0 0 0 .116-.117v-.341a.117.117 0 0 0-.116-.118h-1.94v-1.332h1.639c.061 0 .116-.05.116-.118v-.347a.121.121 0 0 0-.116-.118h-1.64v-1.264h1.94a.117.117 0 0 0 .117-.117v-.347a.117.117 0 0 0-.116-.118H64.38a.117.117 0 0 0-.117.118v4.102zm3.215-.31c.099.093.571.49 1.32.49.798 0 1.37-.527 1.37-1.172 0-.756-.608-1.097-1.32-1.388-.51-.21-.78-.427-.78-.78 0-.23.178-.558.693-.558.357 0 .786.285.83.31.085.055.165.018.214-.062l.154-.236a.148.148 0 0 0-.037-.21 2.068 2.068 0 0 0-1.136-.366c-.976 0-1.345.663-1.345 1.146 0 .719.492 1.047 1.118 1.314.608.254.927.49.927.861 0 .316-.27.577-.694.577-.473 0-.945-.397-.982-.428-.068-.056-.154-.031-.209.05-.055.08-.104.173-.16.254-.06.105-.018.148.037.198zm3.136 0c.098.093.57.49 1.32.49.798 0 1.369-.527 1.369-1.172 0-.756-.608-1.097-1.32-1.388-.51-.21-.78-.427-.78-.78 0-.23.178-.558.694-.558.356 0 .786.285.829.31.086.055.165.018.215-.062l.153-.236a.148.148 0 0 0-.037-.21 2.068 2.068 0 0 0-1.136-.366c-.976 0-1.344.663-1.344 1.146 0 .719.491 1.047 1.117 1.314.608.254.927.49.927.861 0 .316-.27.577-.693.577-.473 0-.946-.397-.983-.428-.067-.056-.153-.031-.208.05-.056.08-.105.173-.16.254-.062.105-.019.148.037.198zm3.061-1.735c0-1.24.977-2.237 2.205-2.237 1.227 0 2.21.997 2.21 2.237 0 1.24-.983 2.224-2.21 2.224a2.2 2.2 0 0 1-2.205-2.224zm.614 0c0 .886.719 1.605 1.59 1.605.878 0 1.597-.719 1.597-1.605 0-.88-.719-1.618-1.596-1.618-.872 0-1.59.738-1.59 1.618zm4.517 2.045a.12.12 0 0 0 .117.117h.387a.117.117 0 0 0 .116-.117v-3.018h.006l2.665 3.197h.16c.061 0 .116-.05.116-.111v-4.17a.121.121 0 0 0-.116-.118h-.393a.117.117 0 0 0-.117.118v2.93h-.006l-2.665-3.11h-.153c-.062 0-.117.05-.117.111v4.17zm4.357-.31c.099.093.571.49 1.32.49.799 0 1.37-.527 1.37-1.172 0-.756-.608-1.097-1.32-1.388-.51-.21-.78-.427-.78-.78 0-.23.178-.558.694-.558.356 0 .785.285.828.31.086.055.166.018.215-.062l.154-.236a.148.148 0 0 0-.037-.21 2.068 2.068 0 0 0-1.136-.366c-.976 0-1.344.663-1.344 1.146 0 .719.49 1.047 1.117 1.314.608.254.927.49.927.861 0 .316-.27.577-.694.577-.473 0-.945-.397-.982-.428-.068-.056-.154-.031-.209.05-.055.08-.104.173-.16.254-.06.105-.018.148.037.198zM34.4 16.812c0 2.258.986 4.36 3.705 4.36 1.733 0 2.544-.93 2.939-1.283l.263.73c.065.177.197.332.416.332h.812c.219 0 .416-.2.416-.42v-8.012a.418.418 0 0 0-.416-.42h-1.667c-.35 0-.482.088-.482.42v4.603c-.132.797-.833 1.66-1.754 1.66-1.009 0-1.601-.73-1.601-1.903v-4.36a.418.418 0 0 0-.417-.42h-1.798a.418.418 0 0 0-.416.42v4.293zm10.75 3.718c0 .222.197.42.416.42h1.864c.22 0 .417-.198.417-.42v-3.74l3.464 3.984a.544.544 0 0 0 .373.177h2.368c.373 0 .504-.376.285-.62l-3.903-4.227 3.267-3.364c.22-.243.088-.642-.285-.642h-1.995c-.241 0-.395.133-.548.266l-3.026 3.098V5.88a.433.433 0 0 0-.417-.421h-1.864c-.219 0-.416.2-.416.42V20.53zm10.29 0c0 .222.197.42.416.42h1.623c.416 0 .548-.11.548-.42v-4.869a2.202 2.202 0 0 1 2.06-1.394c1.053 0 1.645.73 1.645 1.881v4.382c0 .222.176.42.417.42h1.798c.22 0 .417-.198.417-.42v-4.249c0-2.301-1.119-4.404-3.903-4.404a4.299 4.299 0 0 0-3.092 1.306l-.307-.82c-.066-.154-.176-.265-.373-.265h-.833a.418.418 0 0 0-.417.42v8.012zm10.267-4.028c0-2.5 2.017-4.625 4.495-4.625s4.495 2.125 4.495 4.625c0 2.546-2.017 4.67-4.495 4.67s-4.495-2.124-4.495-4.67zm2.39 0c0 1.262.92 2.28 2.105 2.28 1.162 0 2.105-1.018 2.105-2.28 0-1.239-.943-2.235-2.105-2.235-1.184 0-2.105.996-2.105 2.235zm9.939 4.427c.044.132.175.243.372.243h.11a.387.387 0 0 0 .35-.199l2.742-5.157h.022l2.763 5.157c.065.11.175.2.35.2h.088c.22 0 .35-.112.395-.244l2.74-8.322c.11-.287-.087-.509-.394-.509h-1.425c-.242 0-.417.022-.505.266l-1.315 3.961h-.022l-2.215-4.249a.363.363 0 0 0-.35-.199h-.176a.375.375 0 0 0-.35.2l-2.237 4.248h-.022l-1.316-3.961c-.044-.155-.263-.266-.395-.266h-1.578c-.307 0-.505.222-.373.51l2.74 8.32zm-48.455.032V3.002a3 3 0 0 0-3-3.002H3C1.348 0 0 1.344 0 3.002v21.084c0 1.66 1.11 3.755 2.48 4.683 0 0 2.622 2.135 8.59 4.4 1.815.813 3.62 2.787 3.646 2.787.025 0 1.8-2.017 3.676-2.85 5.548-2.26 8.651-4.432 8.651-4.432.435-.266.844-.648 1.201-1.098.121-.277.167-.59-.244-.59h-4.52c-.368 0-.479.007-.572.048-.479.296-2.026 1.182-5.398 2.555-1.42.63-2.643 1.514-2.663 1.514-.019 0-1.505-.851-2.879-1.467-4.518-1.714-5.547-2.63-5.547-2.63-1.403-.862-2.54-2.91-2.54-4.559V6.882a3.003 3.003 0 0 1 3.007-2.998H22.67a3.007 3.007 0 0 1 3.008 2.998v12.702h-.002s0 .748-.529.748H21.78c-.794 0-.993-.908-.993-1.204v-6.441a.614.614 0 0 0-.613-.617h-2.448c-.515 0-.708.13-.708.617v5.423c-.194 1.169-1.224 2.435-2.577 2.435-1.482 0-2.352-1.071-2.352-2.792v-9.05a.614.614 0 0 0-.612-.616H8.836a.614.614 0 0 0-.612.616v8.953c0 3.31 1.45 6.394 5.444 6.394 2.544 0 3.736-1.363 4.316-1.882l.387 1.071c.096.26.29.487.612.487h1.191c.049 0 5.503.012 8.073.008.783 0 1.05-.244 1.063-.249.03-.01.289-.226.288-.844-.001-.503-.009-1.113-.017-1.68z"/></svg>