<svg width="242" height="242" viewBox="0 0 242 242" xmlns="http://www.w3.org/2000/svg"><title>individual</title><g fill="none"><path d="M121 242c66.645 0 121-54.356 121-121C242 54.355 187.645 0 121 0 54.355 0 0 54.355 0 121c0 66.644 54.356 121 121 121z" fill="#3A5ABD"/><path fill="#666" d="M26.13 58.898l71.306 32.369 67.12-30.47-71.305-32.37-67.12 30.471z"/><path d="M81.138 133.309h28.409l2.301 23.943 6.951 5.104 36.47 8.215s5.424 2.985 7.018 11.33c1.01 5.295 3.664 31.814 5.781 50.602-14.469 6.115-30.374 9.496-47.069 9.496-39.477 0-74.533-18.908-96.62-48.157.625-5.508 1.188-9.928 1.573-11.942 1.338-7.015 7.019-11.329 7.019-11.329l39.2-8.396 6.668-4.92 2.3-23.945v-.001z" fill="#F0B97D"/><path d="M116.305 169.67c-6.857 8.01-29.751 11.467-42.362-2.215l21.4 63.693 20.962-61.477z" fill="#20D0C2"/><path d="M59.871 96.945c-8.909-1.58-1.314 25.027 5.193 21.06l3.495 10.256c3.145 9.24 11.08 17.65 17.12 24.31 2.358 2.599 16.797 2.555 19.13.1 6.689-7.033 14.633-14.933 17.617-24.462l3.196-10.203c6.516 3.962 14.096-22.64 5.193-21.06.617-20.712-14.03-40.807-35.471-40.899-21.44.092-36.087 20.187-35.471 40.899h-.002z" fill="#FED198"/><path d="M72.17 162.174l-39.2 8.398s-5.68 4.314-7.02 11.328c-.383 2.013-.946 6.433-1.572 11.94C46.464 223.09 81.522 242 120.998 242c16.695 0 32.601-3.382 47.07-9.498-2.118-18.786-4.77-45.307-5.781-50.602-1.595-8.343-7.02-11.328-7.02-11.328l-36.469-8.216-23.457 68.793-23.173-68.975.001.001z" fill="#0E7886"/><path d="M120.918 60.126c2.517-.293 11.609 8.012 12.7 17.628 1.09 9.617-1.003 19.311-1.003 19.311-6.395-.311-4.382 9.47-5.776 11.016l-1.8.04-.673-6.563c-7.97-4.993 3.143-24.723-4.828-26.455-13.642 11.237-33.88 15.396-51.536 12.51-4.956.66 2.255 6.925.163 14.13-1.541 2.69-.621 6.933-.621 6.933l-2.306.29S63.78 96.8 59.335 96.847c-1.078-5.608-1.523-8.952-1.225-13.919 1.522-25.421 35.697-39.896 62.808-22.803z" fill="#666"/><path d="M58.146 61.52c16.17-12.315 60.831-12.557 75.258-.11l.759 20.092c-25.175-7.471-51.157-6.79-76.897.767l.88-20.748z" fill="#807D7D"/><path d="M44.322 51.38l.113 35.619v1.103h-2.087V52.056c.071-2.043 1.833-2.324 1.974-.677z" fill="#FFF"/><path d="M39.55 93.424c0 9.487-1.99 17.651-2.101 18.197-.11.545 1.807 2.333 2.176.545.368-1.79-.036.037 1.66.154 1.67.115 2.016-.713 2.027-.738.011.025.36.853 2.027.738 1.696-.117 1.29-1.945 1.66-.154.37 1.788 2.286 0 2.174-.545-.11-.545-2.1-8.71-2.1-18.197-.09-3.634-1.512-5.346-3.762-5.87-2.249.524-3.673 2.236-3.76 5.87z" fill="#FF5B61"/><path d="M43.358 87.553c3.73 0 3.837 2.368 3.648 4.562-.822-.714-2.15-1.177-3.648-1.177-1.5 0-2.828.462-3.65 1.177-.131-2.546-.08-4.562 3.65-4.562z" fill="#807D7D"/><path d="M180.32 119.199h50.247l11.402 50.332-4.175.022-.1 17.77 4.303.022-.028 2.97h-67.925c-6.43-.499-5.856-11.926-6.199-14.986l5.723-51.165c.022-2.274 2.388-4.966 6.75-4.966h.001z" fill="#FF757C"/><path d="M180.32 119.199h4.812l-4.38 71.116h-6.707c-7.879-.894-8.178-13.423-5.62-20.156l5.143-45.995c.023-2.274 2.39-4.965 6.751-4.965z" fill="#1A91A1"/><path d="M174.92 169.526h65.748c-2.983 6.096-2.906 12.107 0 18.038H174.92c-7.053 0-7.052-18.038 0-18.038z" fill="#FFF"/><path d="M170.139 174.485h68.769c-.04.18-.077.36-.112.54h-68.79a12.9 12.9 0 0 1 .133-.54zm68.448 1.898c-.022.18-.04.36-.057.542h-68.824c.017-.182.038-.363.062-.542h68.819zm-.125 1.896c-.003.181-.003.36 0 .542h-68.828c-.003-.18-.003-.36 0-.542h68.828zm.07 1.897c.016.181.035.36.056.542H169.77c-.025-.18-.044-.36-.062-.542h68.824zm.266 1.896c.035.182.073.361.112.543h-68.768a12.61 12.61 0 0 1-.132-.543h68.788zm.461 1.898c.053.182.11.36.168.542h-68.59a8.982 8.982 0 0 1-.24-.542h68.662zm.658 1.898c.072.18.147.361.224.542h-67.977a5.401 5.401 0 0 1-.49-.542h68.244-.001z" fill="#ECF0F1"/><path fill="#FFCA4F" d="M194.92 178.768h10.273v22.792l-5.18-7.436-5.094 7.436v-22.792z"/><path d="M163.167 151.092l69.655-24.916c7.803-.647 10.138 15.226 5.022 16.723l-68.053 25.54c-3.865 1.457-7.645-4.758-7.98-10.85-.18-3.237.701-3.14 4.386-4.584l-3.029-1.913z" fill="#FFF"/><path d="M240.033 140.525c-.443 1.2-1.166 2.074-2.19 2.373l-68.052 25.54c-1.184.447-2.36.172-3.43-.597 1.93.193 2.986-.063 4.824-1.796l68.848-25.521v.001z" fill="#ECF0F1"/><g fill="#FFCA4F"><path d="M208.881 134.746c5.174.745 8.87 13.028 6.284 16.664l-9.405 3.53c1.705-5.763-2.013-15.361-7.179-16.507l10.3-3.687z"/><path d="M225.544 159.602l-10.38-8.192-9.404 3.53 7.854 9.127 3.628-5.424z"/></g><path d="M165.743 153.195l.454-.19c2.845.576 7.833 10.77 2.367 13.032-3.888 1.61-5.698-6.824-5.557-9.62 1.667-1.193 3.465 3.843 2.89 3.957l-1.155.228s.035 2.204 1.154 2.357l4.464-1.445s-.361-6.498-4.616-8.318v-.001zm16.057 20.113h57.402a22.792 22.792 0 0 1 1.458-3.77c.001-.005.005-.009.007-.012h-65.75c-6.527 0-7.013 15.447-1.46 17.752-1.88-5.32-.379-13.97 4.506-13.97h3.836z" fill="#ECF0F1"/></g></svg>