<svg width="150" height="150" viewBox="0 0 150 150" xmlns="http://www.w3.org/2000/svg"><title>mortarboard</title><g fill="none"><path d="M75 150c41.31 0 75-33.692 75-75S116.31 0 75 0 0 33.692 0 75c0 41.31 33.692 75 75 75z" fill="#5DDDD3"/><path fill="#F06D64" d="M48.11 110.075l-2.725-2.725 68.468-68.468 2.727 2.726-68.469 68.469z"/><path fill="#FF816F" d="M42.412 104.378l3.218 3.217 68.468-68.468-3.218-3.218-68.468 68.468z"/><path fill="#F06D64" d="M42.658 104.623l-2.725-2.725 68.468-68.468 2.726 2.725z"/><path fill="#FED198" d="M29.431 120.566l10.5-18.67 8.18 8.18z"/><path fill="#FFF" d="M116.578 41.607l-8.178-8.179 2.162-2.162 8.179 8.177-2.163 2.162v.002z"/><path d="M120.903 32.959l-3.853-3.854a3.065 3.065 0 0 0-4.324 0l-2.163 2.162 8.178 8.177 2.163-2.162a3.066 3.066 0 0 0 0-4.323zm-92.358 88.829l-.341-.341 5.16-7.882 3.05 3.05z" fill="#666"/><path fill="#F06D64" d="M101.89 110.075l2.725-2.725-68.468-68.468-2.725 2.726 68.468 68.469z"/><path fill="#FF816F" d="M107.588 104.378l-3.218 3.217-68.468-68.468 3.218-3.218 68.468 68.468v.001z"/><path fill="#F06D64" d="M107.342 104.623l2.725-2.725L41.599 33.43l-2.727 2.725 68.468 68.468h.002z"/><path fill="#FED198" d="M120.569 120.566l-10.5-18.67-8.178 8.18 18.68 10.49h-.002z"/><path fill="#FFF" d="M33.422 41.607l8.177-8.179-2.163-2.162-8.177 8.177 2.163 2.162v.002z"/><path d="M29.097 32.959l3.853-3.854a3.065 3.065 0 0 1 4.324 0l2.162 2.162-8.177 8.177-2.162-2.162a3.067 3.067 0 0 1 0-4.323zm92.357 88.829l.34-.341-5.162-7.882-3.05 3.05zm-11.258-53.255l.855 17.174c-4.857 9.466-20.363 16.491-35.628 16.313-14.547-.17-28.9-7.11-32.846-15.849l-.081-16.825L75 79.662l35.197-11.129h-.001z" fill="#666"/><path fill="#C8CACC" d="M22.442 64.307v-.898l52.557-20.246 52.556 20.246v.898L75 85.594z"/><path d="M41.125 117.92l-2.407 15.41c-.04.25.808.59 1.211.087.53.636 1.234.376 1.445-.063.267.435.895.676 1.35.025.404.501 1.307.153 1.242-.268l-2.391-15.205c-.061-.227-.417-.188-.448.013h-.002z" fill="#FF816F"/><path fill="#807D7D" d="M22.442 63.409l52.557-20.864 52.556 20.864L75 84.272z"/><path d="M75.359 63.198a.601.601 0 0 1 .342 1.15L41.9 74.513v44.097a.6.6 0 1 1-1.202 0V74.066h.002a.6.6 0 0 1 .429-.575L75.36 63.198h-.001z" fill="#FFF"/><path d="M41.342 115.501a2.385 2.385 0 1 1 .001 4.77 2.385 2.385 0 0 1-.001-4.77z" fill="#FFBA1B"/><path d="M43.275 117.28a2.303 2.303 0 0 1-2.303 2.303h-.044a2.306 2.306 0 0 1-1.88-1.036 2.39 2.39 0 0 0 2.826 1.666 2.386 2.386 0 0 0 1.112-4.055c.186.333.291.714.291 1.121h-.002z" fill="#F5A209"/></g></svg>