<svg width="602" height="244" viewBox="0 0 602 244" xmlns="http://www.w3.org/2000/svg"><title>logo_white_big</title><path d="M243.469 194.202c0 .42.336.798.798.798h16.8a.797.797 0 0 0 .798-.798v-2.31a.797.797 0 0 0-.798-.798h-13.272v-9.03h11.214c.42 0 .798-.336.798-.798v-2.352a.826.826 0 0 0-.798-.798h-11.214v-8.568h13.272a.797.797 0 0 0 .798-.798v-2.352a.797.797 0 0 0-.798-.798h-16.8a.797.797 0 0 0-.798.798v27.804zm23.633 0c0 .42.378.798.798.798h2.646a.797.797 0 0 0 .798-.798v-20.454h.042l18.228 21.672h1.092c.42 0 .798-.336.798-.756v-28.266a.826.826 0 0 0-.798-.798h-2.688a.797.797 0 0 0-.798.798v19.866h-.042L268.95 165.18h-1.05c-.42 0-.798.336-.798.756v28.266zm29.303-13.86c0 8.4 6.762 15.078 15.12 15.078 6.09 0 10.416-2.772 10.416-2.772.168-.126.336-.462.336-.672 0-3.36-.042-6.804-.042-10.164 0-.42-.336-.798-.756-.798h-7.644a.772.772 0 0 0-.798.798v2.436c0 .42.336.756.798.756h4.116v4.704c-.42.168-2.814 1.428-6.3 1.428-5.964 0-10.542-5.04-10.542-10.878 0-5.88 4.578-10.92 10.542-10.92 2.562 0 5.166 1.134 7.14 2.856.42.378.756.42 1.092.042.63-.672 1.26-1.302 1.89-1.974.336-.336.294-.84-.042-1.176-2.856-2.436-6.174-3.906-10.206-3.906-8.358 0-15.12 6.762-15.12 15.162zm31.361 13.86c0 .42.336.798.798.798h14.952a.797.797 0 0 0 .798-.798v-2.31a.797.797 0 0 0-.798-.798h-11.382v-24.696a.826.826 0 0 0-.798-.798h-2.772a.797.797 0 0 0-.798.798v27.804zm19.853 0c0 .42.378.798.798.798h2.772c.42 0 .798-.378.798-.798v-27.804a.826.826 0 0 0-.798-.798h-2.772a.826.826 0 0 0-.798.798v27.804zm9.773-2.1c.672.63 3.906 3.318 9.03 3.318 5.46 0 9.366-3.57 9.366-7.938 0-5.124-4.158-7.434-9.03-9.408-3.486-1.428-5.334-2.898-5.334-5.292 0-1.554 1.218-3.78 4.746-3.78 2.436 0 5.376 1.932 5.67 2.1.588.378 1.134.126 1.47-.42.336-.504.714-1.092 1.05-1.596a.998.998 0 0 0-.252-1.428c-.42-.294-3.57-2.478-7.77-2.478-6.678 0-9.198 4.494-9.198 7.77 0 4.872 3.36 7.098 7.644 8.904 4.158 1.722 6.342 3.318 6.342 5.838 0 2.142-1.848 3.906-4.746 3.906-3.234 0-6.468-2.688-6.72-2.898-.462-.378-1.05-.21-1.428.336-.378.546-.714 1.176-1.092 1.722-.42.714-.126 1.008.252 1.344zm23.087 2.1c0 .42.378.798.798.798h2.772a.797.797 0 0 0 .798-.798v-12.138h15.372v12.138c0 .42.336.798.798.798h2.772c.42 0 .798-.378.798-.798v-27.804a.826.826 0 0 0-.798-.798h-2.772a.797.797 0 0 0-.798.798v11.718h-15.372v-11.718a.797.797 0 0 0-.798-.798h-2.772a.826.826 0 0 0-.798.798v27.804zm39.286 0c0 .42.336.798.798.798h14.952a.797.797 0 0 0 .798-.798v-2.31a.797.797 0 0 0-.798-.798h-11.382v-24.696a.826.826 0 0 0-.798-.798h-2.772a.797.797 0 0 0-.798.798v27.804zm19.853 0c0 .42.336.798.798.798h16.8a.797.797 0 0 0 .798-.798v-2.31a.797.797 0 0 0-.798-.798h-13.272v-9.03h11.214c.42 0 .798-.336.798-.798v-2.352a.826.826 0 0 0-.798-.798h-11.214v-8.568h13.272a.797.797 0 0 0 .798-.798v-2.352a.797.797 0 0 0-.798-.798h-16.8a.797.797 0 0 0-.798.798v27.804zm21.995-2.1c.672.63 3.906 3.318 9.03 3.318 5.46 0 9.366-3.57 9.366-7.938 0-5.124-4.158-7.434-9.03-9.408-3.486-1.428-5.334-2.898-5.334-5.292 0-1.554 1.218-3.78 4.746-3.78 2.436 0 5.376 1.932 5.67 2.1.588.378 1.134.126 1.47-.42.336-.504.714-1.092 1.05-1.596a.998.998 0 0 0-.252-1.428c-.42-.294-3.57-2.478-7.77-2.478-6.678 0-9.198 4.494-9.198 7.77 0 4.872 3.36 7.098 7.644 8.904 4.158 1.722 6.342 3.318 6.342 5.838 0 2.142-1.848 3.906-4.746 3.906-3.234 0-6.468-2.688-6.72-2.898-.462-.378-1.05-.21-1.428.336-.378.546-.714 1.176-1.092 1.722-.42.714-.126 1.008.252 1.344zm21.449 0c.672.63 3.906 3.318 9.03 3.318 5.46 0 9.366-3.57 9.366-7.938 0-5.124-4.158-7.434-9.03-9.408-3.486-1.428-5.334-2.898-5.334-5.292 0-1.554 1.218-3.78 4.746-3.78 2.436 0 5.376 1.932 5.67 2.1.588.378 1.134.126 1.47-.42.336-.504.714-1.092 1.05-1.596a.998.998 0 0 0-.252-1.428c-.42-.294-3.57-2.478-7.77-2.478-6.678 0-9.198 4.494-9.198 7.77 0 4.872 3.36 7.098 7.644 8.904 4.158 1.722 6.342 3.318 6.342 5.838 0 2.142-1.848 3.906-4.746 3.906-3.234 0-6.468-2.688-6.72-2.898-.462-.378-1.05-.21-1.428.336-.378.546-.714 1.176-1.092 1.722-.42.714-.126 1.008.252 1.344zm20.945-11.76c0-8.4 6.678-15.162 15.078-15.162 8.4 0 15.12 6.762 15.12 15.162 0 8.4-6.72 15.078-15.12 15.078-8.4 0-15.078-6.678-15.078-15.078zm4.2 0c0 6.006 4.914 10.878 10.878 10.878 6.006 0 10.92-4.872 10.92-10.878 0-5.964-4.914-10.962-10.92-10.962-5.964 0-10.878 4.998-10.878 10.962zm30.899 13.86c0 .42.378.798.798.798h2.646a.797.797 0 0 0 .798-.798v-20.454h.042l18.228 21.672h1.092c.42 0 .798-.336.798-.756v-28.266a.826.826 0 0 0-.798-.798h-2.688a.797.797 0 0 0-.798.798v19.866h-.042l-18.228-21.084h-1.05c-.42 0-.798.336-.798.756v28.266zm29.807-2.1c.672.63 3.906 3.318 9.03 3.318 5.46 0 9.366-3.57 9.366-7.938 0-5.124-4.158-7.434-9.03-9.408-3.486-1.428-5.334-2.898-5.334-5.292 0-1.554 1.218-3.78 4.746-3.78 2.436 0 5.376 1.932 5.67 2.1.588.378 1.134.126 1.47-.42.336-.504.714-1.092 1.05-1.596a.998.998 0 0 0-.252-1.428c-.42-.294-3.57-2.478-7.77-2.478-6.678 0-9.198 4.494-9.198 7.77 0 4.872 3.36 7.098 7.644 8.904 4.158 1.722 6.342 3.318 6.342 5.838 0 2.142-1.848 3.906-4.746 3.906-3.234 0-6.468-2.688-6.72-2.898-.462-.378-1.05-.21-1.428.336-.378.546-.714 1.176-1.092 1.722-.42.714-.126 1.008.252 1.344zm-366.552-50.03V25c0-13.809-11.189-25-24.99-25H24.99C11.186 0 0 11.193 0 25v133.6c0 13.81 9.33 31.18 20.839 38.803 0 0 14.06 12.056 54.89 27.406 12.417 5.511 24.77 18.894 24.941 18.894.174 0 12.312-13.674 25.148-19.316 37.952-15.317 55.226-27.713 55.226-27.713 4.59-2.748 8.822-7.006 12.285-11.996.066-.586-.275-1.77-4.09-1.77H160.65c-1.945 0-2.841.028-3.442.166-6.524 3.621-18.955 10.023-37.423 17.477-9.715 4.27-18.084 10.258-18.216 10.258-.129 0-10.298-5.767-19.697-9.94-30.905-11.618-42.593-20.483-42.593-20.483-7.031-4.377-12.731-14.633-12.731-22.929V41.331c0-8.286 6.72-15.003 14.996-15.003h119.112c8.282 0 14.997 6.707 14.997 15.003v91.406h-.013s0 5.072-3.617 5.072h-23.028c-5.435 0-6.796-6.156-6.796-8.164V85.989c0-2.42-1.984-4.18-4.187-4.18h-16.748c-3.526 0-4.848.88-4.848 4.18v36.76c-1.322 7.92-8.374 16.5-17.63 16.5-10.136 0-16.086-7.26-16.086-18.92v-61.34c0-2.42-1.983-4.18-4.187-4.18h-18.07c-2.203 0-4.186 1.76-4.186 4.18v60.68c0 22.44 9.916 43.34 37.241 43.34 17.409 0 25.562-9.24 29.529-12.76l2.644 7.26c.661 1.76 1.984 3.3 4.187 3.3h8.154c.33 0 37.642.08 55.225.057 5.355-.008 7.176-1.656 7.27-1.688.208-.072 1.974-1.53 1.967-5.723a935.156 935.156 0 0 0-.113-11.383zm32.964-28.122c0 15.3 6.75 29.55 25.35 29.55 11.85 0 17.4-6.3 20.1-8.7l1.8 4.95c.45 1.2 1.35 2.25 2.85 2.25h5.55c1.5 0 2.85-1.35 2.85-2.85v-54.3c0-1.65-1.35-2.85-2.85-2.85h-11.4c-2.4 0-3.3.6-3.3 2.85v31.2c-.9 5.4-5.7 11.25-12 11.25-6.9 0-10.95-4.95-10.95-12.9V84.85c0-1.65-1.35-2.85-2.85-2.85h-12.3c-1.5 0-2.85 1.2-2.85 2.85v29.1zm73.54 25.2c0 1.5 1.35 2.85 2.85 2.85h12.75c1.5 0 2.85-1.35 2.85-2.85V113.8l23.7 27c.45.6 1.65 1.2 2.55 1.2h16.2c2.55 0 3.45-2.55 1.95-4.2l-26.7-28.65 22.35-22.8c1.5-1.65.6-4.35-1.95-4.35h-13.65c-1.65 0-2.7.9-3.75 1.8l-20.7 21V39.85c0-1.5-1.35-2.85-2.85-2.85h-12.75c-1.5 0-2.85 1.35-2.85 2.85v99.3zm70.39 0c0 1.5 1.35 2.85 2.85 2.85h11.1c2.85 0 3.75-.75 3.75-2.85v-33c1.5-4.05 6.3-9.45 14.1-9.45 7.2 0 11.25 4.95 11.25 12.75v29.7c0 1.5 1.2 2.85 2.85 2.85h12.3c1.5 0 2.85-1.35 2.85-2.85v-28.8c0-15.6-7.65-29.85-26.7-29.85-11.55 0-18.9 6.45-21.15 8.85l-2.1-5.55c-.45-1.05-1.2-1.8-2.55-1.8h-5.7c-1.5 0-2.85 1.2-2.85 2.85v54.3zm70.24-27.3c0-16.95 13.8-31.35 30.75-31.35s30.75 14.4 30.75 31.35c0 17.25-13.8 31.65-30.75 31.65s-30.75-14.4-30.75-31.65zm16.35 0c0 8.55 6.3 15.45 14.4 15.45 7.95 0 14.4-6.9 14.4-15.45 0-8.4-6.45-15.15-14.4-15.15-8.1 0-14.4 6.75-14.4 15.15zm67.99 30c.3.9 1.2 1.65 2.55 1.65h.75c1.2 0 1.95-.6 2.4-1.35l18.75-34.95h.15l18.9 34.95c.45.75 1.2 1.35 2.4 1.35h.6c1.5 0 2.4-.75 2.7-1.65l18.75-56.4c.75-1.95-.6-3.45-2.7-3.45h-9.75c-1.65 0-2.85.15-3.45 1.8l-9 26.85h-.15l-15.15-28.8c-.45-.75-1.05-1.35-2.4-1.35h-1.2c-1.35 0-2.1.75-2.4 1.35l-15.3 28.8h-.15l-9-26.85c-.3-1.05-1.8-1.8-2.7-1.8h-10.8c-2.1 0-3.45 1.5-2.55 3.45l18.75 56.4z" fill="#FFF" fill-rule="evenodd"/></svg>