<svg width="242" height="98" viewBox="0 0 242 98" xmlns="http://www.w3.org/2000/svg"><title>logo_white_medium</title><path d="M97.873 77.66c0 .169.135.32.32.32h6.754a.32.32 0 0 0 .321-.32v-.923a.32.32 0 0 0-.32-.32h-5.336v-3.61h4.508a.32.32 0 0 0 .32-.32v-.94a.331.331 0 0 0-.32-.319h-4.508v-3.426h5.335a.32.32 0 0 0 .321-.32v-.94a.32.32 0 0 0-.32-.319h-6.754a.32.32 0 0 0-.321.32V77.66zm9.5 0c0 .169.152.32.321.32h1.064a.32.32 0 0 0 .32-.32v-8.179h.017l7.328 8.667h.439c.169 0 .32-.134.32-.302V66.542a.331.331 0 0 0-.32-.319h-1.08a.32.32 0 0 0-.321.32v7.943h-.017l-7.328-8.431h-.422c-.169 0-.32.134-.32.302v11.304zm11.78-5.542c0 3.36 2.718 6.03 6.078 6.03 2.448 0 4.187-1.109 4.187-1.109a.414.414 0 0 0 .135-.268c0-1.344-.017-2.721-.017-4.065 0-.168-.135-.319-.304-.319h-3.072a.31.31 0 0 0-.321.32v.973c0 .168.135.303.32.303h1.655v1.88c-.169.068-1.131.572-2.532.572-2.398 0-4.238-2.016-4.238-4.35 0-2.352 1.84-4.367 4.238-4.367 1.03 0 2.076.453 2.87 1.142.169.151.304.168.439.017.253-.27.506-.521.76-.79.135-.134.118-.336-.017-.47-1.148-.974-2.482-1.562-4.103-1.562a6.062 6.062 0 0 0-6.078 6.063zm12.607 5.543a.32.32 0 0 0 .32.319h6.011a.32.32 0 0 0 .321-.32v-.923a.32.32 0 0 0-.32-.32h-4.576v-9.875a.331.331 0 0 0-.321-.319h-1.114a.32.32 0 0 0-.321.32V77.66zm7.98 0c0 .168.152.319.321.319h1.115c.168 0 .32-.151.32-.32V66.543a.331.331 0 0 0-.32-.319h-1.115a.331.331 0 0 0-.32.32V77.66zm3.93-.84c.27.252 1.57 1.327 3.63 1.327 2.194 0 3.764-1.428 3.764-3.174 0-2.05-1.671-2.973-3.63-3.763-1.401-.57-2.144-1.159-2.144-2.116 0-.621.49-1.512 1.908-1.512.98 0 2.161.773 2.28.84.236.151.455.05.59-.168.135-.201.287-.436.422-.638a.398.398 0 0 0-.101-.571c-.169-.118-1.435-.991-3.124-.991-2.684 0-3.697 1.797-3.697 3.107 0 1.948 1.35 2.839 3.073 3.56 1.671.69 2.55 1.328 2.55 2.335 0 .857-.744 1.562-1.909 1.562-1.3 0-2.6-1.074-2.701-1.158-.186-.152-.422-.084-.574.134-.152.218-.287.47-.44.689-.168.285-.05.403.102.537zm9.28.84c0 .168.152.319.32.319h1.115a.32.32 0 0 0 .321-.32v-4.853h6.18v4.854c0 .168.134.319.32.319h1.115c.168 0 .32-.151.32-.32V66.543a.331.331 0 0 0-.32-.319h-1.115a.32.32 0 0 0-.32.32v4.685h-6.18v-4.686a.32.32 0 0 0-.32-.319h-1.115a.331.331 0 0 0-.321.32V77.66zm15.793 0a.32.32 0 0 0 .32.319h6.011a.32.32 0 0 0 .32-.32v-.923a.32.32 0 0 0-.32-.32H170.5v-9.875a.331.331 0 0 0-.321-.319h-1.114a.32.32 0 0 0-.321.32V77.66zm7.98 0a.32.32 0 0 0 .321.319h6.754a.32.32 0 0 0 .32-.32v-.923a.32.32 0 0 0-.32-.32h-5.335v-3.61h4.508a.32.32 0 0 0 .32-.32v-.94a.331.331 0 0 0-.32-.319h-4.508v-3.426h5.335a.32.32 0 0 0 .32-.32v-.94a.32.32 0 0 0-.32-.319h-6.754a.32.32 0 0 0-.32.32V77.66zm8.842-.84c.27.252 1.57 1.327 3.63 1.327 2.195 0 3.765-1.428 3.765-3.174 0-2.05-1.671-2.973-3.63-3.763-1.4-.57-2.144-1.159-2.144-2.116 0-.621.49-1.512 1.908-1.512.98 0 2.161.773 2.28.84.236.151.455.05.59-.168.135-.201.287-.436.422-.638a.398.398 0 0 0-.1-.571c-.17-.118-1.436-.991-3.124-.991-2.685 0-3.698 1.797-3.698 3.107 0 1.948 1.35 2.839 3.073 3.56 1.671.69 2.55 1.328 2.55 2.335 0 .857-.744 1.562-1.909 1.562-1.3 0-2.6-1.074-2.7-1.158-.187-.152-.423-.084-.575.134-.152.218-.287.47-.439.689-.169.285-.05.403.101.537zm8.623 0c.27.252 1.57 1.327 3.63 1.327 2.195 0 3.765-1.428 3.765-3.174 0-2.05-1.672-2.973-3.63-3.763-1.402-.57-2.144-1.159-2.144-2.116 0-.621.49-1.512 1.907-1.512.98 0 2.162.773 2.28.84.236.151.456.05.59-.168.136-.201.288-.436.423-.638a.398.398 0 0 0-.102-.571c-.168-.118-1.435-.991-3.123-.991-2.685 0-3.698 1.797-3.698 3.107 0 1.948 1.351 2.839 3.073 3.56 1.672.69 2.55 1.328 2.55 2.335 0 .857-.743 1.562-1.908 1.562-1.3 0-2.6-1.074-2.702-1.158-.185-.152-.422-.084-.574.134-.152.218-.287.47-.439.689-.168.285-.05.403.102.537zm8.42-4.703a6.037 6.037 0 0 1 6.06-6.063 6.051 6.051 0 0 1 6.079 6.063c0 3.36-2.702 6.03-6.078 6.03-3.377 0-6.062-2.67-6.062-6.03zm1.688 0c0 2.402 1.975 4.35 4.373 4.35 2.414 0 4.39-1.948 4.39-4.35 0-2.385-1.976-4.383-4.39-4.383-2.398 0-4.373 1.998-4.373 4.383zm12.421 5.543c0 .168.152.319.32.319h1.065a.32.32 0 0 0 .32-.32v-8.179h.017l7.328 8.667h.439c.169 0 .32-.134.32-.302V66.542a.331.331 0 0 0-.32-.319h-1.08a.32.32 0 0 0-.322.32v7.943h-.017l-7.327-8.431h-.422c-.169 0-.321.134-.321.302v11.304zm11.982-.84c.27.252 1.57 1.327 3.63 1.327 2.195 0 3.765-1.428 3.765-3.174 0-2.05-1.671-2.973-3.63-3.763-1.401-.57-2.144-1.159-2.144-2.116 0-.621.49-1.512 1.908-1.512.98 0 2.161.773 2.28.84.236.151.455.05.59-.168.135-.201.287-.436.422-.638a.398.398 0 0 0-.101-.571c-.169-.118-1.435-.991-3.124-.991-2.684 0-3.697 1.797-3.697 3.107 0 1.948 1.35 2.839 3.073 3.56 1.671.69 2.55 1.328 2.55 2.335 0 .857-.744 1.562-1.909 1.562-1.3 0-2.6-1.074-2.701-1.158-.186-.152-.422-.084-.574.134-.152.218-.287.47-.439.689-.169.285-.05.403.101.537zM81.348 56.814V7.997C81.348 3.591 77.764 0 73.344 0H8.004A7.994 7.994 0 0 0 0 7.997v57.427c0 4.406 2.975 9.988 6.645 12.445 0 0 7.384 5.893 23.798 12.031 4.991 2.204 9.957 7.556 10.026 7.556.07 0 4.95-5.468 10.109-7.724 15.257-6.126 23.955-12.11 23.955-12.11 1.535-.927 2.946-2.383 4.081-4.08-.159-.202-.567-.398-1.553-.398H64.58c-.782 0-1.143.012-1.384.066-2.636 1.455-7.638 4.016-15.044 6.99-3.906 1.707-7.27 4.102-7.323 4.102-.052 0-4.14-2.306-7.918-3.975-12.424-4.646-17.143-8.204-17.143-8.204-2.815-1.743-5.097-5.839-5.097-9.163V16.535c0-3.317 2.692-6.006 5.994-6.006h47.951a5.996 5.996 0 0 1 5.994 6.006v36.546h-.005s0 2.028-1.454 2.028h-9.257c-2.185 0-2.732-2.461-2.732-3.264V34.387c0-.968-.797-1.672-1.683-1.672h-6.733c-1.417 0-1.949.352-1.949 1.672v14.7c-.531 3.167-3.366 6.598-7.086 6.598-4.075 0-6.467-2.903-6.467-7.566V23.59c0-.967-.797-1.671-1.683-1.671h-7.264c-.886 0-1.683.704-1.683 1.671v24.266c0 8.974 3.986 17.332 14.97 17.332 6.999 0 10.276-3.695 11.871-5.103l1.063 2.903c.266.704.797 1.32 1.683 1.32h3.278c.133 0 15.132.032 22.2.023 2.153-.003 2.885-.662 2.922-.675.084-.029.794-.612.791-2.289a372.017 372.017 0 0 0-.045-4.552zM94.6 45.568c0 6.119 2.713 11.817 10.19 11.817 4.763 0 6.994-2.52 8.08-3.479l.723 1.98c.181.48.543.9 1.146.9h2.231c.603 0 1.146-.54 1.146-1.14V33.93c0-.66-.543-1.14-1.146-1.14h-4.583c-.964 0-1.326.24-1.326 1.14v12.477c-.362 2.16-2.292 4.499-4.824 4.499-2.774 0-4.402-1.98-4.402-5.159V33.931c0-.66-.543-1.14-1.146-1.14h-4.944c-.603 0-1.146.48-1.146 1.14v11.637zm29.562 10.078c0 .6.542 1.14 1.145 1.14h5.126c.603 0 1.146-.54 1.146-1.14V45.508l9.527 10.798c.18.24.663.48 1.025.48h6.512c1.025 0 1.387-1.02.784-1.68l-10.733-11.457 8.984-9.118c.603-.66.242-1.74-.784-1.74h-5.487c-.663 0-1.085.36-1.507.72l-8.321 8.398V15.936c0-.6-.543-1.14-1.146-1.14h-5.126c-.603 0-1.145.54-1.145 1.14v39.71zm28.296 0c0 .6.543 1.14 1.146 1.14h4.462c1.146 0 1.507-.3 1.507-1.14V42.449c.603-1.62 2.533-3.779 5.668-3.779 2.895 0 4.523 1.98 4.523 5.099v11.877c0 .6.482 1.14 1.146 1.14h4.944c.603 0 1.146-.54 1.146-1.14V44.129c0-6.239-3.075-11.937-10.733-11.937-4.643 0-7.598 2.58-8.503 3.539l-.844-2.22c-.18-.42-.482-.72-1.025-.72h-2.291c-.603 0-1.146.48-1.146 1.14v21.715zm28.236-10.918c0-6.778 5.548-12.536 12.361-12.536 6.814 0 12.362 5.758 12.362 12.536 0 6.899-5.548 12.657-12.362 12.657-6.813 0-12.36-5.758-12.36-12.657zm6.573 0c0 3.42 2.532 6.179 5.788 6.179 3.196 0 5.79-2.76 5.79-6.179 0-3.359-2.594-6.058-5.79-6.058-3.256 0-5.788 2.7-5.788 6.058zm27.331 11.997c.12.36.483.66 1.025.66h.302c.482 0 .784-.24.965-.54l7.537-13.976h.06l7.598 13.976c.18.3.482.54.965.54h.24c.604 0 .966-.3 1.086-.66l7.538-22.554c.301-.78-.242-1.38-1.086-1.38h-3.92c-.662 0-1.145.06-1.386.72l-3.618 10.738h-.06l-6.09-11.517c-.181-.3-.423-.54-.965-.54h-.483c-.542 0-.844.3-.964.54l-6.15 11.517h-.061l-3.618-10.738c-.12-.42-.724-.72-1.086-.72h-4.341c-.844 0-1.387.6-1.025 1.38l7.537 22.554z" fill="#FFF" fill-rule="evenodd"/></svg>