<svg width="150" height="150" viewBox="0 0 150 150" xmlns="http://www.w3.org/2000/svg"><title>trophy</title><g fill="none"><path d="M75 0c41.421 0 75 33.579 75 75s-33.579 75-75 75S0 116.421 0 75 33.579 0 75 0z" fill="#1A91A1"/><path d="M59.725 21.772c-1.583-1.258-3.577-2.237-5.338-3.1-1.051-.516-2.044-1.003-2.768-1.464-1.682-1.072-2.908-3.816-2.734-6.116.075-.985.447-2.282 1.797-2.879 1.436-.634 2.517.508 2.873.884.747.79 1.402 1.938 1.794 3.151.297.917.347 1.566.316 1.91a1.121 1.121 0 0 0-.523 2.169c.923.315 1.772.084 2.284-.616.763 2.356 1.713 4.536 2.816 6.497a10.468 10.468 0 0 0-.518-.439l.001.003zM75 62.307h9.375v-.983c-2.755-.178-6.354-6.341-6.57-9.673l-1.24-19.08c4.132-.512 7.908-3.029 10.93-6.934-.12.464-.177.943-.174 1.436.008 1.53.847 2.832 2.242 3.487a4.293 4.293 0 0 0 1.817.406c.935 0 1.853-.31 2.58-.91 1.62-1.335 1.796-3.005 1.132-3.963-.562-.812-1.583-1.016-2.486-.498a1.12 1.12 0 0 0 .495 2.09c-.097.177-.269.399-.566.644-.532.438-1.344.52-2.02.203-.355-.165-.948-.577-.953-1.47-.007-1.262.661-2.386 2.106-3.536 1.391-1.107 3.272-2.028 4.93-2.841 1.108-.543 2.157-1.057 2.986-1.585 1.164-.741 2.19-2.001 2.887-3.544.679-1.505.99-3.15.878-4.632-.17-2.253-1.281-3.943-3.126-4.758-1.99-.88-4.094-.219-5.77 1.81a5.032 5.032 0 0 0-.18.224c.285-2.073.437-4.222.444-6.425H55.285A48.68 48.68 0 0 0 55.73 8.2a7.417 7.417 0 0 0-.179-.225c-1.676-2.028-3.78-2.687-5.77-1.809-1.845.815-2.956 2.505-3.126 4.758-.113 1.483.198 3.127.876 4.632.697 1.544 1.722 2.802 2.887 3.544.83.528 1.876 1.042 2.986 1.585 1.66.813 3.539 1.733 4.93 2.841 1.445 1.15 2.113 2.274 2.106 3.536-.005.893-.599 1.304-.952 1.47-.677.318-1.489.235-2.022-.203-.296-.245-.47-.467-.567-.643a1.12 1.12 0 0 0 .494-2.09c-.9-.519-1.924-.315-2.486.497-.664.958-.487 2.628 1.135 3.964a4.048 4.048 0 0 0 2.579.909c.614 0 1.235-.134 1.817-.406 1.395-.654 2.233-1.957 2.242-3.487a5.622 5.622 0 0 0-.175-1.436c3.023 3.906 6.799 6.422 10.931 6.934l-1.24 19.08c-.216 3.332-3.816 9.495-6.57 9.673v.983H75zm15.273-40.535c-.182.145-.352.291-.517.439 1.103-1.961 2.051-4.141 2.816-6.497.514.7 1.362.931 2.284.616a1.12 1.12 0 0 0-.521-2.17c-.03-.343.019-.993.315-1.909.392-1.213 1.047-2.362 1.794-3.151.356-.375 1.436-1.518 2.873-.884 1.349.596 1.722 1.893 1.797 2.878.174 2.3-1.052 5.045-2.734 6.117-.722.461-1.715.948-2.767 1.464-1.76.863-3.756 1.84-5.34 3.1v-.003z" fill="#FBB429"/><path d="M90.587 1.773s3.825 25.895-14.725 30.469L77 51.618c-.046 5.154 4.188 10.69 7.376 10.69v-.983c-2.755-.177-6.354-6.34-6.57-9.672l-1.24-19.081c4.108-.509 7.863-2.999 10.879-6.867a.425.425 0 0 1 .053-.068s1.444-1.694 2.515-3.65c-.087.075-.172.148-.256.224.314-.558.616-1.134.904-1.727.966-2.299 1.911-4.77 1.911-4.77.57-1.82 1.33-4.867 1.7-7.516a48.34 48.34 0 0 0 .443-6.425h-4.128z" fill="#F5A209"/><path d="M88.506 79.441H61.493v-15.15c0-1.092.891-1.984 1.983-1.984h23.046c1.092 0 1.984.892 1.984 1.984v15.15z" fill="#666"/><path d="M91.01 82.502H58.987v-2.56c0-.996.808-1.803 1.802-1.803h28.417c.995 0 1.802.807 1.802 1.803v2.56z" fill="#807D7D"/><path d="M95.198 1.773H54.802a.876.876 0 0 1-.877-.877V.878c0-.484.392-.877.877-.877h40.397c.484 0 .877.393.877.877v.018a.877.877 0 0 1-.878.877z" fill="#FBB429"/><path d="M68.54 67.708h12.819v1.22H68.54zm0 2.835h12.819v1.22H68.54zm2.625 2.833h7.57v1.22h-7.57z" fill="#807D7D"/><path d="M28.316 102.784h84.533v2.851c-4.003 5.102-3.341 10.777 0 15.029v2.85H28.316c-13.206 0-13.207-20.728 0-20.728v-.002z" fill="#20D0C2"/><path d="M112.85 120.664c-3.412-5.01-3.67-10.02 0-15.029H28.315c-3.974 0-7.237 3.387-7.237 7.515 0 4.127 3.263 7.514 7.237 7.514h84.533z" fill="#FFF"/><g fill="#ECF0F1"><path d="M112.04 106.845c.245-.403.514-.806.81-1.211H28.315c-8.085 0-10.353 11.588-2.198 14.667-5.568-2.71-3.49-11.949 2.355-13.457h83.567v.001z"/><path d="M111.204 108.277H22.822a7.78 7.78 0 0 1 .519-.569h88.148c-.101.189-.196.378-.287.569h.002zm-89.12 1.069a7.3 7.3 0 0 0-.293.567h88.781c.057-.19.12-.379.188-.567H22.085zm-.695 1.637a7.902 7.902 0 0 0-.143.567h88.958c.027-.188.06-.378.097-.567H21.388h.001zm-.29 1.637a7.543 7.543 0 0 0-.02.53l.002.037h89.01c-.001-.188.005-.377.013-.567H21.098zm.06 1.636c.027.193.062.38.105.569h88.961a9.622 9.622 0 0 1-.073-.569H21.16zm.425 1.638c.075.193.156.383.244.568h88.779a11.947 11.947 0 0 1-.161-.568H21.584zm.866 1.637c.137.196.283.386.436.567h88.364c-.09-.188-.174-.378-.254-.567H22.45zm1.55 1.637c.27.209.553.398.848.567h87.331a16.397 16.397 0 0 1-.357-.567H24.001z"/></g><path d="M120.098 123.513H22.042v3.643c4.642 6.518 3.875 13.768 0 19.201V150h98.056c15.32 0 15.32-26.487 0-26.487z" fill="#FF5B61"/><path d="M22.042 146.357c3.958-6.4 4.257-12.8 0-19.2h98.057c4.612 0 8.394 4.326 8.394 9.6 0 5.273-3.784 9.6-8.394 9.6H22.042z" fill="#FFF"/><g fill="#ECF0F1"><path d="M22.98 128.703a21.945 21.945 0 0 0-.938-1.547H120.1c9.377 0 12.008 14.805 2.549 18.74 6.459-3.463 4.047-15.267-2.73-17.195H22.981l-.001.002z"/><path d="M23.95 130.53h102.52a9.463 9.463 0 0 0-.601-.726H23.619c.118.241.228.483.332.725zm103.377 1.366a9.9 9.9 0 0 1 .34.725H24.685a15.67 15.67 0 0 0-.218-.725h102.86zm.806 2.092c.064.238.12.48.165.725H25.109c-.03-.24-.069-.483-.113-.725h103.137zm.338 2.092c.014.225.022.45.022.677v.047H25.242c.001-.24-.003-.483-.014-.725h103.245l-.002.001zm-.07 2.092a12.04 12.04 0 0 1-.12.725H25.086c.036-.24.063-.483.086-.725H128.4zm-.493 2.092c-.085.246-.18.488-.282.725H24.644c.067-.24.13-.481.186-.725h103.078zm-1.004 2.092c-.158.25-.327.493-.506.726H23.9c.104-.24.201-.482.293-.726h102.711zm-1.8 2.092c-.31.267-.64.509-.982.725H22.82c.143-.24.281-.48.414-.725h101.87z"/></g><path d="M105.201 82.02h-65.27v2.851c3.09 5.102 2.58 10.775 0 15.027v2.851h65.27c10.197 0 10.197-20.729 0-20.729z" fill="#FBB429"/><path d="M39.93 99.898c2.635-5.01 2.834-10.019 0-15.027h65.272c3.07 0 5.588 3.387 5.588 7.514 0 4.127-2.519 7.513-5.588 7.513H39.93z" fill="#FFF"/><g fill="#ECF0F1"><path d="M40.555 86.081c-.19-.403-.396-.807-.625-1.21h65.272c6.242 0 7.994 11.587 1.697 14.667 4.3-2.71 2.694-11.948-1.817-13.457H40.555z"/><path d="M41.2 87.511h68.242a7.027 7.027 0 0 0-.4-.568H40.978c.077.19.151.378.22.568h.002zm68.813 1.07a8.9 8.9 0 0 1 .227.566H41.69c-.045-.19-.094-.377-.145-.567h68.468zm.537 1.637c.042.185.079.374.111.567H41.974c-.022-.19-.046-.378-.076-.567h68.652zm.225 1.637c.01.176.015.352.015.529v.038H42.06c.002-.188-.003-.378-.008-.567h68.724-.001zm-.046 1.637c-.022.19-.049.38-.08.567h-68.69c.023-.188.042-.378.057-.567h68.714-.001zm-.328 1.638a9.15 9.15 0 0 1-.188.566h-68.55c.045-.188.087-.376.125-.566h68.613zm-.67 1.637a7.884 7.884 0 0 1-.336.568h-68.23c.07-.188.135-.376.197-.568h68.37zm-1.197 1.637c-.207.208-.426.4-.654.568H40.448c.097-.188.189-.376.276-.568h67.81z"/></g></g></svg>