<svg width="200" height="200" viewBox="0 0 200 200" xmlns="http://www.w3.org/2000/svg"><title>repeat</title><g fill="none"><path d="M100 0c55.228 0 100 44.772 100 100s-44.772 100-100 100C44.771 200 0 155.229 0 100 0 44.772 44.772 0 100 0z" fill="#EB5A82"/><path fill="#FBB429" d="M117.51 121.363l35.664 50.49h-6.81L100 124.465z"/><path fill="#F5A209" d="M146.365 171.85L100 124.466l5.1-.904z"/><path fill="#FBB429" d="M82.492 121.363l-35.665 50.49h6.809L100 124.465l-17.508-3.103z"/><g fill="#F5A209"><path d="M53.635 171.85L100 124.466l-5.099-.904z"/><path d="M95.521 124.104h8.959l-1.882 66.305h-5.195l-1.881-66.305z"/></g><path d="M97.371 124.104h5.258l-1.104 66.305h-3.049l-1.105-66.305zM27.641 20.509H172.36c3.11 0 5.655 2.544 5.655 5.653v91.498H21.988V26.162c0-3.109 2.546-5.653 5.654-5.653z" fill="#FBB429"/><path fill="#FBAB08" d="M29.072 26.95H170.93v88.997H29.072z"/><path d="M15.325 114.32h169.35c.542 0 .982.442.982.983v13.11H14.344v-13.11c0-.541.442-.983.983-.983h-.002z" fill="#FBB429"/><path fill="#20D0C2" d="M30.901 28.576H169.1v85.744H30.9z"/><path fill="#F5A209" d="M14.344 125.932h171.312v2.48H14.344z"/><path fill="#0E7886" d="M127.083 109.888h36.164v4.432h-36.164z"/><path fill="#FF5B61" d="M127.083 109.888h36.164v-2.045h-36.164z"/><path d="M128.787 104.435h32.755a1.71 1.71 0 0 1 1.704 1.704v1.705h-36.164v-1.705a1.71 1.71 0 0 1 1.704-1.704zm-66.155-37.94c-.29.142-.845.451-1.669.928-1.805 1.03-2.952 1.579-3.44 1.656-.331.052-.61-.008-.818-.179a1.043 1.043 0 0 1-.377-.663c-.119-.76.128-1.39.75-1.886.62-.496 1.968-1.185 4.04-2.057 2.074-.877 3.33-1.348 3.775-1.418.671-.105 1.059.146 1.156.767.07.445-.066 1.103-.406 1.98-.813 2.056-1.662 5.372-2.55 9.951-.889 4.575-1.312 8.218-1.26 10.933.008.42-.13.765-.411 1.03a1.975 1.975 0 0 1-1.065.499c-.955.15-1.5-.21-1.637-1.075-.222-1.42.105-4.473.975-9.164.872-4.69 1.85-8.455 2.937-11.303v.001zm16.221 7.722c-.163 3.016-.164 4.99-.015 5.933.048.305-.108.585-.46.84a2.596 2.596 0 0 1-1.118.476c-.434.07-.8.013-1.106-.161-.307-.175-.482-.424-.533-.746-.183-1.159-.17-3.073.046-5.738-1.32.23-2.632.515-3.93.851-.64.169-1.077.272-1.306.308-.616.097-1.006-.398-1.176-1.481-.067-.421.179-.807.738-1.151.561-.344 2.557-.81 5.983-1.407.51-3.843.874-6.009 1.094-6.494.225-.484.618-.768 1.184-.857.888-.14 1.364.002 1.43.423.036.228.014.584-.08 1.075-.088.493-.283 2.25-.587 5.272 2.036-.382 3.72-.682 5.038-.888.85-.134 1.337.22 1.47 1.065.157 1-.386 1.595-1.634 1.792-1.409.221-3.09.52-5.039.888h.001zm14.361 4.809a26.45 26.45 0 0 1 1.533-.31c.909-.143 2.444-.289 4.604-.434 2.16-.147 3.81-.211 4.952-.21 1.148.001 1.87.063 2.163.194.298.125.55.317.761.58.206.257.338.556.389.877.043.272-.118.58-.48.934-.36.351-.718.556-1.079.614-.422.066-1.082.062-1.979-.009-1.52-.124-3.316-.12-5.388.017a63.164 63.164 0 0 0-5.74.619 8.93 8.93 0 0 0-2.37.736 4.213 4.213 0 0 1-1.325.459 1.112 1.112 0 0 1-.744-.133.819.819 0 0 1-.404-.62c-.158-.999.424-2.33 1.742-3.997 1.324-1.67 3.274-3.443 5.848-5.326 3.162-2.305 5.198-4.143 6.116-5.504.917-1.367 1.287-2.623 1.107-3.773-.166-1.054-.72-1.9-1.656-2.537-.942-.641-2.023-.863-3.25-.67-1.125.177-2.134.528-3.027 1.055-.896.528-1.713 1.367-2.453 2.518-.302.468-.613.727-.93.777a1.596 1.596 0 0 1-1.118-.244c-.36-.228-.564-.52-.622-.88-.174-1.105.537-2.303 2.124-3.586 1.595-1.293 3.567-2.12 5.93-2.49 2.026-.319 3.814.025 5.367 1.037 1.556 1.007 2.483 2.487 2.788 4.424.303 1.93-.156 3.822-1.383 5.674-1.22 1.852-3.71 4.062-7.454 6.642-1.605 1.104-2.942 2.294-4.022 3.566zM124.276 60.9c.844-.133 1.331.224 1.464 1.067.157.998-.386 1.595-1.628 1.79a145.93 145.93 0 0 0-6.026 1.095c-2.313.467-3.913.814-4.796 1.056-.64.163-1.08.267-1.306.302-.627.098-1.029-.39-1.2-1.477-.055-.355.096-.67.445-.94.354-.278.876-.502 1.574-.686.7-.178 2.445-.538 5.238-1.08 2.791-.54 4.87-.913 6.235-1.128v.001zm0 6.475c.839-.13 1.32.225 1.454 1.074.156.993-.37 1.588-1.585 1.778-1.714.27-3.732.639-6.058 1.107-2.325.462-3.935.816-4.83 1.054-.617.166-1.033.265-1.25.3-.643.099-1.044-.394-1.214-1.476-.059-.36.087-.673.431-.943.35-.27.871-.495 1.571-.678.699-.184 2.444-.544 5.242-1.08 2.797-.543 4.877-.922 6.241-1.136h-.002zm18.782-4.784c.975.234 1.81.744 2.513 1.52.707.776 1.126 1.592 1.261 2.452.358 2.274-.234 4.261-1.768 5.963-1.535 1.701-3.708 2.772-6.516 3.213-2.185.344-4.29.117-6.31-.686-2.019-.807-3.127-1.81-3.317-3.014-.066-.42.025-.822.266-1.207.235-.378.553-.604.94-.665.728-.115 1.241.038 1.539.446 1.567 1.981 3.759 2.757 6.577 2.313 1.97-.31 3.426-.992 4.364-2.045.942-1.052 1.306-2.252 1.093-3.595-.108-.693-.419-1.259-.925-1.69a3.32 3.32 0 0 0-1.697-.78c-.622-.088-1.731-.01-3.323.24-.427.066-.788-.025-1.089-.273a1.456 1.456 0 0 1-.534-.938c-.054-.345.051-.686.329-1.02.278-.327.694-.54 1.26-.63.41-.065.823-.119 1.237-.16l1.169-.081c.178-.028.712-.317 1.61-.863.89-.55 1.564-1.184 2-1.917.443-.73.598-1.516.465-2.358-.153-.976-.703-1.726-1.645-2.25-.947-.526-2.108-.68-3.495-.462-2.386.376-4.069 1.493-5.056 3.347-.26.52-.656.82-1.188.904-.411.065-.775-.009-1.086-.216-.311-.207-.495-.513-.562-.929-.15-.96.562-2.106 2.144-3.44 1.575-1.329 3.472-2.173 5.68-2.52 2.103-.33 3.952-.037 5.545.88 1.594.914 2.52 2.218 2.787 3.91.203 1.287-.065 2.512-.805 3.663-.74 1.156-1.897 2.117-3.464 2.886v.002h.001zm-46.895 47.694h25.28v4.035h-25.28v-4.035z" fill="#FFF"/><path fill="#ECF0F1" d="M96.163 113.425h25.28v.896h-25.28z"/></g></svg>