<svg width="241" height="241" viewBox="0 0 241 241" xmlns="http://www.w3.org/2000/svg"><title>repeat</title><g fill="none"><path d="M120.5 0C187.05 0 241 53.95 241 120.5S187.05 241 120.5 241C53.949 241 0 187.051 0 120.5 0 53.95 53.95 0 120.5 0z" fill="#EB5A82"/><path fill="#FBB429" d="M141.599 146.243l42.976 60.839h-8.206l-55.87-57.1z"/><path fill="#F5A209" d="M176.37 207.08l-55.87-57.1 6.145-1.089z"/><path fill="#FBB429" d="M99.403 146.243l-42.977 60.839h8.205l55.87-57.1-21.097-3.74h-.001z"/><g fill="#F5A209"><path d="M64.63 207.08l55.87-57.1-6.144-1.089z"/><path d="M115.103 149.545h10.795l-2.267 79.898h-6.26l-2.267-79.898z"/></g><path d="M117.332 149.545h6.336l-1.33 79.898h-3.674zM33.308 24.713h174.385c3.748 0 6.814 3.066 6.814 6.812V141.78H26.496V31.525c0-3.746 3.067-6.812 6.813-6.812z" fill="#FBB429"/><path fill="#FBAB08" d="M35.032 32.474H205.97v107.242H35.032z"/><path d="M18.467 137.756h204.067c.652 0 1.183.532 1.183 1.184v15.797H17.285V138.94c0-.652.532-1.184 1.184-1.184h-.002z" fill="#FBB429"/><path fill="#20D0C2" d="M37.236 34.434h166.528v103.322H37.236z"/><path fill="#F5A209" d="M17.284 151.748h206.432v2.988H17.284z"/><path fill="#0E7886" d="M153.135 132.415h43.578v5.34h-43.578z"/><path fill="#FF5B61" d="M153.135 132.415h43.578v-2.464h-43.578z"/><path d="M155.188 125.844h39.47a2.06 2.06 0 0 1 2.054 2.054v2.054h-43.578v-2.054a2.06 2.06 0 0 1 2.053-2.054h.001zM75.471 80.127c-.35.171-1.018.543-2.01 1.118-2.176 1.24-3.558 1.902-4.145 1.995-.4.063-.735-.009-.987-.215a1.257 1.257 0 0 1-.454-.8c-.143-.915.155-1.675.903-2.272.748-.598 2.372-1.428 4.87-2.479 2.498-1.057 4.012-1.624 4.548-1.709.809-.126 1.276.176 1.393.925.084.536-.08 1.329-.489 2.385-.98 2.478-2.003 6.474-3.074 11.992-1.07 5.513-1.58 9.902-1.517 13.174.01.505-.158.922-.496 1.242-.347.322-.775.52-1.283.6-1.15.18-1.807-.252-1.972-1.295-.268-1.711.126-5.39 1.175-11.043 1.05-5.652 2.228-10.188 3.538-13.62v.002zm19.547 9.305c-.196 3.634-.198 6.012-.018 7.149.058.367-.13.705-.554 1.012-.432.308-.874.5-1.348.574-.523.083-.964.015-1.333-.195-.369-.21-.58-.51-.642-.898-.22-1.397-.205-3.703.056-6.915a59.98 59.98 0 0 0-4.736 1.026c-.77.203-1.298.328-1.574.371-.742.117-1.212-.48-1.417-1.785-.08-.507.216-.972.89-1.387.676-.414 3.081-.976 7.209-1.695.615-4.631 1.053-7.241 1.318-7.825.272-.583.745-.926 1.427-1.033 1.07-.168 1.644.002 1.724.51.043.274.016.703-.098 1.295-.105.594-.34 2.712-.707 6.353 2.454-.46 4.482-.822 6.071-1.07 1.024-.162 1.611.266 1.772 1.283.189 1.204-.466 1.922-1.969 2.16-1.698.266-3.724.627-6.072 1.07h.001zm17.305 5.794c.8-.18 1.418-.305 1.847-.373 1.095-.173 2.945-.348 5.548-.523 2.603-.177 4.59-.255 5.967-.254 1.384.002 2.253.077 2.606.235.36.15.663.381.918.698.248.31.407.67.468 1.057.052.328-.142.7-.577 1.126-.434.423-.866.67-1.301.739-.509.08-1.304.075-2.385-.01-1.832-.15-3.996-.145-6.492.02a76.112 76.112 0 0 0-6.918.746 10.76 10.76 0 0 0-2.854.887 5.077 5.077 0 0 1-1.598.553 1.34 1.34 0 0 1-.896-.16c-.27-.157-.435-.405-.487-.747-.19-1.204.511-2.807 2.099-4.817 1.595-2.012 3.945-4.149 7.047-6.418 3.81-2.777 6.264-4.992 7.37-6.632 1.105-1.647 1.551-3.161 1.333-4.546-.2-1.27-.867-2.289-1.995-3.057-1.135-.773-2.438-1.04-3.916-.808-1.356.213-2.572.637-3.648 1.272-1.079.636-2.064 1.647-2.956 3.034-.363.564-.738.876-1.12.936-.467.074-.915-.027-1.347-.294-.434-.275-.68-.627-.75-1.06-.209-1.332.647-2.775 2.56-4.322 1.922-1.557 4.298-2.553 7.146-3 2.44-.384 4.595.03 6.466 1.25 1.876 1.213 2.992 2.996 3.36 5.33.365 2.326-.188 4.606-1.666 6.838-1.471 2.231-4.472 4.895-8.983 8.003-1.934 1.331-3.545 2.764-4.846 4.297zm37.43-21.841c1.016-.161 1.604.269 1.764 1.285.189 1.203-.466 1.922-1.962 2.158-2.053.323-4.472.758-7.261 1.319-2.788.562-4.716.981-5.78 1.272-.77.197-1.3.322-1.573.364-.756.118-1.24-.47-1.446-1.78-.067-.428.115-.806.536-1.133.426-.334 1.055-.604 1.897-.826.842-.215 2.946-.648 6.311-1.302 3.364-.651 5.869-1.1 7.514-1.359v.002zm0 7.802c1.01-.157 1.59.271 1.752 1.294.188 1.197-.446 1.913-1.91 2.142-2.066.325-4.497.77-7.3 1.334-2.802.557-4.742.984-5.82 1.271-.744.199-1.245.319-1.506.36-.775.12-1.259-.474-1.464-1.777-.07-.434.105-.811.52-1.137.421-.325 1.05-.596 1.893-.817.842-.222 2.945-.655 6.317-1.302 3.37-.654 5.876-1.11 7.52-1.368h-.002zm22.632-5.765c1.175.282 2.182.897 3.028 1.832.852.935 1.357 1.918 1.52 2.955.431 2.74-.283 5.134-2.131 7.185-1.849 2.05-4.468 3.34-7.852 3.872-2.633.414-5.17.14-7.603-.827-2.433-.973-3.768-2.181-3.997-3.632-.08-.507.03-.991.32-1.454.284-.456.667-.728 1.134-.802.876-.138 1.495.046 1.853.538 1.889 2.387 4.53 3.322 7.926 2.787 2.373-.373 4.128-1.196 5.258-2.464 1.136-1.268 1.574-2.714 1.318-4.332-.131-.835-.505-1.517-1.115-2.037-.607-.513-1.288-.831-2.045-.939-.75-.107-2.086-.013-4.004.288-.515.08-.95-.03-1.312-.328a1.754 1.754 0 0 1-.644-1.131c-.065-.416.062-.826.396-1.228.336-.395.837-.652 1.519-.759a25.372 25.372 0 0 1 1.49-.194l1.409-.098c.214-.033.858-.382 1.94-1.039 1.073-.662 1.885-1.427 2.411-2.31.533-.88.72-1.827.56-2.842-.185-1.176-.848-2.08-1.983-2.71-1.141-.635-2.54-.82-4.211-.558-2.875.453-4.903 1.799-6.093 4.034-.314.626-.79.988-1.431 1.089-.496.078-.934-.011-1.309-.26-.375-.25-.597-.619-.677-1.12-.181-1.156.677-2.538 2.583-4.146 1.898-1.6 4.184-2.618 6.845-3.036 2.534-.398 4.762-.044 6.682 1.06 1.92 1.102 3.037 2.673 3.358 4.712.244 1.551-.079 3.027-.97 4.414-.892 1.393-2.286 2.551-4.174 3.478v.002zm-56.508 57.471h30.462v4.863h-30.462z" fill="#FFF"/><path fill="#ECF0F1" d="M115.877 136.677h30.462v1.08h-30.462z"/></g></svg>