<svg width="140" height="140" viewBox="0 0 140 140" xmlns="http://www.w3.org/2000/svg"><title>sum</title><g fill="none"><path d="M70 140c38.555 0 70-31.445 70-70S108.555 0 70 0 0 31.445 0 70s31.445 70 70 70z" fill="#FFCA4F"/><path d="M101.102 117.587l-5.451-23.368s18.657-17.952 16.566-40.963c-2.093-23.011-25.28-37.48-48.816-31.207C39.866 28.321 35.97 47.175 35.86 50.27c-.112 3.093 2.787 11.003.694 16.408-2.092 5.405-9.585 13.86-8.889 16.388.698 2.526 7.147 2.962 7.147 2.962s.076 2.446-.782 2.964c-.858.52-.373 2.551 1.037 3.682 1.411 1.13 3.756 1.897 3.756 1.897s-2.703.61-2.353 2.527c.35 1.92 1.307 2.878 3.312 2.964 2.005.087 2.529-.868 2.877.177.348 1.044.567 1.131.567 1.131s-2.003 5.187-.26 9.022c1.745 3.836 4.446 3.838 7.585 3.052 3.138-.786 9.24-2.53 9.24-2.53l1.67 8.506c1.745 12.38-6.685 18.744-6.862 18.877a70.243 70.243 0 0 0 15.4 1.703c15.59 0 29.986-5.098 41.62-13.715-1.122-.542-10.117-8.299-10.517-8.699l.001.002z" fill="#FF5B61"/><path d="M43.542 111.467c1.736 2.752 4.196 2.68 7.01 1.977 3.137-.787 9.238-2.53 9.238-2.53l1.67 8.506c.596 4.224.006 7.748-1.035 10.563v-.001c5.828-8.315 1.53-14.67 2.298-17.826.767-3.155 12.963-6.14 15.521-8.101 2.558-1.962 4.39-7.377 4.39-7.377s-2.557 3.923-5.286 6.31c-2.729 2.39-23.921 8.613-27.972 9.977-3.845 1.296-5.661-1.238-5.835-1.498zM57.615 23.99c14.659-5.37 32.019-2.474 42.548 8.295 12.55 12.833 15.473 36.185-6.44 60.893l7.38 24.409-5.452-23.368s18.657-17.95 16.566-40.963c-2.092-23.011-25.279-37.48-48.814-31.207a47.517 47.517 0 0 0-5.786 1.94h-.002z" fill="#EC4B53"/><path d="M48.444 55.902c0-14.168 11.486-25.656 25.655-25.656 14.17 0 25.657 11.487 25.657 25.656 0 14.169-11.487 25.655-25.657 25.655-14.168 0-25.655-11.486-25.655-25.655z" fill="#FFF"/><path d="M74.1 55.902V32.121c13.134 0 23.78 10.647 23.78 23.781v.097l-23.78-.097z" fill="#DFE1E3"/><path d="M74.1 37.73a1.484 1.484 0 0 1 1.479 1.477v13.905a1.484 1.484 0 0 1-1.48 1.48 1.484 1.484 0 0 1-1.478-1.48V39.207c0-.813.665-1.478 1.478-1.478zm13.708 18.226a1.552 1.552 0 0 1-1.54 1.474l-9.143-.034a1.42 1.42 0 0 1-1.421-1.484 1.552 1.552 0 0 1 1.54-1.473l9.142.033a1.42 1.42 0 0 1 1.421 1.484h.001z" fill="#0E7886"/><g fill="#FFCA4F"><path d="M62.617 69.882l-.975-.886 11.83-13.01.973.884z"/><path d="M74.1 59.185a3.29 3.29 0 0 0 3.283-3.283 3.29 3.29 0 0 0-3.284-3.283 3.29 3.29 0 0 0-3.283 3.283 3.29 3.29 0 0 0 3.283 3.283z"/></g><path d="M74.1 57.59a1.69 1.69 0 0 0 1.687-1.688 1.69 1.69 0 0 0-1.688-1.687 1.69 1.69 0 0 0-1.687 1.687c0 .93.758 1.687 1.687 1.687z" fill="#FFF"/><path d="M73.528 36.17h1.141v-2.9h-1.141v2.898zM51.47 56.472V55.33h2.897v1.142H51.47zm23.2 22.06h-1.142v-2.898h1.141l.001 2.898zM96.73 55.33v1.142h-2.897V55.33h2.898z" fill="#0E7886"/><path d="M66.785 34.484l.644-.21.569 1.755-.642.21-.57-1.755h-.001zm-6.261 3.309l.548-.398 1.084 1.493-.547.398-1.085-1.493zm-4.93 5.08l.396-.546 1.493 1.084-.397.548-1.493-1.085zm-3.122 6.358l.21-.644 1.755.57-.21.645-1.754-.57-.001-.001zm.21 13.986l-.21-.643 1.756-.57.209.642-1.755.57zm3.309 6.26l-.398-.547 1.493-1.085.397.547-1.492 1.085zm5.08 4.932l-.547-.398 1.085-1.493.546.398-1.084 1.493zm6.357 3.12l-.644-.209.57-1.755.643.21-.57 1.754zm13.986-.209l-.643.21-.57-1.755.642-.21.57 1.755zm6.26-3.309l-.545.398-1.086-1.493.547-.397 1.085 1.493zm4.932-5.08l-.396.546-1.494-1.084.397-.548 1.493 1.085zm3.12-6.357l-.209.643-1.754-.57.208-.643 1.755.57zm-.209-13.987l.21.644-1.756.569-.21-.643 1.756-.57zm-3.307-6.26l.396.547-1.493 1.085-.397-.547 1.494-1.085zm-5.081-4.932l.546.398-1.085 1.493-.547-.398 1.086-1.493zm-6.358-3.12l.643.208-.57 1.756-.644-.21.57-1.754z" fill="#67696A"/></g></svg>