<svg width="150" height="150" viewBox="0 0 150 150" xmlns="http://www.w3.org/2000/svg"><title>management</title><g fill="none"><path d="M75 150c41.309 0 75-33.691 75-75S116.309 0 75 0 0 33.691 0 75s33.691 75 75 75z" fill="#FFCA4F"/><path d="M108.324 125.986l-5.841-25.037s19.99-19.234 17.75-43.889C117.99 32.405 93.146 16.902 67.93 23.624c-25.216 6.72-29.392 26.921-29.51 30.235-.12 3.315 2.986 11.79.744 17.581s-10.27 14.85-9.524 17.558c.748 2.707 7.658 3.174 7.658 3.174s.081 2.62-.838 3.176c-.92.556-.4 2.733 1.111 3.944 1.512 1.211 4.024 2.033 4.024 2.033s-2.896.654-2.521 2.708c.374 2.056 1.4 3.083 3.548 3.175 2.149.093 2.71-.93 3.083.19.373 1.118.608 1.212.608 1.212s-2.147 5.557-.279 9.666c1.87 4.11 4.763 4.112 8.127 3.27 3.362-.842 9.899-2.71 9.899-2.71l1.79 9.113c1.87 13.264-7.162 20.083-7.352 20.225a75.26 75.26 0 0 0 16.5 1.825c16.703 0 32.128-5.462 44.593-14.695-1.202-.58-10.84-8.891-11.268-9.32l.001.002z" fill="#FF5B61"/><path d="M46.652 119.429c1.86 2.948 4.496 2.872 7.51 2.118 3.362-.843 9.899-2.71 9.899-2.71l1.79 9.113c.638 4.526.005 8.301-1.11 11.317v-.001c6.244-8.909 1.64-15.718 2.462-19.099.822-3.38 13.889-6.578 16.63-8.68 2.741-2.102 4.704-7.903 4.704-7.903s-2.74 4.203-5.664 6.76c-2.924 2.56-25.63 9.229-29.97 10.69-4.12 1.388-6.066-1.327-6.252-1.605h.001zM61.73 25.702c15.706-5.753 34.306-2.65 45.588 8.888 13.445 13.75 16.578 38.77-6.9 65.243l7.907 26.152-5.842-25.037s19.99-19.233 17.75-43.889c-2.242-24.655-27.085-40.157-52.301-33.436a50.911 50.911 0 0 0-6.2 2.078h-.001z" fill="#EC4B53"/><path d="M51.904 59.895c0-15.18 12.307-27.489 27.488-27.489 15.182 0 27.489 12.308 27.489 27.489 0 15.181-12.307 27.488-27.489 27.488-15.18 0-27.488-12.307-27.488-27.488z" fill="#FFF"/><path d="M79.392 59.895v-25.48c14.073 0 25.48 11.408 25.48 25.48v.104l-25.48-.104z" fill="#DFE1E3"/><path d="M79.392 40.424a1.59 1.59 0 0 1 1.585 1.584v14.898a1.59 1.59 0 0 1-1.585 1.585 1.59 1.59 0 0 1-1.584-1.585V42.008c0-.872.713-1.584 1.584-1.584zM94.08 59.953a1.663 1.663 0 0 1-1.65 1.579l-9.796-.036a1.522 1.522 0 0 1-1.523-1.59 1.663 1.663 0 0 1 1.65-1.578l9.795.035a1.522 1.522 0 0 1 1.523 1.59z" fill="#0E7886"/><g fill="#FFCA4F"><path d="M67.09 74.874l-1.045-.95 12.674-13.94 1.044.948z"/><path d="M79.392 63.413a3.525 3.525 0 0 0 3.518-3.518 3.525 3.525 0 0 0-3.518-3.518 3.524 3.524 0 0 0-3.518 3.518 3.525 3.525 0 0 0 3.518 3.518z"/></g><path d="M79.392 61.703c.996 0 1.808-.812 1.808-1.808s-.812-1.808-1.808-1.808-1.808.812-1.808 1.808.812 1.808 1.808 1.808z" fill="#FFF"/><path d="M78.78 38.753h1.223v-3.105H78.78zM55.146 60.507v-1.224h3.104v1.224zm24.858 23.635H78.78v-3.105h1.223zm23.636-24.859v1.224h-3.105v-1.224z" fill="#0E7886"/><path d="M71.555 36.947l.69-.224.61 1.88-.688.225-.61-1.881h-.002zm-6.708 3.545l.587-.426 1.162 1.6-.586.426-1.163-1.6zm-5.283 5.444l.425-.586 1.6 1.162-.425.587zm-3.344 6.811l.225-.689 1.88.611-.224.69-1.88-.611zm.225 14.985l-.225-.688 1.881-.611.224.688zm3.545 6.708l-.426-.586 1.6-1.163.425.586zm5.443 5.284l-.586-.426 1.163-1.6.585.426-1.162 1.6zm6.811 3.343l-.69-.224.612-1.88.688.224-.61 1.88zm14.985-.224l-.689.224-.61-1.88.688-.224zm6.708-3.545l-.585.426-1.163-1.6.586-.425 1.162 1.6zm5.284-5.444l-.425.586-1.6-1.162.425-.587zm3.343-6.81l-.224.688-1.88-.61.223-.689zm-.224-14.986l.224.689-1.881.61-.224-.689 1.881-.61zm-3.544-6.708l.425.586-1.6 1.163-.425-.586zm-5.444-5.284l.585.426-1.162 1.6-.586-.426 1.163-1.6zm-6.812-3.343l.689.223-.611 1.881-.689-.224z" fill="#67696A"/></g></svg>